<svg width="148" height="20" viewBox="0 0 148 20" fill="none" xmlns="http://www.w3.org/2000/svg">
<path d="M116.757 16.2383C117.98 16.2383 118.971 15.2526 118.971 14.0366C118.971 12.8207 117.98 11.835 116.757 11.835C115.534 11.835 114.543 12.8207 114.543 14.0366C114.543 15.2526 115.534 16.2383 116.757 16.2383Z" fill="white"/>
<path d="M85.5342 9.99425C85.5342 15.5137 90.0504 19.9782 95.6011 19.9782H105.652V16.3355H95.6011C92.1282 16.3355 89.3045 13.5204 89.3045 10.0686C89.3045 6.61672 92.1268 3.80454 95.5967 3.80454H105.652V0.0146484H95.5967C90.0489 0.0146484 85.5342 4.47625 85.5342 9.99279V9.99425Z" fill="white"/>
<path d="M74.2964 0.0537109C68.7457 0.0537109 64.1826 4.54446 64.1826 10.0639V19.9765H67.9925V10.0639C67.9925 6.61061 70.8236 3.8028 74.295 3.8028C77.7649 3.8028 80.5945 6.60915 80.5945 10.0595V19.9765H84.4044V10.0595C84.4044 4.543 79.8442 0.0537109 74.2964 0.0537109Z" fill="white"/>
<path d="M41.96 0V6.09646C41.96 10.9617 38.4578 15.0299 33.8215 15.9231V20H30.0424V15.9362C25.3811 15.0678 21.8467 10.9879 21.8467 6.10083V0H25.6258V6.10083C25.6258 9.55122 28.4305 12.359 31.9004 12.359C35.3704 12.359 38.1794 9.55122 38.1794 6.09792V0H41.9586H41.96Z" fill="white"/>
<path d="M116.938 0.0537109C111.387 0.0537109 106.824 4.54446 106.824 10.0639V19.9765H110.634V10.0639C110.634 6.61061 113.392 3.8028 116.863 3.8028C120.333 3.8028 123.09 6.60915 123.09 10.0595V19.9765H127.046V10.0595C127.046 4.543 122.486 0.0537109 116.938 0.0537109Z" fill="white"/>
<path d="M53.0747 0.0146484H43.0811V19.9768H46.7444V3.80308H53.0747C56.3586 3.80308 59.3464 6.36173 59.3464 9.81211V19.9768H63.3028V9.82377C63.3028 4.30723 58.624 0.0146484 53.0747 0.0146484Z" fill="white"/>
<path d="M137.904 16.2685C134.454 16.2685 131.588 13.2377 131.588 9.78734V0.0146484H127.925V9.78734C127.925 15.2981 132.042 19.9768 137.869 19.9768H148V16.2408L137.904 16.267V16.2685Z" fill="white"/>
<path d="M14.7546 8.11754L6.04749 8.10734C4.82392 8.10734 3.83335 7.11506 3.83335 5.89985C3.83335 4.68464 4.80487 3.7623 6.00939 3.74336L20.7303 3.76667L20.7244 0.0175805H6.00646C2.72555 0.0146664 0.0732673 2.65637 0.0732673 5.92462C0.0732673 9.39977 3.06257 11.8433 6.41822 11.8477L14.7546 11.8389C15.6118 11.8389 16.9629 12.4626 16.9629 14.0829C16.9629 15.7031 15.5195 16.3326 14.7546 16.3326H0V19.9753H14.7546C17.0215 19.9753 20.7229 18.1248 20.7229 14.0712C20.7229 10.6908 17.9783 8.12482 14.7546 8.11462V8.11754Z" fill="white"/>
<path d="M74.2913 16.2383C75.5141 16.2383 76.5054 15.2526 76.5054 14.0366C76.5054 12.8207 75.5141 11.835 74.2913 11.835C73.0684 11.835 72.0771 12.8207 72.0771 14.0366C72.0771 15.2526 73.0684 16.2383 74.2913 16.2383Z" fill="white"/>
</svg>
