<svg width="20" height="18" viewBox="0 0 20 18" fill="none" xmlns="http://www.w3.org/2000/svg">
<path fill-rule="evenodd" clip-rule="evenodd" d="M8.11463 0.979492H11.8847C13.5693 0.979478 14.9037 0.979466 15.9479 1.11987C17.0227 1.26436 17.8925 1.5688 18.5785 2.2548C19.2645 2.9408 19.569 3.81067 19.7135 4.88539C19.8539 5.92967 19.8539 7.264 19.8538 8.94862V9.05204C19.8539 10.7367 19.8539 12.071 19.7135 13.1153C19.569 14.19 19.2645 15.0599 18.5785 15.7459C17.8925 16.4319 17.0227 16.7363 15.9479 16.8808C14.9037 17.0212 13.5693 17.0212 11.8847 17.0212H8.11463C6.43002 17.0212 5.09568 17.0212 4.0514 16.8808C2.97668 16.7363 2.10681 16.4319 1.42081 15.7459C0.734815 15.0599 0.430374 14.19 0.285882 13.1153C0.145482 12.071 0.145494 10.7367 0.145508 9.05204V8.94861C0.145494 7.264 0.145482 5.92967 0.285882 4.88539C0.430374 3.81067 0.734815 2.9408 1.42081 2.2548C2.10681 1.5688 2.97668 1.26436 4.0514 1.11987C5.09568 0.979466 6.43001 0.979478 8.11463 0.979492ZM4.23462 2.4826C3.31237 2.6066 2.78103 2.83913 2.39309 3.22707C2.00514 3.61501 1.77261 4.14636 1.64862 5.0686C1.52197 6.01063 1.52051 7.25241 1.52051 9.00033C1.52051 10.7482 1.52197 11.99 1.64862 12.932C1.77261 13.8543 2.00514 14.3856 2.39309 14.7736C2.78103 15.1615 3.31237 15.3941 4.23462 15.518C5.17664 15.6447 6.41842 15.6462 8.16634 15.6462H11.833C13.5809 15.6462 14.8227 15.6447 15.7647 15.518C16.687 15.3941 17.2183 15.1615 17.6063 14.7736C17.9942 14.3856 18.2267 13.8543 18.3507 12.932C18.4774 11.99 18.4788 10.7482 18.4788 9.00033C18.4788 7.25241 18.4774 6.01063 18.3507 5.0686C18.2267 4.14636 17.9942 3.61501 17.6063 3.22707C17.2183 2.83913 16.687 2.6066 15.7647 2.4826C14.8227 2.35595 13.5809 2.35449 11.833 2.35449H8.16634C6.41842 2.35449 5.17665 2.35595 4.23462 2.4826ZM3.97152 4.89353C4.2146 4.60184 4.64811 4.56243 4.9398 4.80551L6.91879 6.45466C7.774 7.16734 8.36776 7.66054 8.86904 7.98294C9.35429 8.29503 9.68336 8.3998 9.99968 8.3998C10.316 8.3998 10.6451 8.29503 11.1303 7.98294C11.6316 7.66054 12.2253 7.16734 13.0806 6.45466L15.0595 4.80551C15.3512 4.56243 15.7848 4.60184 16.0278 4.89353C16.2709 5.18522 16.2315 5.61874 15.9398 5.86181L13.9264 7.53969C13.1139 8.21679 12.4553 8.76559 11.8741 9.13941C11.2686 9.52881 10.679 9.7748 9.99968 9.7748C9.32035 9.7748 8.73071 9.52881 8.12525 9.13941C7.54403 8.76559 6.8855 8.21679 6.07301 7.53969L4.05955 5.86181C3.76786 5.61874 3.72845 5.18522 3.97152 4.89353Z" fill="white"/>
</svg>
