<svg width="17" height="17" viewBox="0 0 17 17" fill="none" xmlns="http://www.w3.org/2000/svg">
<path fill-rule="evenodd" clip-rule="evenodd" d="M2.5065 1.12259C4.04657 -0.417475 6.64545 -0.300401 7.71778 1.62105L8.31271 2.68706C9.01297 3.94182 8.71456 5.52497 7.68945 6.56261C7.67579 6.58132 7.60344 6.68667 7.59442 6.87075C7.58292 7.10571 7.66637 7.64909 8.50826 8.49099C9.34988 9.3326 9.89318 9.41626 10.1282 9.40482C10.3125 9.39586 10.4179 9.32346 10.4366 9.30979C11.4743 8.28469 13.0574 7.98628 14.3122 8.68654L15.3782 9.28146C17.2996 10.3538 17.4167 12.9527 15.8767 14.4927C15.0529 15.3165 13.9575 16.0485 12.6704 16.0973C10.7628 16.1696 7.59554 15.677 4.45891 12.5403C1.32227 9.4037 0.82967 6.2364 0.901984 4.32888C0.95078 3.0417 1.68273 1.94636 2.5065 1.12259ZM6.5171 2.29112C5.96801 1.30723 4.49245 1.08118 3.47878 2.09486C2.76804 2.80559 2.30598 3.59009 2.276 4.38097C2.21569 5.9717 2.60843 8.74531 5.43118 11.5681C8.25393 14.3908 11.0275 14.7836 12.6183 14.7232C13.4092 14.6933 14.1937 14.2312 14.9044 13.5205C15.9181 12.5068 15.692 11.0312 14.7081 10.4821L13.6421 9.88721C12.979 9.51713 12.0475 9.64337 11.3937 10.2972L11.3935 10.2974C11.3292 10.3616 10.9206 10.7429 10.195 10.7782C9.45235 10.8143 8.55334 10.4806 7.53599 9.46326C6.5183 8.44557 6.1847 7.54631 6.22107 6.80351C6.25659 6.07795 6.63813 5.66949 6.70197 5.60564L6.702 5.60561C7.35587 4.95173 7.48212 4.02027 7.11203 3.35714L6.5171 2.29112Z" fill="white"/>
</svg>
