<svg width="255" height="215" viewBox="0 0 255 215" fill="none" xmlns="http://www.w3.org/2000/svg">
<g filter="url(#filter0_b_48_527)">
<rect x="0.251953" y="0.876831" width="253.777" height="213.239" rx="13.8827" fill="black"/>
<rect x="0.529608" y="1.15449" width="253.221" height="212.684" rx="13.6051" stroke="url(#paint0_linear_48_527)" stroke-width="0.55531"/>
</g>
<path d="M25.0582 50.4552C25.0203 50.1355 24.8668 49.8872 24.5975 49.7106C24.3283 49.5339 23.998 49.4455 23.6068 49.4455C23.3207 49.4455 23.0704 49.4918 22.8559 49.5843C22.6434 49.6769 22.4772 49.8042 22.3573 49.9661C22.2396 50.1281 22.1807 50.3121 22.1807 50.5183C22.1807 50.6908 22.2217 50.8391 22.3037 50.9632C22.3878 51.0852 22.4951 51.1872 22.6255 51.2692C22.756 51.3491 22.8927 51.4154 23.0357 51.468C23.1787 51.5185 23.3102 51.5595 23.4301 51.591L24.0864 51.7677C24.2547 51.8119 24.4419 51.8729 24.648 51.9507C24.8562 52.0286 25.055 52.1348 25.2443 52.2694C25.4357 52.4019 25.5935 52.5723 25.7176 52.7805C25.8417 52.9888 25.9038 53.2443 25.9038 53.5472C25.9038 53.8964 25.8123 54.2119 25.6293 54.4938C25.4484 54.7757 25.1833 54.9997 24.8342 55.1658C24.4871 55.332 24.0653 55.4151 23.5689 55.4151C23.1062 55.4151 22.7055 55.3404 22.3668 55.1911C22.0303 55.0417 21.7652 54.8335 21.5717 54.5664C21.3803 54.2992 21.272 53.989 21.2467 53.6356H22.0545C22.0755 53.8796 22.1575 54.0815 22.3006 54.2414C22.4457 54.3991 22.6287 54.5169 22.8496 54.5948C23.0725 54.6705 23.3123 54.7083 23.5689 54.7083C23.8676 54.7083 24.1358 54.66 24.3735 54.5632C24.6112 54.4643 24.7994 54.3276 24.9383 54.153C25.0771 53.9763 25.1465 53.7702 25.1465 53.5346C25.1465 53.3201 25.0866 53.1455 24.9667 53.0109C24.8468 52.8762 24.689 52.7669 24.4934 52.6827C24.2978 52.5986 24.0864 52.525 23.8592 52.4619L23.0641 52.2347C22.5593 52.0896 22.1596 51.8824 21.8651 51.6131C21.5707 51.3439 21.4234 50.9916 21.4234 50.5561C21.4234 50.1943 21.5212 49.8788 21.7168 49.6096C21.9146 49.3382 22.1796 49.1279 22.512 48.9786C22.8464 48.8271 23.2198 48.7514 23.632 48.7514C24.0485 48.7514 24.4187 48.8261 24.7427 48.9754C25.0666 49.1226 25.3232 49.3246 25.5125 49.5812C25.7039 49.8378 25.8049 50.1291 25.8154 50.4552H25.0582Z" fill="#979797"/>
<path d="M54.8348 48.8397H55.7687L57.9647 54.2035H58.0404L60.2364 48.8397H61.1704V55.3015H60.4384V50.3921H60.3753L58.3559 55.3015H57.6492L55.6299 50.3921H55.5668V55.3015H54.8348V48.8397Z" fill="#979797"/>
<path d="M90.0121 49.5339V48.8397H94.8584V49.5339H92.8265V55.3015H92.044V49.5339H90.0121Z" fill="#979797"/>
<path d="M124.602 55.3015L122.835 48.8397H123.63L124.981 54.1025H125.044L126.42 48.8397H127.303L128.679 54.1025H128.742L130.092 48.8397H130.887L129.12 55.3015H128.313L126.887 50.1523H126.836L125.41 55.3015H124.602Z" fill="#979797"/>
<path d="M158.87 49.5339V48.8397H163.717V49.5339H161.685V55.3015H160.902V49.5339H158.87Z" fill="#979797"/>
<path d="M193.896 55.3015V48.8397H197.771V49.5339H194.679V51.7172H197.481V52.4114H194.679V55.3015H193.896Z" fill="#979797"/>
<path d="M231.633 50.4552C231.596 50.1355 231.442 49.8872 231.173 49.7106C230.903 49.5339 230.573 49.4455 230.182 49.4455C229.896 49.4455 229.646 49.4918 229.431 49.5843C229.219 49.6769 229.052 49.8042 228.933 49.9661C228.815 50.1281 228.756 50.3121 228.756 50.5183C228.756 50.6908 228.797 50.8391 228.879 50.9632C228.963 51.0852 229.07 51.1872 229.201 51.2692C229.331 51.3491 229.468 51.4154 229.611 51.468C229.754 51.5185 229.885 51.5595 230.005 51.591L230.662 51.7677C230.83 51.8119 231.017 51.8729 231.223 51.9507C231.431 52.0286 231.63 52.1348 231.82 52.2694C232.011 52.4019 232.169 52.5723 232.293 52.7805C232.417 52.9888 232.479 53.2443 232.479 53.5472C232.479 53.8964 232.387 54.2119 232.204 54.4938C232.024 54.7757 231.759 54.9997 231.409 55.1658C231.062 55.332 230.641 55.4151 230.144 55.4151C229.681 55.4151 229.281 55.3404 228.942 55.1911C228.605 55.0417 228.34 54.8335 228.147 54.5664C227.955 54.2992 227.847 53.989 227.822 53.6356H228.63C228.651 53.8796 228.733 54.0815 228.876 54.2414C229.021 54.3991 229.204 54.5169 229.425 54.5948C229.648 54.6705 229.888 54.7083 230.144 54.7083C230.443 54.7083 230.711 54.66 230.949 54.5632C231.186 54.4643 231.375 54.3276 231.513 54.153C231.652 53.9763 231.722 53.7702 231.722 53.5346C231.722 53.3201 231.662 53.1455 231.542 53.0109C231.422 52.8762 231.264 52.7669 231.069 52.6827C230.873 52.5986 230.662 52.525 230.434 52.4619L229.639 52.2347C229.134 52.0896 228.735 51.8824 228.44 51.6131C228.146 51.3439 227.999 50.9916 227.999 50.5561C227.999 50.1943 228.096 49.8788 228.292 49.6096C228.49 49.3382 228.755 49.1279 229.087 48.9786C229.422 48.8271 229.795 48.7514 230.207 48.7514C230.624 48.7514 230.994 48.8261 231.318 48.9754C231.642 49.1226 231.898 49.3246 232.088 49.5812C232.279 49.8378 232.38 50.1291 232.391 50.4552H231.633Z" fill="#979797"/>
<path d="M18.6477 77.5139V76.8072L20.8342 74.5417C21.0677 74.2956 21.2601 74.08 21.4116 73.8949C21.5651 73.7077 21.6798 73.53 21.7555 73.3617C21.8312 73.1934 21.8691 73.0146 21.8691 72.8253C21.8691 72.6108 21.8186 72.4257 21.7176 72.27C21.6167 72.1123 21.4789 71.9913 21.3043 71.9072C21.1297 71.8209 20.9331 71.7778 20.7143 71.7778C20.4829 71.7778 20.281 71.8251 20.1085 71.9198C19.936 72.0145 19.8035 72.148 19.711 72.3205C19.6184 72.493 19.5721 72.6949 19.5721 72.9263H18.6413C18.6413 72.533 18.7318 72.189 18.9127 71.8946C19.0936 71.6001 19.3418 71.3719 19.6573 71.2099C19.9728 71.0458 20.3315 70.9638 20.7332 70.9638C21.1392 70.9638 21.4968 71.0448 21.806 71.2067C22.1173 71.3666 22.3602 71.5854 22.5348 71.863C22.7094 72.1386 22.7967 72.4499 22.7967 72.7969C22.7967 73.0367 22.7515 73.2713 22.661 73.5005C22.5727 73.7298 22.4181 73.9854 22.1972 74.2672C21.9764 74.547 21.6693 74.8867 21.2759 75.2864L19.9918 76.6305V76.6778H22.9008V77.5139H18.6477ZM26.2453 70.9638C26.5335 70.9659 26.8174 71.0185 27.0972 71.1215C27.377 71.2246 27.6294 71.3929 27.8544 71.6264C28.0816 71.8599 28.2625 72.1754 28.3971 72.5729C28.5339 72.9684 28.6033 73.4606 28.6054 74.0495C28.6054 74.6154 28.5486 75.1191 28.435 75.5609C28.3214 76.0005 28.1584 76.3717 27.9459 76.6746C27.7356 76.9775 27.48 77.2079 27.1792 77.3656C26.8784 77.5234 26.5398 77.6023 26.1633 77.6023C25.7783 77.6023 25.4365 77.5265 25.1378 77.3751C24.8392 77.2236 24.5962 77.0143 24.409 76.7472C24.2218 76.478 24.105 76.1688 24.0588 75.8196H25.0211C25.0842 76.0972 25.2125 76.3223 25.406 76.4948C25.6017 76.6652 25.8541 76.7504 26.1633 76.7504C26.6365 76.7504 27.0057 76.5442 27.2707 76.132C27.5358 75.7176 27.6693 75.1391 27.6714 74.3966H27.621C27.5116 74.5775 27.3749 74.7332 27.2108 74.8636C27.0488 74.994 26.8669 75.095 26.6649 75.1665C26.463 75.238 26.2474 75.2737 26.0181 75.2737C25.6458 75.2737 25.3072 75.1822 25.0022 74.9992C24.6972 74.8162 24.4542 74.5649 24.2733 74.2452C24.0924 73.9254 24.002 73.5605 24.002 73.1503C24.002 72.7422 24.0945 72.372 24.2796 72.0397C24.4668 71.7074 24.7277 71.4444 25.0621 71.2509C25.3987 71.0553 25.7931 70.9596 26.2453 70.9638ZM26.2485 71.7841C26.0024 71.7841 25.7804 71.8451 25.5827 71.9671C25.3871 72.087 25.2325 72.25 25.1189 72.4562C25.0053 72.6602 24.9485 72.8874 24.9485 73.1377C24.9485 73.388 25.0032 73.6152 25.1126 73.8192C25.2241 74.0211 25.3755 74.1821 25.5669 74.302C25.7605 74.4197 25.9813 74.4786 26.2295 74.4786C26.4146 74.4786 26.5871 74.4429 26.747 74.3714C26.9068 74.2999 27.0467 74.201 27.1666 74.0748C27.2865 73.9465 27.3801 73.8013 27.4474 73.6394C27.5147 73.4774 27.5484 73.307 27.5484 73.1282C27.5484 72.8905 27.4916 72.6697 27.378 72.4656C27.2665 72.2616 27.113 72.0975 26.9174 71.9734C26.7217 71.8472 26.4988 71.7841 26.2485 71.7841Z" fill="#595959"/>
<path d="M55.1448 77.6023C54.7115 77.6023 54.3244 77.5276 53.9837 77.3782C53.645 77.2289 53.3768 77.0217 53.1791 76.7567C52.9835 76.4895 52.8783 76.1803 52.8636 75.8291H53.8543C53.8669 76.0205 53.9311 76.1866 54.0468 76.3276C54.1646 76.4664 54.3181 76.5737 54.5074 76.6494C54.6967 76.7251 54.9071 76.763 55.1385 76.763C55.393 76.763 55.618 76.7188 55.8137 76.6305C56.0114 76.5421 56.166 76.4191 56.2775 76.2613C56.389 76.1015 56.4447 75.9174 56.4447 75.7092C56.4447 75.4925 56.389 75.3021 56.2775 75.1381C56.1681 74.9719 56.0072 74.8415 55.7947 74.7468C55.5844 74.6522 55.3299 74.6049 55.0312 74.6049H54.4853V73.8097H55.0312C55.271 73.8097 55.4813 73.7666 55.6622 73.6804C55.8452 73.5941 55.9883 73.4742 56.0913 73.3207C56.1944 73.165 56.2459 72.9831 56.2459 72.7749C56.2459 72.575 56.2007 72.4015 56.1103 72.2542C56.0219 72.1049 55.8957 71.9882 55.7316 71.904C55.5697 71.8199 55.3783 71.7778 55.1574 71.7778C54.947 71.7778 54.7504 71.8167 54.5674 71.8946C54.3865 71.9703 54.2392 72.0797 54.1257 72.2227C54.0121 72.3636 53.9511 72.533 53.9427 72.7307H52.9993C53.0098 72.3815 53.1128 72.0744 53.3085 71.8094C53.5062 71.5443 53.767 71.3371 54.0909 71.1878C54.4149 71.0385 54.7746 70.9638 55.17 70.9638C55.5844 70.9638 55.942 71.0448 56.2428 71.2067C56.5457 71.3666 56.7791 71.5801 56.9432 71.8472C57.1094 72.1144 57.1914 72.4067 57.1893 72.7244C57.1914 73.0862 57.0905 73.3933 56.8864 73.6457C56.6845 73.8981 56.4153 74.0674 56.0787 74.1537V74.2041C56.5078 74.2694 56.8401 74.4397 57.0757 74.7153C57.3134 74.9908 57.4312 75.3326 57.4291 75.7407C57.4312 76.0962 57.3324 76.4149 57.1325 76.6967C56.9348 76.9786 56.6645 77.2005 56.3216 77.3625C55.9788 77.5223 55.5865 77.6023 55.1448 77.6023ZM60.8714 77.6212C60.3729 77.6191 59.9469 77.4876 59.5936 77.2268C59.2402 76.966 58.9699 76.5863 58.7827 76.0878C58.5955 75.5893 58.5019 74.9887 58.5019 74.2862C58.5019 73.5857 58.5955 72.9873 58.7827 72.4909C58.972 71.9945 59.2433 71.6159 59.5967 71.355C59.9522 71.0942 60.3771 70.9638 60.8714 70.9638C61.3657 70.9638 61.7896 71.0953 62.1429 71.3582C62.4963 71.619 62.7666 71.9976 62.9538 72.494C63.1431 72.9884 63.2378 73.5857 63.2378 74.2862C63.2378 74.9908 63.1442 75.5924 62.957 76.0909C62.7698 76.5873 62.4995 76.967 62.1461 77.23C61.7927 77.4908 61.3678 77.6212 60.8714 77.6212ZM60.8714 76.7788C61.3089 76.7788 61.6507 76.5653 61.8968 76.1383C62.145 75.7113 62.2691 75.0939 62.2691 74.2862C62.2691 73.7498 62.2123 73.2965 62.0988 72.9263C61.9873 72.554 61.8264 72.2721 61.616 72.0807C61.4078 71.8872 61.1596 71.7904 60.8714 71.7904C60.436 71.7904 60.0942 72.005 59.846 72.4341C59.5978 72.8632 59.4726 73.4806 59.4705 74.2862C59.4705 74.8247 59.5262 75.2801 59.6377 75.6524C59.7513 76.0226 59.9122 76.3034 60.1205 76.4948C60.3287 76.6841 60.579 76.7788 60.8714 76.7788Z" fill="#595959"/>
<path d="M93.4066 71.0521V77.5139H92.4285V72.0302H92.3907L90.8446 73.0399V72.106L92.4569 71.0521H93.4066Z" fill="white"/>
<path d="M124.759 77.5139V76.8072L126.946 74.5417C127.179 74.2956 127.372 74.08 127.523 73.8949C127.677 73.7077 127.791 73.53 127.867 73.3617C127.943 73.1934 127.98 73.0146 127.98 72.8253C127.98 72.6108 127.93 72.4257 127.829 72.27C127.728 72.1123 127.59 71.9913 127.416 71.9072C127.241 71.8209 127.044 71.7778 126.826 71.7778C126.594 71.7778 126.392 71.8251 126.22 71.9198C126.047 72.0145 125.915 72.148 125.822 72.3205C125.73 72.493 125.684 72.6949 125.684 72.9263H124.753C124.753 72.533 124.843 72.189 125.024 71.8946C125.205 71.6001 125.453 71.3719 125.769 71.2099C126.084 71.0458 126.443 70.9638 126.845 70.9638C127.251 70.9638 127.608 71.0448 127.917 71.2067C128.229 71.3666 128.472 71.5854 128.646 71.863C128.821 72.1386 128.908 72.4499 128.908 72.7969C128.908 73.0367 128.863 73.2713 128.772 73.5005C128.684 73.7298 128.529 73.9854 128.309 74.2672C128.088 74.547 127.781 74.8867 127.387 75.2864L126.103 76.6305V76.6778H129.012V77.5139H124.759Z" fill="white"/>
<path d="M161.3 77.6023C160.866 77.6023 160.479 77.5276 160.138 77.3782C159.8 77.2289 159.532 77.0217 159.334 76.7567C159.138 76.4895 159.033 76.1803 159.018 75.8291H160.009C160.022 76.0205 160.086 76.1866 160.202 76.3276C160.319 76.4664 160.473 76.5737 160.662 76.6494C160.852 76.7251 161.062 76.763 161.293 76.763C161.548 76.763 161.773 76.7188 161.968 76.6305C162.166 76.5421 162.321 76.4191 162.432 76.2613C162.544 76.1015 162.599 75.9174 162.599 75.7092C162.599 75.4925 162.544 75.3021 162.432 75.1381C162.323 74.9719 162.162 74.8415 161.949 74.7468C161.739 74.6522 161.485 74.6049 161.186 74.6049H160.64V73.8097H161.186C161.426 73.8097 161.636 73.7666 161.817 73.6804C162 73.5941 162.143 73.4742 162.246 73.3207C162.349 73.165 162.401 72.9831 162.401 72.7749C162.401 72.575 162.355 72.4015 162.265 72.2542C162.177 72.1049 162.05 71.9882 161.886 71.904C161.724 71.8199 161.533 71.7778 161.312 71.7778C161.102 71.7778 160.905 71.8167 160.722 71.8946C160.541 71.9703 160.394 72.0797 160.28 72.2227C160.167 72.3636 160.106 72.533 160.097 72.7307H159.154C159.165 72.3815 159.268 72.0744 159.463 71.8094C159.661 71.5443 159.922 71.3371 160.246 71.1878C160.57 71.0385 160.929 70.9638 161.325 70.9638C161.739 70.9638 162.097 71.0448 162.398 71.2067C162.7 71.3666 162.934 71.5801 163.098 71.8472C163.264 72.1144 163.346 72.4067 163.344 72.7244C163.346 73.0862 163.245 73.3933 163.041 73.6457C162.839 73.8981 162.57 74.0674 162.233 74.1537V74.2041C162.663 74.2694 162.995 74.4397 163.23 74.7153C163.468 74.9908 163.586 75.3326 163.584 75.7407C163.586 76.0962 163.487 76.4149 163.287 76.6967C163.09 76.9786 162.819 77.2005 162.476 77.3625C162.134 77.5223 161.741 77.6023 161.3 77.6023Z" fill="white"/>
<path d="M193.301 76.2518V75.4631L196.093 71.0521H196.714V72.2132H196.32L194.323 75.3747V75.4252H198.15V76.2518H193.301ZM196.364 77.5139V76.0121L196.371 75.6524V71.0521H197.295V77.5139H196.364Z" fill="white"/>
<path d="M230.15 77.6023C229.754 77.6023 229.399 77.5265 229.083 77.3751C228.77 77.2215 228.519 77.0112 228.332 76.7441C228.145 76.4769 228.045 76.1719 228.033 75.8291H228.979C229.002 76.1067 229.125 76.3349 229.348 76.5137C229.571 76.6925 229.838 76.7819 230.15 76.7819C230.398 76.7819 230.618 76.7251 230.809 76.6115C231.003 76.4958 231.154 76.337 231.263 76.1351C231.375 75.9332 231.431 75.7028 231.431 75.4441C231.431 75.1812 231.374 74.9467 231.26 74.7405C231.147 74.5344 230.99 74.3724 230.79 74.2546C230.592 74.1368 230.365 74.0769 230.109 74.0748C229.913 74.0748 229.716 74.1084 229.519 74.1757C229.321 74.2431 229.161 74.3314 229.039 74.4408L228.146 74.3083L228.509 71.0521H232.062V71.8882H229.32L229.115 73.6962H229.153C229.279 73.5742 229.446 73.4721 229.654 73.3901C229.865 73.3081 230.09 73.2671 230.329 73.2671C230.723 73.2671 231.073 73.3607 231.38 73.5479C231.689 73.7351 231.932 73.9906 232.109 74.3146C232.288 74.6364 232.376 75.0066 232.374 75.4252C232.376 75.8438 232.281 76.2171 232.09 76.5453C231.901 76.8734 231.638 77.1321 231.301 77.3215C230.967 77.5087 230.583 77.6023 230.15 77.6023Z" fill="white"/>
<path d="M23.6281 104.257C23.3399 104.253 23.056 104.2 22.7762 104.1C22.4985 103.999 22.2461 103.83 22.019 103.595C21.7918 103.359 21.6098 103.043 21.4731 102.645C21.3385 102.247 21.2712 101.751 21.2712 101.156C21.2712 100.592 21.3269 100.091 21.4384 99.6539C21.552 99.2164 21.715 98.8472 21.9275 98.5464C22.1399 98.2435 22.3965 98.0132 22.6973 97.8555C22.9981 97.6977 23.3357 97.6188 23.7101 97.6188C24.0951 97.6188 24.4369 97.6945 24.7356 97.846C25.0342 97.9974 25.2761 98.2067 25.4612 98.4739C25.6485 98.741 25.7673 99.045 25.8178 99.3857H24.8555C24.7902 99.1165 24.6609 98.8967 24.4674 98.7263C24.2739 98.5559 24.0214 98.4707 23.7101 98.4707C23.2369 98.4707 22.8677 98.6768 22.6027 99.0891C22.3397 99.5014 22.2072 100.075 22.2051 100.809H22.2524C22.3639 100.626 22.5006 100.47 22.6626 100.342C22.8267 100.211 23.0097 100.111 23.2116 100.042C23.4156 99.9705 23.6302 99.9347 23.8553 99.9347C24.2297 99.9347 24.5683 100.026 24.8712 100.209C25.1762 100.39 25.4192 100.64 25.6001 100.96C25.781 101.28 25.8714 101.646 25.8714 102.058C25.8714 102.47 25.7778 102.844 25.5906 103.178C25.4055 103.513 25.1447 103.778 24.8081 103.973C24.4716 104.167 24.0782 104.261 23.6281 104.257ZM23.6249 103.437C23.8731 103.437 24.0951 103.376 24.2907 103.254C24.4863 103.132 24.6409 102.968 24.7545 102.762C24.8681 102.556 24.9249 102.325 24.9249 102.071C24.9249 101.823 24.8691 101.596 24.7576 101.392C24.6483 101.188 24.4968 101.026 24.3033 100.907C24.1119 100.787 23.8931 100.727 23.647 100.727C23.4598 100.727 23.2863 100.762 23.1264 100.834C22.9687 100.905 22.8298 101.004 22.7099 101.131C22.59 101.257 22.4954 101.402 22.426 101.566C22.3587 101.728 22.325 101.899 22.325 102.08C22.325 102.322 22.3807 102.546 22.4922 102.752C22.6058 102.958 22.7604 103.125 22.956 103.251C23.1538 103.375 23.3767 103.437 23.6249 103.437Z" fill="white"/>
<path d="M56.2712 104.169L59.0919 98.5906V98.5433H55.8294V97.7072H60.1015V98.5717L57.2903 104.169H56.2712Z" fill="white"/>
<path d="M92.4313 104.257C91.979 104.257 91.5794 104.179 91.2323 104.024C90.8873 103.868 90.6171 103.654 90.4214 103.38C90.2258 103.107 90.1291 102.795 90.1312 102.446C90.1291 102.173 90.1848 101.921 90.2984 101.692C90.4141 101.461 90.5708 101.268 90.7685 101.115C90.9662 100.959 91.1871 100.86 91.4311 100.818V100.78C91.1093 100.702 90.8516 100.53 90.6581 100.263C90.4646 99.9957 90.3688 99.6886 90.371 99.3415C90.3688 99.0113 90.4561 98.7168 90.6328 98.4581C90.8116 98.1973 91.0567 97.9922 91.368 97.8428C91.6793 97.6935 92.0337 97.6188 92.4313 97.6188C92.8246 97.6188 93.1759 97.6945 93.4851 97.846C93.7964 97.9953 94.0415 98.2004 94.2203 98.4612C94.399 98.72 94.4895 99.0134 94.4916 99.3415C94.4895 99.6886 94.3906 99.9957 94.195 100.263C93.9994 100.53 93.7449 100.702 93.4315 100.78V100.818C93.6734 100.86 93.8911 100.959 94.0846 101.115C94.2802 101.268 94.4359 101.461 94.5515 101.692C94.6693 101.921 94.7293 102.173 94.7314 102.446C94.7293 102.795 94.6304 103.107 94.4348 103.38C94.2392 103.654 93.9678 103.868 93.6208 104.024C93.2758 104.179 92.8793 104.257 92.4313 104.257ZM92.4313 103.459C92.6984 103.459 92.9298 103.415 93.1254 103.327C93.321 103.236 93.4725 103.111 93.5798 102.951C93.687 102.789 93.7417 102.6 93.7438 102.383C93.7417 102.158 93.6828 101.959 93.5671 101.787C93.4536 101.614 93.2989 101.479 93.1033 101.38C92.9077 101.281 92.6837 101.231 92.4313 101.231C92.1768 101.231 91.9506 101.281 91.7529 101.38C91.5552 101.479 91.3995 101.614 91.2859 101.787C91.1724 101.959 91.1166 102.158 91.1187 102.383C91.1166 102.6 91.1682 102.789 91.2733 102.951C91.3806 103.111 91.5331 103.236 91.7308 103.327C91.9286 103.415 92.162 103.459 92.4313 103.459ZM92.4313 100.452C92.6458 100.452 92.8362 100.409 93.0024 100.323C93.1685 100.237 93.2989 100.117 93.3936 99.9631C93.4904 99.8096 93.5398 99.6297 93.5419 99.4236C93.5398 99.2216 93.4914 99.045 93.3968 98.8935C93.3042 98.7421 93.1748 98.6253 93.0087 98.5433C92.8425 98.4591 92.65 98.4171 92.4313 98.4171C92.2083 98.4171 92.0127 98.4591 91.8444 98.5433C91.6782 98.6253 91.5489 98.7421 91.4563 98.8935C91.3638 99.045 91.3186 99.2216 91.3207 99.4236C91.3186 99.6297 91.3648 99.8096 91.4595 99.9631C91.5541 100.117 91.6846 100.237 91.8507 100.323C92.019 100.409 92.2125 100.452 92.4313 100.452Z" fill="white"/>
<path d="M126.808 97.6188C127.096 97.6209 127.38 97.6735 127.66 97.7766C127.94 97.8796 128.192 98.0479 128.417 98.2814C128.644 98.5149 128.825 98.8304 128.96 99.228C129.096 99.6234 129.166 100.116 129.168 100.705C129.168 101.27 129.111 101.774 128.998 102.216C128.884 102.656 128.721 103.027 128.509 103.33C128.298 103.633 128.043 103.863 127.742 104.021C127.441 104.178 127.102 104.257 126.726 104.257C126.341 104.257 125.999 104.182 125.7 104.03C125.402 103.879 125.159 103.669 124.972 103.402C124.784 103.133 124.668 102.824 124.621 102.475H125.584C125.647 102.752 125.775 102.977 125.969 103.15C126.164 103.32 126.417 103.405 126.726 103.405C127.199 103.405 127.568 103.199 127.833 102.787C128.098 102.373 128.232 101.794 128.234 101.052H128.184C128.074 101.233 127.937 101.388 127.773 101.519C127.611 101.649 127.429 101.75 127.228 101.821C127.026 101.893 126.81 101.929 126.581 101.929C126.208 101.929 125.87 101.837 125.565 101.654C125.26 101.471 125.017 101.22 124.836 100.9C124.655 100.58 124.565 100.216 124.565 99.8053C124.565 99.3973 124.657 99.0271 124.842 98.6947C125.029 98.3624 125.29 98.0995 125.625 97.9059C125.961 97.7103 126.356 97.6146 126.808 97.6188ZM126.811 98.4392C126.565 98.4392 126.343 98.5002 126.145 98.6222C125.95 98.7421 125.795 98.9051 125.682 99.1112C125.568 99.3152 125.511 99.5424 125.511 99.7927C125.511 100.043 125.566 100.27 125.675 100.474C125.787 100.676 125.938 100.837 126.13 100.957C126.323 101.075 126.544 101.134 126.792 101.134C126.977 101.134 127.15 101.098 127.31 101.026C127.469 100.955 127.609 100.856 127.729 100.73C127.849 100.602 127.943 100.456 128.01 100.294C128.077 100.132 128.111 99.9621 128.111 99.7833C128.111 99.5456 128.054 99.3247 127.941 99.1207C127.829 98.9166 127.676 98.7526 127.48 98.6285C127.284 98.5023 127.061 98.4392 126.811 98.4392Z" fill="white"/>
<path d="M159.397 97.7072V104.169H158.419V98.6853H158.381L156.835 99.6949V98.761L158.448 97.7072H159.397ZM163.395 104.276C162.896 104.274 162.47 104.143 162.117 103.882C161.764 103.621 161.493 103.241 161.306 102.743C161.119 102.244 161.025 101.644 161.025 100.941C161.025 100.241 161.119 99.6423 161.306 99.1459C161.496 98.6495 161.767 98.2709 162.12 98.0101C162.476 97.7492 162.901 97.6188 163.395 97.6188C163.889 97.6188 164.313 97.7503 164.666 98.0132C165.02 98.274 165.29 98.6527 165.477 99.1491C165.667 99.6434 165.761 100.241 165.761 100.941C165.761 101.646 165.668 102.247 165.481 102.746C165.293 103.242 165.023 103.622 164.67 103.885C164.316 104.146 163.891 104.276 163.395 104.276ZM163.395 103.434C163.832 103.434 164.174 103.22 164.42 102.793C164.669 102.366 164.793 101.749 164.793 100.941C164.793 100.405 164.736 99.9515 164.622 99.5813C164.511 99.209 164.35 98.9272 164.14 98.7357C163.931 98.5422 163.683 98.4455 163.395 98.4455C162.96 98.4455 162.618 98.66 162.37 99.0891C162.121 99.5182 161.996 100.136 161.994 100.941C161.994 101.48 162.05 101.935 162.161 102.307C162.275 102.678 162.436 102.958 162.644 103.15C162.852 103.339 163.103 103.434 163.395 103.434Z" fill="white"/>
<path d="M194.595 97.7072V104.169H193.617V98.6853H193.579L192.033 99.6949V98.761L193.645 97.7072H194.595ZM198.794 97.7072V104.169H197.816V98.6853H197.779L196.232 99.6949V98.761L197.845 97.7072H198.794Z" fill="white"/>
<path d="M228.399 97.7072V104.169H227.421V98.6853H227.383L225.837 99.6949V98.761L227.449 97.7072H228.399ZM230.147 104.169V103.462L232.333 101.197C232.567 100.951 232.759 100.735 232.911 100.55C233.064 100.363 233.179 100.185 233.255 100.017C233.33 99.8485 233.368 99.6697 233.368 99.4804C233.368 99.2658 233.318 99.0807 233.217 98.9251C233.116 98.7673 232.978 98.6463 232.804 98.5622C232.629 98.476 232.432 98.4328 232.214 98.4328C231.982 98.4328 231.78 98.4802 231.608 98.5748C231.435 98.6695 231.303 98.8031 231.21 98.9755C231.118 99.148 231.071 99.35 231.071 99.5813H230.141C230.141 99.188 230.231 98.8441 230.412 98.5496C230.593 98.2551 230.841 98.0269 231.157 97.8649C231.472 97.7008 231.831 97.6188 232.232 97.6188C232.638 97.6188 232.996 97.6998 233.305 97.8618C233.617 98.0216 233.859 98.2404 234.034 98.518C234.209 98.7936 234.296 99.1049 234.296 99.452C234.296 99.6918 234.251 99.9263 234.16 100.156C234.072 100.385 233.917 100.64 233.696 100.922C233.476 101.202 233.168 101.542 232.775 101.941L231.491 103.285V103.333H234.4V104.169H230.147Z" fill="white"/>
<path d="M21.6849 124.362V130.824H20.7068V125.34H20.6689L19.1229 126.35V125.416L20.7352 124.362H21.6849ZM25.6825 130.912C25.2492 130.912 24.8622 130.837 24.5214 130.688C24.1827 130.539 23.9146 130.332 23.7168 130.066C23.5212 129.799 23.416 129.49 23.4013 129.139H24.392C24.4047 129.33 24.4688 129.496 24.5845 129.637C24.7023 129.776 24.8558 129.883 25.0452 129.959C25.2345 130.035 25.4448 130.073 25.6762 130.073C25.9307 130.073 26.1558 130.029 26.3514 129.94C26.5491 129.852 26.7037 129.729 26.8152 129.571C26.9267 129.411 26.9824 129.227 26.9824 129.019C26.9824 128.802 26.9267 128.612 26.8152 128.448C26.7058 128.282 26.5449 128.151 26.3325 128.057C26.1221 127.962 25.8676 127.915 25.5689 127.915H25.0231V127.12H25.5689C25.8087 127.12 26.0191 127.076 26.2 126.99C26.383 126.904 26.526 126.784 26.6291 126.631C26.7321 126.475 26.7837 126.293 26.7837 126.085C26.7837 125.885 26.7384 125.711 26.648 125.564C26.5596 125.415 26.4334 125.298 26.2694 125.214C26.1074 125.13 25.916 125.088 25.6951 125.088C25.4848 125.088 25.2881 125.127 25.1051 125.204C24.9242 125.28 24.777 125.389 24.6634 125.533C24.5498 125.673 24.4888 125.843 24.4804 126.04H23.537C23.5475 125.691 23.6506 125.384 23.8462 125.119C24.0439 124.854 24.3047 124.647 24.6287 124.498C24.9526 124.348 25.3123 124.274 25.7077 124.274C26.1221 124.274 26.4797 124.355 26.7805 124.517C27.0834 124.676 27.3169 124.89 27.4809 125.157C27.6471 125.424 27.7292 125.717 27.7271 126.034C27.7292 126.396 27.6282 126.703 27.4242 126.955C27.2222 127.208 26.953 127.377 26.6164 127.463V127.514C27.0455 127.579 27.3779 127.75 27.6135 128.025C27.8512 128.301 27.9689 128.642 27.9668 129.051C27.9689 129.406 27.8701 129.725 27.6703 130.007C27.4725 130.288 27.2022 130.51 26.8594 130.672C26.5165 130.832 26.1242 130.912 25.6825 130.912Z" fill="white"/>
<path d="M90.6518 124.362V130.824H89.6737V125.34H89.6358L88.0898 126.35V125.416L89.7021 124.362H90.6518ZM94.5326 130.912C94.1372 130.912 93.7817 130.836 93.4662 130.685C93.1528 130.531 92.9024 130.321 92.7152 130.054C92.528 129.787 92.4281 129.482 92.4155 129.139H93.3621C93.3852 129.417 93.5082 129.645 93.7312 129.824C93.9542 130.002 94.2213 130.092 94.5326 130.092C94.7808 130.092 95.0006 130.035 95.192 129.921C95.3856 129.806 95.537 129.647 95.6464 129.445C95.7579 129.243 95.8136 129.013 95.8136 128.754C95.8136 128.491 95.7568 128.256 95.6432 128.05C95.5297 127.844 95.3729 127.682 95.1731 127.564C94.9754 127.447 94.7482 127.387 94.4916 127.385C94.296 127.385 94.0993 127.418 93.9016 127.486C93.7039 127.553 93.544 127.641 93.422 127.751L92.5291 127.618L92.8919 124.362H96.4447V125.198H93.7028L93.4977 127.006H93.5356C93.6618 126.884 93.829 126.782 94.0373 126.7C94.2476 126.618 94.4727 126.577 94.7125 126.577C95.1058 126.577 95.456 126.67 95.7631 126.858C96.0723 127.045 96.3153 127.3 96.492 127.624C96.6708 127.946 96.7591 128.316 96.757 128.735C96.7591 129.154 96.6645 129.527 96.473 129.855C96.2837 130.183 96.0208 130.442 95.6843 130.631C95.3498 130.818 94.9659 130.912 94.5326 130.912Z" fill="white"/>
<path d="M125.011 124.362V130.824H124.033V125.34H123.995L122.449 126.35V125.416L124.061 124.362H125.011ZM129.015 130.912C128.727 130.908 128.443 130.855 128.163 130.754C127.885 130.653 127.633 130.485 127.406 130.249C127.179 130.014 126.997 129.697 126.86 129.3C126.725 128.902 126.658 128.406 126.658 127.811C126.658 127.247 126.714 126.746 126.825 126.309C126.939 125.871 127.102 125.502 127.314 125.201C127.527 124.898 127.783 124.668 128.084 124.51C128.385 124.352 128.723 124.274 129.097 124.274C129.482 124.274 129.824 124.349 130.122 124.501C130.421 124.652 130.663 124.862 130.848 125.129C131.035 125.396 131.154 125.7 131.205 126.04H130.242C130.177 125.771 130.048 125.551 129.854 125.381C129.661 125.211 129.408 125.125 129.097 125.125C128.624 125.125 128.255 125.332 127.99 125.744C127.727 126.156 127.594 126.729 127.592 127.463H127.639C127.751 127.28 127.888 127.125 128.049 126.997C128.214 126.866 128.397 126.766 128.598 126.697C128.803 126.625 129.017 126.589 129.242 126.589C129.617 126.589 129.955 126.681 130.258 126.864C130.563 127.045 130.806 127.295 130.987 127.615C131.168 127.935 131.258 128.301 131.258 128.713C131.258 129.125 131.165 129.499 130.977 129.833C130.792 130.167 130.532 130.432 130.195 130.628C129.858 130.822 129.465 130.916 129.015 130.912ZM129.012 130.092C129.26 130.092 129.482 130.031 129.678 129.909C129.873 129.787 130.028 129.623 130.141 129.417C130.255 129.21 130.312 128.98 130.312 128.726C130.312 128.477 130.256 128.251 130.145 128.047C130.035 127.843 129.884 127.681 129.69 127.561C129.499 127.441 129.28 127.381 129.034 127.381C128.847 127.381 128.673 127.417 128.513 127.489C128.356 127.56 128.217 127.659 128.097 127.785C127.977 127.912 127.882 128.057 127.813 128.221C127.746 128.383 127.712 128.554 127.712 128.735C127.712 128.977 127.768 129.201 127.879 129.407C127.993 129.613 128.147 129.779 128.343 129.906C128.541 130.03 128.764 130.092 129.012 130.092Z" fill="white"/>
<path d="M159.692 124.362V130.824H158.714V125.34H158.676L157.13 126.35V125.416L158.743 124.362H159.692ZM161.658 130.824L164.479 125.245V125.198H161.216V124.362H165.488V125.226L162.677 130.824H161.658Z" fill="white"/>
<path d="M193.888 124.362V130.824H192.91V125.34H192.872L191.326 126.35V125.416L192.938 124.362H193.888ZM197.819 130.912C197.367 130.912 196.967 130.834 196.62 130.679C196.275 130.523 196.005 130.308 195.809 130.035C195.614 129.761 195.517 129.45 195.519 129.101C195.517 128.828 195.573 128.576 195.686 128.347C195.802 128.116 195.959 127.923 196.156 127.77C196.354 127.614 196.575 127.515 196.819 127.473V127.435C196.497 127.357 196.239 127.185 196.046 126.918C195.852 126.65 195.757 126.343 195.759 125.996C195.757 125.666 195.844 125.372 196.021 125.113C196.199 124.852 196.445 124.647 196.756 124.498C197.067 124.348 197.422 124.274 197.819 124.274C198.212 124.274 198.564 124.349 198.873 124.501C199.184 124.65 199.429 124.855 199.608 125.116C199.787 125.375 199.877 125.668 199.879 125.996C199.877 126.343 199.778 126.65 199.583 126.918C199.387 127.185 199.133 127.357 198.819 127.435V127.473C199.061 127.515 199.279 127.614 199.472 127.77C199.668 127.923 199.824 128.116 199.939 128.347C200.057 128.576 200.117 128.828 200.119 129.101C200.117 129.45 200.018 129.761 199.823 130.035C199.627 130.308 199.356 130.523 199.009 130.679C198.664 130.834 198.267 130.912 197.819 130.912ZM197.819 130.114C198.086 130.114 198.318 130.07 198.513 129.981C198.709 129.891 198.86 129.766 198.968 129.606C199.075 129.444 199.13 129.255 199.132 129.038C199.13 128.813 199.071 128.614 198.955 128.442C198.841 128.269 198.687 128.133 198.491 128.035C198.296 127.936 198.072 127.886 197.819 127.886C197.565 127.886 197.338 127.936 197.141 128.035C196.943 128.133 196.787 128.269 196.674 128.442C196.56 128.614 196.504 128.813 196.507 129.038C196.504 129.255 196.556 129.444 196.661 129.606C196.768 129.766 196.921 129.891 197.119 129.981C197.316 130.07 197.55 130.114 197.819 130.114ZM197.819 127.107C198.034 127.107 198.224 127.064 198.39 126.978C198.556 126.891 198.687 126.771 198.781 126.618C198.878 126.464 198.928 126.284 198.93 126.078C198.928 125.876 198.879 125.7 198.785 125.548C198.692 125.397 198.563 125.28 198.397 125.198C198.23 125.114 198.038 125.072 197.819 125.072C197.596 125.072 197.401 125.114 197.232 125.198C197.066 125.28 196.937 125.397 196.844 125.548C196.752 125.7 196.706 125.876 196.709 126.078C196.706 126.284 196.753 126.464 196.847 126.618C196.942 126.771 197.072 126.891 197.239 126.978C197.407 127.064 197.6 127.107 197.819 127.107Z" fill="white"/>
<path d="M228.299 124.362V130.824H227.321V125.34H227.283L225.737 126.35V125.416L227.349 124.362H228.299ZM232.196 124.274C232.484 124.276 232.768 124.328 233.048 124.431C233.327 124.534 233.58 124.703 233.805 124.936C234.032 125.17 234.213 125.485 234.348 125.883C234.484 126.278 234.554 126.77 234.556 127.359C234.556 127.925 234.499 128.429 234.385 128.871C234.272 129.31 234.109 129.682 233.896 129.984C233.686 130.287 233.431 130.518 233.13 130.675C232.829 130.833 232.49 130.912 232.114 130.912C231.729 130.912 231.387 130.836 231.088 130.685C230.79 130.533 230.547 130.324 230.359 130.057C230.172 129.788 230.056 129.479 230.009 129.129H230.972C231.035 129.407 231.163 129.632 231.357 129.805C231.552 129.975 231.805 130.06 232.114 130.06C232.587 130.06 232.956 129.854 233.221 129.442C233.486 129.027 233.62 128.449 233.622 127.706H233.571C233.462 127.887 233.325 128.043 233.161 128.173C232.999 128.304 232.817 128.405 232.615 128.476C232.413 128.548 232.198 128.584 231.969 128.584C231.596 128.584 231.258 128.492 230.953 128.309C230.648 128.126 230.405 127.875 230.224 127.555C230.043 127.235 229.952 126.87 229.952 126.46C229.952 126.052 230.045 125.682 230.23 125.35C230.417 125.017 230.678 124.754 231.013 124.561C231.349 124.365 231.744 124.269 232.196 124.274ZM232.199 125.094C231.953 125.094 231.731 125.155 231.533 125.277C231.338 125.397 231.183 125.56 231.069 125.766C230.956 125.97 230.899 126.197 230.899 126.448C230.899 126.698 230.954 126.925 231.063 127.129C231.175 127.331 231.326 127.492 231.517 127.612C231.711 127.73 231.932 127.788 232.18 127.788C232.365 127.788 232.538 127.753 232.697 127.681C232.857 127.61 232.997 127.511 233.117 127.385C233.237 127.256 233.331 127.111 233.398 126.949C233.465 126.787 233.499 126.617 233.499 126.438C233.499 126.2 233.442 125.979 233.328 125.775C233.217 125.571 233.063 125.407 232.868 125.283C232.672 125.157 232.449 125.094 232.199 125.094Z" fill="white"/>
<path d="M18.6043 157.479V156.772L20.7908 154.506C21.0243 154.26 21.2168 154.045 21.3682 153.86C21.5218 153.672 21.6364 153.495 21.7121 153.326C21.7878 153.158 21.8257 152.979 21.8257 152.79C21.8257 152.575 21.7752 152.39 21.6743 152.235C21.5733 152.077 21.4355 151.956 21.2609 151.872C21.0863 151.786 20.8897 151.742 20.6709 151.742C20.4395 151.742 20.2376 151.79 20.0651 151.884C19.8926 151.979 19.7601 152.113 19.6676 152.285C19.575 152.458 19.5287 152.66 19.5287 152.891H18.598C18.598 152.498 18.6884 152.154 18.8693 151.859C19.0502 151.565 19.2984 151.336 19.6139 151.174C19.9294 151.01 20.2881 150.928 20.6898 150.928C21.0958 150.928 21.4534 151.009 21.7626 151.171C22.0739 151.331 22.3169 151.55 22.4914 151.828C22.666 152.103 22.7533 152.414 22.7533 152.762C22.7533 153.001 22.7081 153.236 22.6177 153.465C22.5293 153.694 22.3747 153.95 22.1538 154.232C21.933 154.512 21.6259 154.851 21.2325 155.251L19.9484 156.595V156.642H22.8574V157.479H18.6043ZM26.3029 157.586C25.8044 157.584 25.3784 157.452 25.025 157.191C24.6717 156.931 24.4014 156.551 24.2142 156.052C24.027 155.554 23.9334 154.953 23.9334 154.251C23.9334 153.55 24.027 152.952 24.2142 152.455C24.4035 151.959 24.6748 151.58 25.0282 151.32C25.3837 151.059 25.8086 150.928 26.3029 150.928C26.7972 150.928 27.221 151.06 27.5744 151.323C27.9278 151.584 28.1981 151.962 28.3853 152.459C28.5746 152.953 28.6693 153.55 28.6693 154.251C28.6693 154.955 28.5757 155.557 28.3885 156.056C28.2012 156.552 27.931 156.932 27.5776 157.195C27.2242 157.455 26.7993 157.586 26.3029 157.586ZM26.3029 156.743C26.7404 156.743 27.0822 156.53 27.3283 156.103C27.5765 155.676 27.7006 155.059 27.7006 154.251C27.7006 153.714 27.6438 153.261 27.5302 152.891C27.4188 152.519 27.2579 152.237 27.0475 152.045C26.8393 151.852 26.5911 151.755 26.3029 151.755C25.8675 151.755 25.5257 151.97 25.2775 152.399C25.0293 152.828 24.9041 153.445 24.902 154.251C24.902 154.789 24.9577 155.245 25.0692 155.617C25.1828 155.987 25.3437 156.268 25.552 156.459C25.7602 156.649 26.0105 156.743 26.3029 156.743Z" fill="white"/>
<path d="M53.8019 157.479V156.772L55.9884 154.506C56.2219 154.26 56.4143 154.045 56.5658 153.86C56.7193 153.672 56.834 153.495 56.9097 153.326C56.9854 153.158 57.0233 152.979 57.0233 152.79C57.0233 152.575 56.9728 152.39 56.8718 152.235C56.7709 152.077 56.6331 151.956 56.4585 151.872C56.2839 151.786 56.0872 151.742 55.8685 151.742C55.6371 151.742 55.4352 151.79 55.2627 151.884C55.0902 151.979 54.9577 152.113 54.8651 152.285C54.7726 152.458 54.7263 152.66 54.7263 152.891H53.7955C53.7955 152.498 53.886 152.154 54.0669 151.859C54.2478 151.565 54.496 151.336 54.8115 151.174C55.127 151.01 55.4857 150.928 55.8874 150.928C56.2934 150.928 56.651 151.009 56.9602 151.171C57.2715 151.331 57.5144 151.55 57.689 151.828C57.8636 152.103 57.9509 152.414 57.9509 152.762C57.9509 153.001 57.9057 153.236 57.8152 153.465C57.7269 153.694 57.5723 153.95 57.3514 154.232C57.1306 154.512 56.8235 154.851 56.4301 155.251L55.146 156.595V156.642H58.055V157.479H53.8019ZM61.7024 151.017V157.479H60.7243V151.995H60.6864L59.1404 153.004V152.071L60.7527 151.017H61.7024Z" fill="white"/>
<path d="M87.6058 157.479V156.772L89.7924 154.506C90.0259 154.26 90.2183 154.045 90.3698 153.86C90.5233 153.672 90.638 153.495 90.7137 153.326C90.7894 153.158 90.8273 152.979 90.8273 152.79C90.8273 152.575 90.7768 152.39 90.6758 152.235C90.5749 152.077 90.4371 151.956 90.2625 151.872C90.0879 151.786 89.8912 151.742 89.6725 151.742C89.4411 151.742 89.2392 151.79 89.0667 151.884C88.8942 151.979 88.7617 152.113 88.6691 152.285C88.5766 152.458 88.5303 152.66 88.5303 152.891H87.5995C87.5995 152.498 87.69 152.154 87.8709 151.859C88.0518 151.565 88.3 151.336 88.6155 151.174C88.931 151.01 89.2896 150.928 89.6914 150.928C90.0974 150.928 90.455 151.009 90.7642 151.171C91.0755 151.331 91.3184 151.55 91.493 151.828C91.6676 152.103 91.7549 152.414 91.7549 152.762C91.7549 153.001 91.7097 153.236 91.6192 153.465C91.5309 153.694 91.3763 153.95 91.1554 154.232C90.9345 154.512 90.6274 154.851 90.2341 155.251L88.9499 156.595V156.642H91.859V157.479H87.6058ZM93.0548 157.479V156.772L95.2413 154.506C95.4748 154.26 95.6673 154.045 95.8187 153.86C95.9723 153.672 96.0869 153.495 96.1627 153.326C96.2384 153.158 96.2762 152.979 96.2762 152.79C96.2762 152.575 96.2258 152.39 96.1248 152.235C96.0238 152.077 95.8861 151.956 95.7115 151.872C95.5369 151.786 95.3402 151.742 95.1215 151.742C94.8901 151.742 94.6881 151.79 94.5157 151.884C94.3432 151.979 94.2107 152.113 94.1181 152.285C94.0256 152.458 93.9793 152.66 93.9793 152.891H93.0485C93.0485 152.498 93.139 152.154 93.3199 151.859C93.5007 151.565 93.749 151.336 94.0645 151.174C94.38 151.01 94.7386 150.928 95.1404 150.928C95.5463 150.928 95.9039 151.009 96.2131 151.171C96.5245 151.331 96.7674 151.55 96.942 151.828C97.1166 152.103 97.2039 152.414 97.2039 152.762C97.2039 153.001 97.1586 153.236 97.0682 153.465C96.9798 153.694 96.8252 153.95 96.6044 154.232C96.3835 154.512 96.0764 154.851 95.6831 155.251L94.3989 156.595V156.642H97.308V157.479H93.0548Z" fill="white"/>
<path d="M121.896 157.479V156.772L124.082 154.506C124.316 154.26 124.508 154.045 124.66 153.86C124.813 153.672 124.928 153.495 125.004 153.326C125.079 153.158 125.117 152.979 125.117 152.79C125.117 152.575 125.067 152.39 124.966 152.235C124.865 152.077 124.727 151.956 124.552 151.872C124.378 151.786 124.181 151.742 123.962 151.742C123.731 151.742 123.529 151.79 123.357 151.884C123.184 151.979 123.052 152.113 122.959 152.285C122.866 152.458 122.82 152.66 122.82 152.891H121.889C121.889 152.498 121.98 152.154 122.161 151.859C122.342 151.565 122.59 151.336 122.905 151.174C123.221 151.01 123.58 150.928 123.981 150.928C124.387 150.928 124.745 151.009 125.054 151.171C125.365 151.331 125.608 151.55 125.783 151.828C125.957 152.103 126.045 152.414 126.045 152.762C126.045 153.001 126 153.236 125.909 153.465C125.821 153.694 125.666 153.95 125.445 154.232C125.224 154.512 124.917 154.851 124.524 155.251L123.24 156.595V156.642H126.149V157.479H121.896ZM129.594 157.567C129.161 157.567 128.774 157.492 128.433 157.343C128.095 157.193 127.826 156.986 127.629 156.721C127.433 156.454 127.328 156.145 127.313 155.794H128.304C128.316 155.985 128.381 156.151 128.496 156.292C128.614 156.431 128.768 156.538 128.957 156.614C129.146 156.69 129.357 156.728 129.588 156.728C129.843 156.728 130.068 156.683 130.263 156.595C130.461 156.507 130.616 156.384 130.727 156.226C130.839 156.066 130.894 155.882 130.894 155.674C130.894 155.457 130.839 155.267 130.727 155.103C130.618 154.937 130.457 154.806 130.244 154.711C130.034 154.617 129.779 154.569 129.481 154.569H128.935V153.774H129.481C129.721 153.774 129.931 153.731 130.112 153.645C130.295 153.559 130.438 153.439 130.541 153.285C130.644 153.13 130.695 152.948 130.695 152.739C130.695 152.54 130.65 152.366 130.56 152.219C130.471 152.07 130.345 151.953 130.181 151.869C130.019 151.784 129.828 151.742 129.607 151.742C129.397 151.742 129.2 151.781 129.017 151.859C128.836 151.935 128.689 152.044 128.575 152.187C128.462 152.328 128.401 152.498 128.392 152.695H127.449C127.459 152.346 127.562 152.039 127.758 151.774C127.956 151.509 128.217 151.302 128.541 151.152C128.864 151.003 129.224 150.928 129.62 150.928C130.034 150.928 130.392 151.009 130.692 151.171C130.995 151.331 131.229 151.545 131.393 151.812C131.559 152.079 131.641 152.371 131.639 152.689C131.641 153.051 131.54 153.358 131.336 153.61C131.134 153.863 130.865 154.032 130.528 154.118V154.169C130.957 154.234 131.29 154.404 131.525 154.68C131.763 154.955 131.881 155.297 131.879 155.705C131.881 156.061 131.782 156.379 131.582 156.661C131.384 156.943 131.114 157.165 130.771 157.327C130.428 157.487 130.036 157.567 129.594 157.567Z" fill="white"/>
<path d="M156.351 157.479V156.772L158.538 154.506C158.771 154.26 158.964 154.045 159.115 153.86C159.269 153.672 159.384 153.495 159.459 153.326C159.535 153.158 159.573 152.979 159.573 152.79C159.573 152.575 159.522 152.39 159.421 152.235C159.32 152.077 159.183 151.956 159.008 151.872C158.834 151.786 158.637 151.742 158.418 151.742C158.187 151.742 157.985 151.79 157.812 151.884C157.64 151.979 157.507 152.113 157.415 152.285C157.322 152.458 157.276 152.66 157.276 152.891H156.345C156.345 152.498 156.436 152.154 156.616 151.859C156.797 151.565 157.046 151.336 157.361 151.174C157.677 151.01 158.035 150.928 158.437 150.928C158.843 150.928 159.201 151.009 159.51 151.171C159.821 151.331 160.064 151.55 160.239 151.828C160.413 152.103 160.5 152.414 160.5 152.762C160.5 153.001 160.455 153.236 160.365 153.465C160.276 153.694 160.122 153.95 159.901 154.232C159.68 154.512 159.373 154.851 158.98 155.251L157.696 156.595V156.642H160.605V157.479H156.351ZM161.526 156.216V155.428L164.318 151.017H164.94V152.178H164.545L162.548 155.339V155.39H166.375V156.216H161.526ZM164.59 157.479V155.977L164.596 155.617V151.017H165.52V157.479H164.59Z" fill="white"/>
<path d="M190.864 157.479V156.772L193.05 154.506C193.284 154.26 193.476 154.045 193.627 153.86C193.781 153.672 193.896 153.495 193.971 153.326C194.047 153.158 194.085 152.979 194.085 152.79C194.085 152.575 194.035 152.39 193.934 152.235C193.833 152.077 193.695 151.956 193.52 151.872C193.346 151.786 193.149 151.742 192.93 151.742C192.699 151.742 192.497 151.79 192.324 151.884C192.152 151.979 192.019 152.113 191.927 152.285C191.834 152.458 191.788 152.66 191.788 152.891H190.857C190.857 152.498 190.948 152.154 191.129 151.859C191.309 151.565 191.558 151.336 191.873 151.174C192.189 151.01 192.547 150.928 192.949 150.928C193.355 150.928 193.713 151.009 194.022 151.171C194.333 151.331 194.576 151.55 194.751 151.828C194.925 152.103 195.013 152.414 195.013 152.762C195.013 153.001 194.967 153.236 194.877 153.465C194.789 153.694 194.634 153.95 194.413 154.232C194.192 154.512 193.885 154.851 193.492 155.251L192.208 156.595V156.642H195.117V157.479H190.864ZM198.445 157.567C198.05 157.567 197.694 157.491 197.379 157.34C197.066 157.186 196.815 156.976 196.628 156.709C196.441 156.442 196.341 156.137 196.328 155.794H197.275C197.298 156.071 197.421 156.3 197.644 156.478C197.867 156.657 198.134 156.747 198.445 156.747C198.694 156.747 198.913 156.69 199.105 156.576C199.298 156.46 199.45 156.302 199.559 156.1C199.671 155.898 199.726 155.667 199.726 155.409C199.726 155.146 199.67 154.911 199.556 154.705C199.442 154.499 199.286 154.337 199.086 154.219C198.888 154.101 198.661 154.041 198.404 154.039C198.209 154.039 198.012 154.073 197.814 154.14C197.617 154.208 197.457 154.296 197.335 154.405L196.442 154.273L196.805 151.017H200.357V151.853H197.616L197.411 153.661H197.448C197.575 153.539 197.742 153.437 197.95 153.355C198.16 153.273 198.385 153.232 198.625 153.232C199.019 153.232 199.369 153.325 199.676 153.512C199.985 153.7 200.228 153.955 200.405 154.279C200.584 154.601 200.672 154.971 200.67 155.39C200.672 155.808 200.577 156.182 200.386 156.51C200.197 156.838 199.934 157.097 199.597 157.286C199.263 157.473 198.879 157.567 198.445 157.567Z" fill="white"/>
<path d="M225.223 157.479V156.772L227.409 154.506C227.643 154.26 227.835 154.045 227.987 153.86C228.14 153.672 228.255 153.495 228.331 153.326C228.406 153.158 228.444 152.979 228.444 152.79C228.444 152.575 228.394 152.39 228.293 152.235C228.192 152.077 228.054 151.956 227.88 151.872C227.705 151.786 227.508 151.742 227.289 151.742C227.058 151.742 226.856 151.79 226.684 151.884C226.511 151.979 226.379 152.113 226.286 152.285C226.194 152.458 226.147 152.66 226.147 152.891H225.217C225.217 152.498 225.307 152.154 225.488 151.859C225.669 151.565 225.917 151.336 226.233 151.174C226.548 151.01 226.907 150.928 227.308 150.928C227.714 150.928 228.072 151.009 228.381 151.171C228.692 151.331 228.935 151.55 229.11 151.828C229.285 152.103 229.372 152.414 229.372 152.762C229.372 153.001 229.327 153.236 229.236 153.465C229.148 153.694 228.993 153.95 228.772 154.232C228.552 154.512 228.244 154.851 227.851 155.251L226.567 156.595V156.642H229.476V157.479H225.223ZM232.928 157.567C232.64 157.563 232.356 157.51 232.076 157.409C231.798 157.308 231.546 157.14 231.319 156.904C231.091 156.669 230.91 156.352 230.773 155.955C230.638 155.557 230.571 155.061 230.571 154.465C230.571 153.902 230.627 153.401 230.738 152.963C230.852 152.526 231.015 152.157 231.227 151.856C231.44 151.553 231.696 151.323 231.997 151.165C232.298 151.007 232.635 150.928 233.01 150.928C233.395 150.928 233.737 151.004 234.035 151.156C234.334 151.307 234.576 151.516 234.761 151.783C234.948 152.051 235.067 152.355 235.117 152.695H234.155C234.09 152.426 233.961 152.206 233.767 152.036C233.574 151.865 233.321 151.78 233.01 151.78C232.537 151.78 232.167 151.986 231.902 152.399C231.639 152.811 231.507 153.384 231.505 154.118H231.552C231.664 153.935 231.8 153.78 231.962 153.651C232.126 153.521 232.309 153.421 232.511 153.352C232.715 153.28 232.93 153.244 233.155 153.244C233.529 153.244 233.868 153.336 234.171 153.519C234.476 153.7 234.719 153.95 234.9 154.27C235.081 154.589 235.171 154.955 235.171 155.368C235.171 155.78 235.077 156.153 234.89 156.488C234.705 156.822 234.444 157.087 234.108 157.283C233.771 157.476 233.378 157.571 232.928 157.567ZM232.925 156.747C233.173 156.747 233.395 156.686 233.59 156.564C233.786 156.442 233.941 156.277 234.054 156.071C234.168 155.865 234.225 155.635 234.225 155.38C234.225 155.132 234.169 154.906 234.057 154.702C233.948 154.498 233.797 154.336 233.603 154.216C233.412 154.096 233.193 154.036 232.947 154.036C232.76 154.036 232.586 154.072 232.426 154.144C232.268 154.215 232.13 154.314 232.01 154.44C231.89 154.566 231.795 154.711 231.726 154.876C231.658 155.037 231.625 155.209 231.625 155.39C231.625 155.632 231.68 155.856 231.792 156.062C231.906 156.268 232.06 156.434 232.256 156.56C232.453 156.684 232.676 156.747 232.925 156.747Z" fill="white"/>
<path d="M18.8993 184.134V183.427L21.0858 181.161C21.3193 180.915 21.5118 180.7 21.6632 180.515C21.8168 180.327 21.9314 180.15 22.0071 179.981C22.0828 179.813 22.1207 179.634 22.1207 179.445C22.1207 179.23 22.0702 179.045 21.9693 178.89C21.8683 178.732 21.7305 178.611 21.5559 178.527C21.3814 178.441 21.1847 178.397 20.9659 178.397C20.7345 178.397 20.5326 178.445 20.3601 178.539C20.1876 178.634 20.0551 178.768 19.9626 178.94C19.87 179.113 19.8237 179.315 19.8237 179.546H18.893C18.893 179.153 18.9834 178.809 19.1643 178.514C19.3452 178.22 19.5934 177.991 19.9089 177.83C20.2245 177.665 20.5831 177.583 20.9849 177.583C21.3908 177.583 21.7484 177.664 22.0576 177.826C22.3689 177.986 22.6119 178.205 22.7865 178.483C22.961 178.758 23.0483 179.069 23.0483 179.417C23.0483 179.656 23.0031 179.891 22.9127 180.12C22.8243 180.349 22.6697 180.605 22.4488 180.887C22.228 181.167 21.9209 181.506 21.5275 181.906L20.2434 183.25V183.297H23.1525V184.134H18.8993ZM24.566 184.134L27.3867 178.555V178.508H24.1242V177.672H28.3963V178.536L25.5851 184.134H24.566Z" fill="white"/>
<path d="M53.0947 184.134V183.427L55.2812 181.161C55.5147 180.915 55.7072 180.7 55.8586 180.515C56.0122 180.327 56.1268 180.15 56.2025 179.981C56.2783 179.813 56.3161 179.634 56.3161 179.445C56.3161 179.23 56.2656 179.045 56.1647 178.89C56.0637 178.732 55.9259 178.611 55.7514 178.527C55.5768 178.441 55.3801 178.397 55.1613 178.397C54.93 178.397 54.728 178.445 54.5555 178.539C54.3831 178.634 54.2505 178.768 54.158 178.94C54.0654 179.113 54.0192 179.315 54.0192 179.546H53.0884C53.0884 179.153 53.1788 178.809 53.3597 178.514C53.5406 178.22 53.7888 177.991 54.1044 177.83C54.4199 177.665 54.7785 177.583 55.1803 177.583C55.5862 177.583 55.9438 177.664 56.253 177.826C56.5643 177.986 56.8073 178.205 56.9819 178.483C57.1565 178.758 57.2437 179.069 57.2437 179.417C57.2437 179.656 57.1985 179.891 57.1081 180.12C57.0197 180.349 56.8651 180.605 56.6443 180.887C56.4234 181.167 56.1163 181.506 55.723 181.906L54.4388 183.25V183.297H57.3479V184.134H53.0947ZM60.7271 184.222C60.2748 184.222 59.8752 184.144 59.5281 183.988C59.1831 183.833 58.9128 183.618 58.7172 183.345C58.5216 183.071 58.4248 182.76 58.4269 182.411C58.4248 182.137 58.4806 181.886 58.5942 181.657C58.7098 181.425 58.8666 181.233 59.0643 181.079C59.262 180.924 59.4829 180.825 59.7269 180.783V180.745C59.405 180.667 59.1474 180.495 58.9538 180.227C58.7603 179.96 58.6646 179.653 58.6667 179.306C58.6646 178.976 58.7519 178.681 58.9286 178.423C59.1074 178.162 59.3525 177.957 59.6638 177.807C59.9751 177.658 60.3295 177.583 60.7271 177.583C61.1204 177.583 61.4717 177.659 61.7809 177.811C62.0922 177.96 62.3372 178.165 62.516 178.426C62.6948 178.685 62.7853 178.978 62.7874 179.306C62.7853 179.653 62.6864 179.96 62.4908 180.227C62.2952 180.495 62.0407 180.667 61.7272 180.745V180.783C61.9691 180.825 62.1868 180.924 62.3804 181.079C62.576 181.233 62.7316 181.425 62.8473 181.657C62.9651 181.886 63.0251 182.137 63.0272 182.411C63.0251 182.76 62.9262 183.071 62.7306 183.345C62.535 183.618 62.2636 183.833 61.9166 183.988C61.5716 184.144 61.1751 184.222 60.7271 184.222ZM60.7271 183.424C60.9942 183.424 61.2256 183.379 61.4212 183.291C61.6168 183.201 61.7683 183.076 61.8755 182.916C61.9828 182.754 62.0375 182.564 62.0396 182.348C62.0375 182.123 61.9786 181.924 61.8629 181.751C61.7493 181.579 61.5947 181.443 61.3991 181.344C61.2035 181.246 60.9795 181.196 60.7271 181.196C60.4725 181.196 60.2464 181.246 60.0487 181.344C59.851 181.443 59.6953 181.579 59.5817 181.751C59.4681 181.924 59.4124 182.123 59.4145 182.348C59.4124 182.564 59.4639 182.754 59.5691 182.916C59.6764 183.076 59.8289 183.201 60.0266 183.291C60.2243 183.379 60.4578 183.424 60.7271 183.424ZM60.7271 180.417C60.9416 180.417 61.132 180.374 61.2981 180.287C61.4643 180.201 61.5947 180.081 61.6894 179.928C61.7861 179.774 61.8356 179.594 61.8377 179.388C61.8356 179.186 61.7872 179.01 61.6925 178.858C61.6 178.707 61.4706 178.59 61.3044 178.508C61.1383 178.424 60.9458 178.382 60.7271 178.382C60.5041 178.382 60.3085 178.424 60.1402 178.508C59.974 178.59 59.8447 178.707 59.7521 178.858C59.6596 179.01 59.6143 179.186 59.6164 179.388C59.6143 179.594 59.6606 179.774 59.7553 179.928C59.8499 180.081 59.9803 180.201 60.1465 180.287C60.3148 180.374 60.5083 180.417 60.7271 180.417Z" fill="white"/>
<path d="M87.5061 184.134V183.427L89.6926 181.161C89.9261 180.915 90.1185 180.7 90.27 180.515C90.4235 180.327 90.5382 180.15 90.6139 179.981C90.6896 179.813 90.7275 179.634 90.7275 179.445C90.7275 179.23 90.677 179.045 90.576 178.89C90.4751 178.732 90.3373 178.611 90.1627 178.527C89.9881 178.441 89.7915 178.397 89.5727 178.397C89.3413 178.397 89.1394 178.445 88.9669 178.539C88.7944 178.634 88.6619 178.768 88.5693 178.94C88.4768 179.113 88.4305 179.315 88.4305 179.546H87.4997C87.4997 179.153 87.5902 178.809 87.7711 178.514C87.952 178.22 88.2002 177.991 88.5157 177.83C88.8312 177.665 89.1899 177.583 89.5916 177.583C89.9976 177.583 90.3552 177.664 90.6644 177.826C90.9757 177.986 91.2186 178.205 91.3932 178.483C91.5678 178.758 91.6551 179.069 91.6551 179.417C91.6551 179.656 91.6099 179.891 91.5194 180.12C91.4311 180.349 91.2765 180.605 91.0556 180.887C90.8348 181.167 90.5277 181.506 90.1343 181.906L88.8502 183.25V183.297H91.7592V184.134H87.5061ZM95.1037 177.583C95.3919 177.586 95.6758 177.638 95.9556 177.741C96.2354 177.844 96.4878 178.013 96.7128 178.246C96.94 178.479 97.1209 178.795 97.2555 179.193C97.3923 179.588 97.4617 180.08 97.4638 180.669C97.4638 181.235 97.407 181.739 97.2934 182.18C97.1798 182.62 97.0168 182.991 96.8043 183.294C96.594 183.597 96.3384 183.827 96.0376 183.985C95.7368 184.143 95.3982 184.222 95.0217 184.222C94.6367 184.222 94.2949 184.146 93.9962 183.995C93.6976 183.843 93.4546 183.634 93.2674 183.367C93.0802 183.098 92.9634 182.788 92.9172 182.439H93.8795C93.9426 182.717 94.0709 182.942 94.2644 183.114C94.46 183.285 94.7125 183.37 95.0217 183.37C95.4949 183.37 95.8641 183.164 96.1291 182.752C96.3942 182.337 96.5277 181.759 96.5298 181.016H96.4794C96.37 181.197 96.2333 181.353 96.0692 181.483C95.9072 181.614 95.7253 181.715 95.5233 181.786C95.3214 181.858 95.1058 181.893 94.8765 181.893C94.5042 181.893 94.1656 181.802 93.8606 181.619C93.5556 181.436 93.3126 181.185 93.1317 180.865C92.9508 180.545 92.8604 180.18 92.8604 179.77C92.8604 179.362 92.9529 178.992 93.138 178.659C93.3252 178.327 93.5861 178.064 93.9205 177.871C94.2571 177.675 94.6515 177.579 95.1037 177.583ZM95.1069 178.404C94.8608 178.404 94.6388 178.465 94.4411 178.587C94.2455 178.707 94.0909 178.87 93.9773 179.076C93.8637 179.28 93.8069 179.507 93.8069 179.757C93.8069 180.008 93.8616 180.235 93.971 180.439C94.0825 180.641 94.2339 180.802 94.4253 180.922C94.6189 181.039 94.8397 181.098 95.0879 181.098C95.273 181.098 95.4455 181.063 95.6054 180.991C95.7652 180.919 95.9051 180.821 96.025 180.694C96.1449 180.566 96.2385 180.421 96.3058 180.259C96.3731 180.097 96.4068 179.927 96.4068 179.748C96.4068 179.51 96.35 179.289 96.2364 179.085C96.1249 178.881 95.9714 178.717 95.7758 178.593C95.5801 178.467 95.3572 178.404 95.1069 178.404Z" fill="white"/>
<path d="M124.002 184.222C123.569 184.222 123.182 184.147 122.841 183.998C122.502 183.849 122.234 183.641 122.037 183.376C121.841 183.109 121.736 182.8 121.721 182.449H122.712C122.724 182.64 122.789 182.806 122.904 182.947C123.022 183.086 123.176 183.193 123.365 183.269C123.554 183.345 123.765 183.383 123.996 183.383C124.25 183.383 124.475 183.338 124.671 183.25C124.869 183.162 125.023 183.039 125.135 182.881C125.246 182.721 125.302 182.537 125.302 182.329C125.302 182.112 125.246 181.922 125.135 181.758C125.026 181.592 124.865 181.461 124.652 181.366C124.442 181.272 124.187 181.224 123.889 181.224H123.343V180.429H123.889C124.128 180.429 124.339 180.386 124.52 180.3C124.703 180.214 124.846 180.094 124.949 179.94C125.052 179.785 125.103 179.603 125.103 179.394C125.103 179.195 125.058 179.021 124.968 178.874C124.879 178.725 124.753 178.608 124.589 178.524C124.427 178.44 124.236 178.397 124.015 178.397C123.804 178.397 123.608 178.436 123.425 178.514C123.244 178.59 123.097 178.699 122.983 178.842C122.869 178.983 122.808 179.153 122.8 179.35H121.857C121.867 179.001 121.97 178.694 122.166 178.429C122.364 178.164 122.624 177.957 122.948 177.807C123.272 177.658 123.632 177.583 124.027 177.583C124.442 177.583 124.799 177.664 125.1 177.826C125.403 177.986 125.637 178.2 125.801 178.467C125.967 178.734 126.049 179.026 126.047 179.344C126.049 179.706 125.948 180.013 125.744 180.265C125.542 180.518 125.273 180.687 124.936 180.773V180.824C125.365 180.889 125.698 181.059 125.933 181.335C126.171 181.61 126.289 181.952 126.287 182.36C126.289 182.716 126.19 183.034 125.99 183.316C125.792 183.598 125.522 183.82 125.179 183.982C124.836 184.142 124.444 184.222 124.002 184.222ZM129.729 184.241C129.23 184.239 128.804 184.107 128.451 183.846C128.098 183.586 127.827 183.206 127.64 182.707C127.453 182.209 127.359 181.608 127.359 180.906C127.359 180.205 127.453 179.607 127.64 179.111C127.829 178.614 128.101 178.235 128.454 177.975C128.81 177.714 129.235 177.583 129.729 177.583C130.223 177.583 130.647 177.715 131 177.978C131.354 178.239 131.624 178.617 131.811 179.114C132.001 179.608 132.095 180.205 132.095 180.906C132.095 181.61 132.002 182.212 131.814 182.711C131.627 183.207 131.357 183.587 131.004 183.85C130.65 184.11 130.225 184.241 129.729 184.241ZM129.729 183.398C130.166 183.398 130.508 183.185 130.754 182.758C131.002 182.331 131.127 181.714 131.127 180.906C131.127 180.369 131.07 179.916 130.956 179.546C130.845 179.174 130.684 178.892 130.473 178.7C130.265 178.507 130.017 178.41 129.729 178.41C129.293 178.41 128.952 178.625 128.703 179.054C128.455 179.483 128.33 180.1 128.328 180.906C128.328 181.444 128.384 181.9 128.495 182.272C128.609 182.642 128.77 182.923 128.978 183.114C129.186 183.304 129.436 183.398 129.729 183.398Z" fill="white"/>
<path d="M159.2 184.222C158.766 184.222 158.379 184.147 158.039 183.998C157.7 183.849 157.432 183.641 157.234 183.376C157.038 183.109 156.933 182.8 156.919 182.449H157.909C157.922 182.64 157.986 182.806 158.102 182.947C158.22 183.086 158.373 183.193 158.562 183.269C158.752 183.345 158.962 183.383 159.193 183.383C159.448 183.383 159.673 183.338 159.869 183.25C160.066 183.162 160.221 183.039 160.332 182.881C160.444 182.721 160.5 182.537 160.5 182.329C160.5 182.112 160.444 181.922 160.332 181.758C160.223 181.592 160.062 181.461 159.85 181.366C159.639 181.272 159.385 181.224 159.086 181.224H158.54V180.429H159.086C159.326 180.429 159.536 180.386 159.717 180.3C159.9 180.214 160.043 180.094 160.146 179.94C160.249 179.785 160.301 179.603 160.301 179.394C160.301 179.195 160.256 179.021 160.165 178.874C160.077 178.725 159.951 178.608 159.787 178.524C159.625 178.44 159.433 178.397 159.212 178.397C159.002 178.397 158.805 178.436 158.622 178.514C158.441 178.59 158.294 178.699 158.181 178.842C158.067 178.983 158.006 179.153 157.998 179.35H157.054C157.065 179.001 157.168 178.694 157.363 178.429C157.561 178.164 157.822 177.957 158.146 177.807C158.47 177.658 158.83 177.583 159.225 177.583C159.639 177.583 159.997 177.664 160.298 177.826C160.601 177.986 160.834 178.2 160.998 178.467C161.164 178.734 161.246 179.026 161.244 179.344C161.246 179.706 161.145 180.013 160.941 180.265C160.739 180.518 160.47 180.687 160.134 180.773V180.824C160.563 180.889 160.895 181.059 161.131 181.335C161.368 181.61 161.486 181.952 161.484 182.36C161.486 182.716 161.387 183.034 161.188 183.316C160.99 183.598 160.72 183.82 160.377 183.982C160.034 184.142 159.641 184.222 159.2 184.222ZM165.128 177.672V184.134H164.15V178.65H164.112L162.566 179.66V178.726L164.179 177.672H165.128Z" fill="white"/>
<path d="M196.695 177.672V184.134H195.717V178.65H195.679L194.133 179.66V178.726L195.745 177.672H196.695Z" fill="#595959"/>
<path d="M228.047 184.134V183.427L230.234 181.161C230.467 180.915 230.66 180.7 230.811 180.515C230.965 180.327 231.079 180.15 231.155 179.981C231.231 179.813 231.269 179.634 231.269 179.445C231.269 179.23 231.218 179.045 231.117 178.89C231.016 178.732 230.878 178.611 230.704 178.527C230.529 178.441 230.333 178.397 230.114 178.397C229.882 178.397 229.68 178.445 229.508 178.539C229.335 178.634 229.203 178.768 229.11 178.94C229.018 179.113 228.972 179.315 228.972 179.546H228.041C228.041 179.153 228.131 178.809 228.312 178.514C228.493 178.22 228.741 177.991 229.057 177.83C229.372 177.665 229.731 177.583 230.133 177.583C230.539 177.583 230.896 177.664 231.205 177.826C231.517 177.986 231.76 178.205 231.934 178.483C232.109 178.758 232.196 179.069 232.196 179.417C232.196 179.656 232.151 179.891 232.06 180.12C231.972 180.349 231.818 180.605 231.597 180.887C231.376 181.167 231.069 181.506 230.675 181.906L229.391 183.25V183.297H232.3V184.134H228.047Z" fill="#595959"/>
<path fill-rule="evenodd" clip-rule="evenodd" d="M26.6351 26.4211C29.702 26.4211 32.1882 23.9349 32.1882 20.868C32.1882 17.8011 29.702 15.3149 26.6351 15.3149C23.5682 15.3149 21.082 17.8011 21.082 20.868C21.082 23.9349 23.5682 26.4211 26.6351 26.4211ZM27.7626 18.9076C27.9252 19.0703 27.9252 19.334 27.7626 19.4966L26.3912 20.868L27.7626 22.2395C27.9252 22.4021 27.9252 22.6658 27.7626 22.8285C27.5999 22.9911 27.3362 22.9911 27.1736 22.8285L25.5077 21.1625C25.345 20.9999 25.345 20.7362 25.5077 20.5735L27.1736 18.9076C27.3362 18.745 27.5999 18.745 27.7626 18.9076Z" fill="#969696"/>
<path d="M103.848 20.2333C103.848 21.0095 103.706 21.6768 103.422 22.2352C103.138 22.7913 102.749 23.2197 102.254 23.5202C101.762 23.8183 101.202 23.9674 100.575 23.9674C99.9457 23.9674 99.3837 23.8183 98.8891 23.5202C98.3969 23.2197 98.0088 22.7902 97.7248 22.2317C97.4409 21.6732 97.2989 21.0071 97.2989 20.2333C97.2989 19.4571 97.4409 18.791 97.7248 18.2349C98.0088 17.6764 98.3969 17.2481 98.8891 16.9499C99.3837 16.6494 99.9457 16.4991 100.575 16.4991C101.202 16.4991 101.762 16.6494 102.254 16.9499C102.749 17.2481 103.138 17.6764 103.422 18.2349C103.706 18.791 103.848 19.4571 103.848 20.2333ZM102.762 20.2333C102.762 19.6417 102.666 19.1436 102.474 18.7389C102.285 18.3319 102.025 18.0243 101.693 17.816C101.364 17.6054 100.992 17.5001 100.575 17.5001C100.156 17.5001 99.7824 17.6054 99.4535 17.816C99.1245 18.0243 98.8642 18.3319 98.6726 18.7389C98.4832 19.1436 98.3886 19.6417 98.3886 20.2333C98.3886 20.8249 98.4832 21.3242 98.6726 21.7312C98.8642 22.1359 99.1245 22.4435 99.4535 22.6541C99.7824 22.8623 100.156 22.9665 100.575 22.9665C100.992 22.9665 101.364 22.8623 101.693 22.6541C102.025 22.4435 102.285 22.1359 102.474 21.7312C102.666 21.3242 102.762 20.8249 102.762 20.2333ZM107.427 23.9781C106.899 23.9781 106.445 23.8586 106.064 23.6196C105.685 23.3782 105.394 23.0457 105.19 22.6221C104.987 22.1986 104.885 21.7135 104.885 21.1668C104.885 20.6131 104.989 20.1244 105.198 19.7009C105.406 19.2749 105.699 18.9424 106.078 18.7034C106.456 18.4644 106.903 18.3449 107.416 18.3449C107.83 18.3449 108.199 18.4218 108.523 18.5756C108.848 18.7271 109.109 18.9401 109.308 19.2146C109.509 19.4891 109.629 19.8097 109.666 20.1765H108.634C108.577 19.9209 108.447 19.7009 108.243 19.5163C108.042 19.3317 107.772 19.2394 107.434 19.2394C107.138 19.2394 106.879 19.3175 106.656 19.4737C106.436 19.6275 106.265 19.8476 106.142 20.1339C106.019 20.4179 105.957 20.7539 105.957 21.142C105.957 21.5395 106.017 21.8827 106.138 22.1713C106.259 22.46 106.429 22.6837 106.649 22.8422C106.872 23.0008 107.133 23.08 107.434 23.08C107.635 23.08 107.817 23.0434 107.98 22.97C108.146 22.8943 108.284 22.7866 108.396 22.647C108.509 22.5074 108.589 22.3394 108.634 22.143H109.666C109.629 22.4955 109.514 22.8103 109.322 23.0871C109.13 23.364 108.874 23.5817 108.552 23.7403C108.232 23.8988 107.857 23.9781 107.427 23.9781ZM113.346 18.4159V19.2678H110.368V18.4159H113.346ZM111.167 17.1097H112.228V22.2672C112.228 22.4731 112.259 22.6281 112.321 22.7322C112.382 22.8339 112.461 22.9037 112.558 22.9416C112.658 22.9771 112.766 22.9948 112.881 22.9948C112.967 22.9948 113.041 22.9889 113.105 22.9771C113.169 22.9653 113.219 22.9558 113.254 22.9487L113.446 23.8254C113.384 23.8491 113.297 23.8728 113.183 23.8964C113.07 23.9225 112.928 23.9367 112.757 23.939C112.478 23.9438 112.218 23.8941 111.976 23.79C111.735 23.6858 111.54 23.5249 111.391 23.3072C111.242 23.0895 111.167 22.8162 111.167 22.4873V17.1097ZM116.758 23.9781C116.247 23.9781 115.801 23.8609 115.42 23.6267C115.039 23.3924 114.744 23.0647 114.533 22.6434C114.322 22.2222 114.217 21.73 114.217 21.1668C114.217 20.6013 114.322 20.1067 114.533 19.6831C114.744 19.2595 115.039 18.9306 115.42 18.6963C115.801 18.4621 116.247 18.3449 116.758 18.3449C117.27 18.3449 117.716 18.4621 118.097 18.6963C118.478 18.9306 118.773 19.2595 118.984 19.6831C119.195 20.1067 119.3 20.6013 119.3 21.1668C119.3 21.73 119.195 22.2222 118.984 22.6434C118.773 23.0647 118.478 23.3924 118.097 23.6267C117.716 23.8609 117.27 23.9781 116.758 23.9781ZM116.762 23.0871C117.093 23.0871 117.368 22.9996 117.586 22.8245C117.803 22.6494 117.964 22.4163 118.068 22.1252C118.175 21.8341 118.228 21.5135 118.228 21.1633C118.228 20.8154 118.175 20.496 118.068 20.2049C117.964 19.9115 117.803 19.676 117.586 19.4985C117.368 19.321 117.093 19.2323 116.762 19.2323C116.428 19.2323 116.152 19.321 115.931 19.4985C115.714 19.676 115.552 19.9115 115.445 20.2049C115.341 20.496 115.289 20.8154 115.289 21.1633C115.289 21.5135 115.341 21.8341 115.445 22.1252C115.552 22.4163 115.714 22.6494 115.931 22.8245C116.152 22.9996 116.428 23.0871 116.762 23.0871ZM120.57 23.868V16.5985H121.631V19.2998H121.695C121.757 19.1862 121.845 19.0548 121.961 18.9058C122.077 18.7567 122.238 18.6265 122.444 18.5153C122.65 18.4017 122.922 18.3449 123.26 18.3449C123.701 18.3449 124.093 18.4561 124.439 18.6786C124.784 18.901 125.055 19.2217 125.252 19.6405C125.45 20.0594 125.55 20.5634 125.55 21.1526C125.55 21.7419 125.452 22.2471 125.255 22.6683C125.059 23.0871 124.789 23.4101 124.446 23.6373C124.103 23.8621 123.711 23.9745 123.271 23.9745C122.94 23.9745 122.669 23.9189 122.458 23.8077C122.25 23.6965 122.087 23.5663 121.968 23.4172C121.85 23.2682 121.759 23.1356 121.695 23.0197H121.606V23.868H120.57ZM121.61 21.142C121.61 21.5253 121.665 21.8614 121.777 22.1501C121.888 22.4388 122.049 22.6647 122.259 22.828C122.47 22.9889 122.728 23.0694 123.033 23.0694C123.35 23.0694 123.615 22.9854 123.828 22.8174C124.041 22.647 124.202 22.4163 124.311 22.1252C124.422 21.8341 124.478 21.5064 124.478 21.142C124.478 20.7823 124.423 20.4593 124.315 20.1729C124.208 19.8866 124.047 19.6606 123.832 19.495C123.619 19.3293 123.353 19.2465 123.033 19.2465C122.726 19.2465 122.465 19.3258 122.252 19.4843C122.042 19.6429 121.882 19.8641 121.773 20.1481C121.664 20.4321 121.61 20.7634 121.61 21.142ZM129.091 23.9781C128.554 23.9781 128.092 23.8633 127.704 23.6338C127.318 23.4019 127.02 23.0765 126.809 22.6576C126.601 22.2364 126.497 21.743 126.497 21.1775C126.497 20.619 126.601 20.1268 126.809 19.7009C127.02 19.2749 127.313 18.9424 127.689 18.7034C128.068 18.4644 128.51 18.3449 129.017 18.3449C129.325 18.3449 129.623 18.3958 129.911 18.4976C130.2 18.5993 130.459 18.759 130.689 18.9767C130.918 19.1944 131.099 19.4772 131.232 19.8251C131.364 20.1706 131.431 20.5906 131.431 21.0852V21.4614H127.097V20.6663H130.391C130.391 20.3871 130.334 20.1398 130.22 19.9245C130.107 19.7068 129.947 19.5352 129.741 19.4098C129.538 19.2844 129.299 19.2217 129.024 19.2217C128.726 19.2217 128.466 19.295 128.243 19.4417C128.023 19.5861 127.853 19.7754 127.732 20.0097C127.614 20.2416 127.554 20.4936 127.554 20.7657V21.3869C127.554 21.7513 127.618 22.0613 127.746 22.3169C127.876 22.5725 128.057 22.7677 128.289 22.9026C128.521 23.0351 128.792 23.1013 129.102 23.1013C129.303 23.1013 129.487 23.0729 129.652 23.0161C129.818 22.957 129.961 22.8694 130.082 22.7535C130.202 22.6375 130.295 22.4944 130.359 22.324L131.363 22.505C131.283 22.8008 131.138 23.0599 130.93 23.2824C130.724 23.5024 130.465 23.674 130.153 23.7971C129.843 23.9177 129.489 23.9781 129.091 23.9781ZM132.608 23.868V18.4159H133.634V19.282H133.691C133.79 18.9886 133.965 18.7579 134.216 18.5898C134.469 18.4195 134.756 18.3343 135.075 18.3343C135.141 18.3343 135.219 18.3366 135.309 18.3414C135.402 18.3461 135.474 18.352 135.526 18.3591V19.3743C135.483 19.3625 135.408 19.3494 135.299 19.3352C135.19 19.3187 135.081 19.3104 134.972 19.3104C134.721 19.3104 134.498 19.3636 134.301 19.4701C134.107 19.5743 133.953 19.7198 133.84 19.9067C133.726 20.0913 133.669 20.3019 133.669 20.5386V23.868H132.608ZM139.075 23.868V23.0729L141.535 20.5244C141.798 20.2475 142.015 20.0049 142.185 19.7967C142.358 19.5861 142.487 19.3861 142.572 19.1968C142.657 19.0075 142.7 18.8064 142.7 18.5934C142.7 18.352 142.643 18.1438 142.529 17.9687C142.416 17.7912 142.261 17.6551 142.064 17.5605C141.868 17.4634 141.647 17.4149 141.4 17.4149C141.14 17.4149 140.913 17.4682 140.719 17.5747C140.525 17.6812 140.376 17.8314 140.272 18.0255C140.168 18.2195 140.116 18.4467 140.116 18.707H139.068C139.068 18.2645 139.17 17.8776 139.374 17.5463C139.577 17.215 139.856 16.9582 140.211 16.776C140.566 16.5914 140.97 16.4991 141.422 16.4991C141.878 16.4991 142.281 16.5903 142.629 16.7725C142.979 16.9523 143.252 17.1984 143.449 17.5108C143.645 17.8208 143.743 18.171 143.743 18.5614C143.743 18.8312 143.692 19.0951 143.591 19.353C143.491 19.6109 143.317 19.8984 143.069 20.2155C142.82 20.5303 142.475 20.9124 142.032 21.362L140.588 22.8742V22.9274H143.86V23.868H139.075ZM147.736 23.9887C147.176 23.9864 146.696 23.8385 146.299 23.545C145.901 23.2516 145.597 22.8245 145.387 22.2636C145.176 21.7028 145.071 21.0272 145.071 20.2368C145.071 19.4488 145.176 18.7756 145.387 18.2171C145.6 17.6587 145.905 17.2327 146.302 16.9393C146.702 16.6459 147.18 16.4991 147.736 16.4991C148.293 16.4991 148.769 16.647 149.167 16.9428C149.564 17.2363 149.869 17.6622 150.079 18.2207C150.292 18.7768 150.399 19.4488 150.399 20.2368C150.399 21.0296 150.293 21.7064 150.083 22.2672C149.872 22.8257 149.568 23.2528 149.17 23.5486C148.773 23.842 148.295 23.9887 147.736 23.9887ZM147.736 23.041C148.229 23.041 148.613 22.8008 148.89 22.3204C149.169 21.8401 149.309 21.1455 149.309 20.2368C149.309 19.6334 149.245 19.1235 149.117 18.707C148.992 18.2881 148.811 17.971 148.574 17.7557C148.34 17.538 148.061 17.4291 147.736 17.4291C147.247 17.4291 146.862 17.6705 146.583 18.1532C146.304 18.636 146.163 19.3305 146.16 20.2368C146.16 20.8426 146.223 21.355 146.349 21.7738C146.476 22.1903 146.657 22.5062 146.892 22.7215C147.126 22.9345 147.407 23.041 147.736 23.041ZM151.658 23.868V23.0729L154.118 20.5244C154.38 20.2475 154.597 20.0049 154.767 19.7967C154.94 19.5861 155.069 19.3861 155.154 19.1968C155.239 19.0075 155.282 18.8064 155.282 18.5934C155.282 18.352 155.225 18.1438 155.112 17.9687C154.998 17.7912 154.843 17.6551 154.647 17.5605C154.45 17.4634 154.229 17.4149 153.983 17.4149C153.722 17.4149 153.495 17.4682 153.301 17.5747C153.107 17.6812 152.958 17.8314 152.854 18.0255C152.75 18.2195 152.698 18.4467 152.698 18.707H151.651C151.651 18.2645 151.752 17.8776 151.956 17.5463C152.159 17.215 152.439 16.9582 152.794 16.776C153.149 16.5914 153.552 16.4991 154.004 16.4991C154.461 16.4991 154.863 16.5903 155.211 16.7725C155.561 16.9523 155.834 17.1984 156.031 17.5108C156.227 17.8208 156.325 18.171 156.325 18.5614C156.325 18.8312 156.275 19.0951 156.173 19.353C156.073 19.6109 155.9 19.8984 155.651 20.2155C155.403 20.5303 155.057 20.9124 154.615 21.362L153.17 22.8742V22.9274H156.443V23.868H151.658ZM157.479 22.4482V21.5608L160.62 16.5985H161.32V17.9048H160.876L158.629 21.4614V21.5182H162.935V22.4482H157.479ZM160.926 23.868V22.1784L160.933 21.7738V16.5985H161.973V23.868H160.926Z" fill="white"/>
<g clip-path="url(#clip0_48_527)">
<path fill-rule="evenodd" clip-rule="evenodd" d="M230.609 23.9518C228.906 23.9518 227.525 22.5712 227.525 20.8681C227.525 19.165 228.906 17.7844 230.609 17.7844C232.312 17.7844 233.692 19.165 233.692 20.8681C233.692 22.5712 232.312 23.9518 230.609 23.9518ZM229.983 19.7795C229.892 19.8698 229.892 20.0162 229.983 20.1065L230.744 20.8681L229.983 21.6297C229.892 21.72 229.892 21.8664 229.983 21.9568C230.073 22.0471 230.219 22.0471 230.31 21.9568L231.235 21.0316C231.325 20.9413 231.325 20.7949 231.235 20.7046L230.31 19.7795C230.219 19.6891 230.073 19.6891 229.983 19.7795Z" fill="#969696"/>
</g>
<g filter="url(#filter1_d_48_527)">
<circle cx="58.2819" cy="127.765" r="11.9392" fill="#F54E29"/>
</g>
<path d="M56.1552 124.362V130.824H54.789V125.659H54.7512L53.2714 126.586V125.375L54.8711 124.362H56.1552ZM57.5932 129.688V128.612L60.2909 124.362H61.2185V125.851H60.6695L58.9688 128.543V128.593H62.8024V129.688H57.5932ZM60.6947 130.824V129.36L60.72 128.883V124.362H62.001V130.824H60.6947Z" fill="white"/>
<defs>
<filter id="filter0_b_48_527" x="-110.81" y="-110.185" width="475.9" height="435.363" filterUnits="userSpaceOnUse" color-interpolation-filters="sRGB">
<feFlood flood-opacity="0" result="BackgroundImageFix"/>
<feGaussianBlur in="BackgroundImageFix" stdDeviation="55.531"/>
<feComposite in2="SourceAlpha" operator="in" result="effect1_backgroundBlur_48_527"/>
<feBlend mode="normal" in="SourceGraphic" in2="effect1_backgroundBlur_48_527" result="shape"/>
</filter>
<filter id="filter1_d_48_527" x="35.2366" y="104.72" width="46.0903" height="46.0908" filterUnits="userSpaceOnUse" color-interpolation-filters="sRGB">
<feFlood flood-opacity="0" result="BackgroundImageFix"/>
<feColorMatrix in="SourceAlpha" type="matrix" values="0 0 0 0 0 0 0 0 0 0 0 0 0 0 0 0 0 0 127 0" result="hardAlpha"/>
<feOffset/>
<feGaussianBlur stdDeviation="5.5531"/>
<feComposite in2="hardAlpha" operator="out"/>
<feColorMatrix type="matrix" values="0 0 0 0 0.960784 0 0 0 0 0.305882 0 0 0 0 0.160784 0 0 0 0.5 0"/>
<feBlend mode="normal" in2="BackgroundImageFix" result="effect1_dropShadow_48_527"/>
<feBlend mode="normal" in="SourceGraphic" in2="effect1_dropShadow_48_527" result="shape"/>
</filter>
<linearGradient id="paint0_linear_48_527" x1="291.512" y1="279.087" x2="-114.799" y2="98.4481" gradientUnits="userSpaceOnUse">
<stop stop-color="#121212"/>
<stop offset="1" stop-color="#3B3B3B"/>
</linearGradient>
<clipPath id="clip0_48_527">
<rect width="7.40085" height="7.40085" fill="white" transform="matrix(-1 0 0 1 234.31 17.1677)"/>
</clipPath>
</defs>
</svg>
