<svg width="255" height="67" viewBox="0 0 255 67" fill="none" xmlns="http://www.w3.org/2000/svg">
<g filter="url(#filter0_b_48_518)">
<rect x="0.251953" y="0.354614" width="253.777" height="66.6372" rx="13.8827" fill="black"/>
<rect x="0.529608" y="0.632269" width="253.221" height="66.0818" rx="13.6051" stroke="url(#paint0_linear_48_518)" stroke-width="0.55531"/>
</g>
<rect x="187.946" y="22.567" width="47.7566" height="17.7699" rx="8.88496" fill="#3EB12C" fill-opacity="0.1"/>
<path fill-rule="evenodd" clip-rule="evenodd" d="M197.055 30.2627C197.146 30.1825 197.28 30.1825 197.37 30.2627L199.627 32.2618C199.729 32.3516 199.74 32.5094 199.653 32.6141C199.567 32.7189 199.414 32.7311 199.312 32.6412L197.213 30.7815L195.113 32.6412C195.012 32.7311 194.859 32.7189 194.772 32.6141C194.685 32.5094 194.697 32.3516 194.798 32.2618L197.055 30.2627Z" fill="#3CC148"/>
<path d="M205.054 34.452V33.7453L207.241 31.4799C207.474 31.2338 207.667 31.0182 207.818 30.833C207.972 30.6458 208.086 30.4681 208.162 30.2998C208.238 30.1315 208.276 29.9528 208.276 29.7634C208.276 29.5489 208.225 29.3638 208.124 29.2081C208.023 29.0504 207.885 28.9294 207.711 28.8453C207.536 28.759 207.34 28.7159 207.121 28.7159C206.889 28.7159 206.688 28.7633 206.515 28.8579C206.343 28.9526 206.21 29.0861 206.117 29.2586C206.025 29.4311 205.979 29.633 205.979 29.8644H205.048C205.048 29.4711 205.138 29.1272 205.319 28.8327C205.5 28.5382 205.748 28.31 206.064 28.148C206.379 27.9839 206.738 27.9019 207.14 27.9019C207.546 27.9019 207.903 27.9829 208.213 28.1448C208.524 28.3047 208.767 28.5235 208.941 28.8011C209.116 29.0767 209.203 29.388 209.203 29.735C209.203 29.9748 209.158 30.2094 209.068 30.4387C208.979 30.6679 208.825 30.9235 208.604 31.2054C208.383 31.4851 208.076 31.8248 207.682 32.2245L206.398 33.5686V33.6159H209.307V34.452H205.054ZM212.753 34.5404C212.319 34.5404 211.932 34.4657 211.592 34.3164C211.253 34.167 210.985 33.9598 210.787 33.6948C210.592 33.4276 210.486 33.1184 210.472 32.7672H211.462C211.475 32.9586 211.539 33.1248 211.655 33.2657C211.773 33.4045 211.926 33.5118 212.115 33.5875C212.305 33.6632 212.515 33.7011 212.746 33.7011C213.001 33.7011 213.226 33.6569 213.422 33.5686C213.619 33.4802 213.774 33.3572 213.886 33.1994C213.997 33.0396 214.053 32.8555 214.053 32.6473C214.053 32.4306 213.997 32.2403 213.886 32.0762C213.776 31.91 213.615 31.7796 213.403 31.6849C213.192 31.5903 212.938 31.543 212.639 31.543H212.093V30.7479H212.639C212.879 30.7479 213.089 30.7047 213.27 30.6185C213.453 30.5323 213.596 30.4124 213.699 30.2588C213.802 30.1032 213.854 29.9212 213.854 29.713C213.854 29.5131 213.809 29.3396 213.718 29.1924C213.63 29.043 213.504 28.9263 213.34 28.8421C213.178 28.758 212.986 28.7159 212.765 28.7159C212.555 28.7159 212.358 28.7548 212.175 28.8327C211.995 28.9084 211.847 29.0178 211.734 29.1608C211.62 29.3017 211.559 29.4711 211.551 29.6688H210.607C210.618 29.3196 210.721 29.0125 210.916 28.7475C211.114 28.4824 211.375 28.2753 211.699 28.1259C212.023 27.9766 212.383 27.9019 212.778 27.9019C213.192 27.9019 213.55 27.9829 213.851 28.1448C214.154 28.3047 214.387 28.5182 214.551 28.7853C214.717 29.0525 214.799 29.3449 214.797 29.6625C214.799 30.0243 214.698 30.3314 214.494 30.5838C214.293 30.8362 214.023 31.0055 213.687 31.0918V31.1423C214.116 31.2075 214.448 31.3778 214.684 31.6534C214.921 31.9289 215.039 32.2708 215.037 32.6788C215.039 33.0343 214.94 33.353 214.741 33.6348C214.543 33.9167 214.273 34.1386 213.93 34.3006C213.587 34.4604 213.195 34.5404 212.753 34.5404ZM216.673 34.512C216.501 34.512 216.352 34.451 216.228 34.329C216.104 34.2049 216.042 34.0555 216.042 33.8809C216.042 33.7085 216.104 33.5612 216.228 33.4392C216.352 33.3151 216.501 33.2531 216.673 33.2531C216.846 33.2531 216.994 33.3151 217.118 33.4392C217.242 33.5612 217.304 33.7085 217.304 33.8809C217.304 33.9966 217.275 34.1029 217.216 34.1996C217.159 34.2943 217.083 34.37 216.989 34.4268C216.894 34.4836 216.789 34.512 216.673 34.512ZM220.584 34.5404C220.188 34.5404 219.833 34.4646 219.517 34.3132C219.204 34.1596 218.954 33.9493 218.767 33.6822C218.579 33.415 218.479 33.11 218.467 32.7672H219.413C219.436 33.0448 219.56 33.273 219.783 33.4518C220.005 33.6306 220.273 33.72 220.584 33.72C220.832 33.72 221.052 33.6632 221.243 33.5496C221.437 33.434 221.588 33.2751 221.698 33.0732C221.809 32.8713 221.865 32.641 221.865 32.3822C221.865 32.1193 221.808 31.8848 221.695 31.6786C221.581 31.4725 221.424 31.3105 221.224 31.1927C221.027 31.0749 220.8 31.015 220.543 31.0129C220.347 31.0129 220.151 31.0465 219.953 31.1139C219.755 31.1812 219.595 31.2695 219.473 31.3789L218.58 31.2464L218.943 27.9902H222.496V28.8264H219.754L219.549 30.6343H219.587C219.713 30.5123 219.88 30.4103 220.089 30.3282C220.299 30.2462 220.524 30.2052 220.764 30.2052C221.157 30.2052 221.507 30.2988 221.814 30.486C222.124 30.6732 222.367 30.9288 222.543 31.2527C222.722 31.5745 222.81 31.9447 222.808 32.3633C222.81 32.7819 222.716 33.1553 222.524 33.4834C222.335 33.8115 222.072 34.0703 221.736 34.2596C221.401 34.4468 221.017 34.5404 220.584 34.5404ZM227.334 33.2404V32.8997C227.334 32.6557 227.384 32.4327 227.485 32.2308C227.588 32.0268 227.737 31.8637 227.933 31.7417C228.131 31.6176 228.37 31.5556 228.649 31.5556C228.935 31.5556 229.175 31.6166 229.369 31.7386C229.562 31.8606 229.708 32.0236 229.807 32.2276C229.908 32.4317 229.959 32.6557 229.959 32.8997V33.2404C229.959 33.4844 229.908 33.7085 229.807 33.9125C229.706 34.1144 229.558 34.2774 229.362 34.4015C229.169 34.5235 228.931 34.5845 228.649 34.5845C228.365 34.5845 228.126 34.5235 227.93 34.4015C227.734 34.2774 227.586 34.1144 227.485 33.9125C227.384 33.7085 227.334 33.4844 227.334 33.2404ZM228.069 32.8997V33.2404C228.069 33.4213 228.112 33.5854 228.198 33.7326C228.284 33.8799 228.435 33.9535 228.649 33.9535C228.862 33.9535 229.01 33.8799 229.094 33.7326C229.178 33.5854 229.22 33.4213 229.22 33.2404V32.8997C229.22 32.7188 229.179 32.5547 229.097 32.4075C229.017 32.2602 228.868 32.1866 228.649 32.1866C228.439 32.1866 228.29 32.2602 228.201 32.4075C228.113 32.5547 228.069 32.7188 228.069 32.8997ZM224.084 29.5426V29.2018C224.084 28.9578 224.134 28.7338 224.235 28.5298C224.338 28.3257 224.488 28.1627 224.683 28.0407C224.881 27.9187 225.12 27.8577 225.4 27.8577C225.686 27.8577 225.925 27.9187 226.119 28.0407C226.312 28.1627 226.459 28.3257 226.557 28.5298C226.656 28.7338 226.706 28.9578 226.706 29.2018V29.5426C226.706 29.7866 226.655 30.0106 226.554 30.2146C226.455 30.4166 226.308 30.5796 226.113 30.7037C225.919 30.8257 225.681 30.8867 225.4 30.8867C225.113 30.8867 224.873 30.8257 224.677 30.7037C224.483 30.5796 224.336 30.4166 224.235 30.2146C224.134 30.0106 224.084 29.7866 224.084 29.5426ZM224.822 29.2018V29.5426C224.822 29.7235 224.864 29.8875 224.948 30.0348C225.035 30.182 225.185 30.2557 225.4 30.2557C225.61 30.2557 225.757 30.182 225.841 30.0348C225.927 29.8875 225.971 29.7235 225.971 29.5426V29.2018C225.971 29.0209 225.93 28.8569 225.848 28.7096C225.766 28.5624 225.616 28.4888 225.4 28.4888C225.189 28.4888 225.04 28.5624 224.951 28.7096C224.865 28.8569 224.822 29.0209 224.822 29.2018ZM224.384 34.452L228.826 27.9902H229.58L225.138 34.452H224.384Z" fill="#3CC148"/>
<path d="M22.2244 32.5188V16.3643H23.2593V32.5188H22.2244ZM25.2092 21.5325C25.1503 20.9814 24.9021 20.5523 24.4646 20.2452C24.0313 19.9381 23.4676 19.7845 22.7734 19.7845C22.2854 19.7845 21.8669 19.8581 21.5177 20.0054C21.1685 20.1526 20.9014 20.3524 20.7163 20.6048C20.5312 20.8573 20.4365 21.1454 20.4323 21.4694C20.4323 21.7386 20.4933 21.9721 20.6153 22.1698C20.7415 22.3675 20.9119 22.5358 21.1264 22.6746C21.341 22.8093 21.5787 22.9228 21.8395 23.0154C22.1003 23.1079 22.3633 23.1858 22.6283 23.2489L23.8399 23.5518C24.3279 23.6654 24.797 23.8189 25.2471 24.0124C25.7014 24.2059 26.1074 24.4499 26.465 24.7444C26.8268 25.0389 27.1128 25.3944 27.3232 25.8109C27.5335 26.2274 27.6387 26.7154 27.6387 27.2749C27.6387 28.0321 27.4452 28.6989 27.0582 29.2753C26.6711 29.8474 26.1116 30.2954 25.3796 30.6194C24.6518 30.9391 23.7705 31.0989 22.7356 31.0989C21.7301 31.0989 20.8572 30.9433 20.1168 30.632C19.3806 30.3207 18.8042 29.8663 18.3878 29.2689C17.9755 28.6716 17.7525 27.9438 17.7189 27.0856H20.0221C20.0558 27.5357 20.1946 27.9101 20.4386 28.2088C20.6826 28.5075 21.0002 28.7305 21.3915 28.8777C21.7869 29.0249 22.2286 29.0986 22.7166 29.0986C23.2257 29.0986 23.6716 29.0228 24.0544 28.8714C24.4415 28.7157 24.7444 28.5012 24.9631 28.2277C25.1819 27.9501 25.2934 27.6262 25.2976 27.2559C25.2934 26.9194 25.1945 26.6417 25.001 26.423C24.8075 26.2 24.5361 26.0149 24.187 25.8677C23.842 25.7162 23.4381 25.5816 22.9754 25.4638L21.5051 25.0852C20.4407 24.8117 19.5993 24.3974 18.9809 23.8421C18.3667 23.2825 18.0596 22.54 18.0596 21.6145C18.0596 20.8531 18.2658 20.1863 18.678 19.6141C19.0945 19.042 19.6603 18.5982 20.3755 18.2826C21.0907 17.9629 21.9005 17.8031 22.805 17.8031C23.7221 17.8031 24.5256 17.9629 25.2155 18.2826C25.9097 18.5982 26.4545 19.0378 26.8499 19.6015C27.2454 20.161 27.4494 20.8047 27.462 21.5325H25.2092ZM30.0729 30.9033L35.5692 20.0243V19.936H29.1895V17.9797H37.9924V19.9801L32.5024 30.9033H30.0729ZM40.515 29.1364L40.4329 29.8306C40.374 30.3606 40.2688 30.8991 40.1174 31.446C39.9702 31.9971 39.8145 32.504 39.6504 32.9668C39.4864 33.4296 39.3538 33.7935 39.2529 34.0585H37.7132C37.7721 33.8019 37.852 33.4527 37.953 33.011C38.0581 32.5692 38.1591 32.0728 38.2558 31.5217C38.3526 30.9706 38.4178 30.4111 38.4515 29.8432L38.4956 29.1364H40.515ZM43.0486 30.9033V29.2121L47.5352 24.8138C47.9643 24.3805 48.3219 23.9956 48.608 23.6591C48.894 23.3225 49.1086 22.9965 49.2516 22.6809C49.3946 22.3654 49.4662 22.0289 49.4662 21.6713C49.4662 21.2632 49.3736 20.9141 49.1885 20.6238C49.0034 20.3293 48.7489 20.1021 48.425 19.9423C48.101 19.7824 47.7329 19.7025 47.3207 19.7025C46.8958 19.7025 46.5234 19.7908 46.2037 19.9675C45.884 20.14 45.6358 20.3861 45.4591 20.7058C45.2866 21.0255 45.2004 21.4063 45.2004 21.848H42.9728C42.9728 21.0276 43.16 20.3146 43.5344 19.7088C43.9089 19.103 44.4242 18.6339 45.0805 18.3016C45.741 17.9692 46.4982 17.8031 47.3522 17.8031C48.2188 17.8031 48.9803 17.965 49.6365 18.289C50.2928 18.6129 50.8019 19.0567 51.1636 19.6204C51.5296 20.1842 51.7126 20.8278 51.7126 21.5514C51.7126 22.0352 51.6201 22.5106 51.435 22.9775C51.2499 23.4445 50.9239 23.9619 50.4569 24.5299C49.9941 25.0978 49.3442 25.7856 48.507 26.5934L46.2794 28.8588V28.9471H51.9083V30.9033H43.0486ZM53.5742 28.5054V26.6438L59.0579 17.9797H60.6102V20.6301H59.6637L55.9721 26.4798V26.5807H63.6266V28.5054H53.5742ZM59.7394 30.9033V27.9375L59.7646 27.1045V17.9797H61.9733V30.9033H59.7394ZM70.1294 17.8031C70.7478 17.8073 71.3494 17.9166 71.9341 18.1312C72.5231 18.3415 73.0532 18.6865 73.5243 19.1661C73.9955 19.6415 74.3699 20.2788 74.6476 21.0781C74.9252 21.8774 75.064 22.8661 75.064 24.044C75.0683 25.1546 74.9505 26.1474 74.7107 27.0225C74.4751 27.8933 74.1364 28.6295 73.6947 29.2311C73.253 29.8327 72.7208 30.2912 72.0982 30.6067C71.4756 30.9223 70.7751 31.08 69.9968 31.08C69.1807 31.08 68.4571 30.9201 67.8261 30.6004C67.1993 30.2807 66.6923 29.8432 66.3053 29.2879C65.9183 28.7326 65.6806 28.0973 65.5922 27.3822H67.8955C68.0133 27.8954 68.2531 28.3035 68.6149 28.6064C68.9809 28.905 69.4415 29.0544 69.9968 29.0544C70.8929 29.0544 71.5828 28.6653 72.0666 27.887C72.5504 27.1087 72.7923 26.0275 72.7923 24.6435H72.704C72.4978 25.0137 72.2307 25.3334 71.9026 25.6026C71.5744 25.8677 71.2021 26.0717 70.7856 26.2147C70.3734 26.3578 69.9358 26.4293 69.4731 26.4293C68.7158 26.4293 68.0343 26.2484 67.4285 25.8866C66.827 25.5248 66.3495 25.0284 65.9961 24.3974C65.6469 23.7663 65.4702 23.0448 65.466 22.2329C65.466 21.3915 65.6595 20.6364 66.0466 19.9675C66.4378 19.2944 66.9826 18.7643 67.681 18.3773C68.3793 17.9861 69.1954 17.7946 70.1294 17.8031ZM70.1357 19.6962C69.6813 19.6962 69.2712 19.8076 68.9052 20.0306C68.5434 20.2494 68.2573 20.5481 68.047 20.9267C67.8408 21.3011 67.7377 21.7197 67.7377 22.1824C67.742 22.641 67.845 23.0575 68.047 23.4319C68.2531 23.8063 68.5328 24.1029 68.8862 24.3216C69.2438 24.5404 69.6519 24.6498 70.1104 24.6498C70.4512 24.6498 70.7688 24.5846 71.0633 24.4542C71.3578 24.3237 71.6144 24.1428 71.8332 23.9115C72.0561 23.6759 72.2286 23.4087 72.3506 23.1101C72.4768 22.8114 72.5378 22.4958 72.5336 22.1635C72.5336 21.7218 72.4284 21.3137 72.2181 20.9393C72.0119 20.5649 71.728 20.2641 71.3662 20.0369C71.0086 19.8097 70.5984 19.6962 70.1357 19.6962ZM78.0946 31.0421C77.7118 31.0421 77.3836 30.9075 77.1102 30.6383C76.8367 30.369 76.7021 30.0409 76.7063 29.6539C76.7021 29.2753 76.8367 28.9513 77.1102 28.6821C77.3836 28.4128 77.7118 28.2782 78.0946 28.2782C78.4648 28.2782 78.7866 28.4128 79.0601 28.6821C79.3377 28.9513 79.4787 29.2753 79.4829 29.6539C79.4787 29.9105 79.4113 30.144 79.2809 30.3543C79.1547 30.5647 78.9864 30.7329 78.7761 30.8591C78.57 30.9811 78.3428 31.0421 78.0946 31.0421ZM86.0204 31.08C85.1117 31.08 84.304 30.9244 83.5972 30.613C82.8947 30.3017 82.3393 29.8684 81.9313 29.3131C81.5232 28.7578 81.3066 28.1163 81.2813 27.3885H83.654C83.675 27.7376 83.7907 28.0426 84.0011 28.3035C84.2114 28.5601 84.4912 28.7599 84.8403 28.9029C85.1895 29.046 85.5808 29.1175 86.0141 29.1175C86.4768 29.1175 86.887 29.0376 87.2446 28.8777C87.6022 28.7136 87.8819 28.4865 88.0839 28.1962C88.2858 27.9059 88.3846 27.5715 88.3804 27.1928C88.3846 26.8016 88.2837 26.4566 88.0775 26.1579C87.8714 25.8593 87.5727 25.6258 87.1815 25.4575C86.7944 25.2892 86.3275 25.2051 85.7806 25.2051H84.6384V23.4003H85.7806C86.2307 23.4003 86.6241 23.3225 86.9606 23.1668C87.3014 23.0112 87.5685 22.7924 87.762 22.5106C87.9555 22.2245 88.0502 21.8943 88.046 21.5198C88.0502 21.1538 87.9682 20.8362 87.7999 20.567C87.6358 20.2935 87.4023 20.0811 87.0994 19.9296C86.8008 19.7782 86.4495 19.7025 86.0456 19.7025C85.6502 19.7025 85.2842 19.774 84.9476 19.917C84.6111 20.0601 84.3397 20.2641 84.1336 20.5291C83.9274 20.79 83.8181 21.1013 83.8054 21.4631H81.5527C81.5695 20.7395 81.7777 20.1042 82.1774 19.5573C82.5812 19.0062 83.1197 18.5771 83.7928 18.27C84.4659 17.9587 85.2211 17.8031 86.0582 17.8031C86.9206 17.8031 87.6695 17.965 88.3047 18.289C88.9442 18.6087 89.4385 19.0399 89.7876 19.5826C90.1368 20.1253 90.3114 20.7247 90.3114 21.381C90.3156 22.1088 90.1011 22.7188 89.6677 23.211C89.2386 23.7032 88.6749 24.0251 87.9766 24.1765V24.2775C88.8853 24.4037 89.5815 24.7402 90.0653 25.2871C90.5533 25.8298 90.7952 26.505 90.791 27.3127C90.791 28.0363 90.5849 28.6842 90.1726 29.2563C89.7645 29.8243 89.2008 30.2702 88.4814 30.5941C87.7662 30.918 86.9459 31.08 86.0204 31.08ZM98.2135 17.9797V30.9033H95.8724V20.2578H95.7967L92.774 22.1887V20.0432L95.986 17.9797H98.2135Z" fill="white"/>
<path d="M21.6912 43.4995L19.9338 48.3458H18.9241L17.1635 43.4995H18.1764L19.4037 47.2289H19.4542L20.6784 43.4995H21.6912ZM26.2094 44.6827L25.3544 44.8341C25.3186 44.7247 25.2618 44.6206 25.184 44.5218C25.1083 44.4229 25.0052 44.3419 24.8748 44.2788C24.7444 44.2157 24.5813 44.1842 24.3857 44.1842C24.1186 44.1842 23.8956 44.2441 23.7168 44.364C23.538 44.4818 23.4486 44.6343 23.4486 44.8215C23.4486 44.9835 23.5086 45.1139 23.6285 45.2127C23.7484 45.3116 23.9419 45.3926 24.209 45.4557L24.9789 45.6324C25.4248 45.7354 25.7572 45.8943 25.9759 46.1088C26.1947 46.3234 26.3041 46.6021 26.3041 46.9449C26.3041 47.2352 26.2199 47.4939 26.0517 47.7211C25.8855 47.9462 25.6531 48.1229 25.3544 48.2512C25.0578 48.3795 24.7139 48.4436 24.3226 48.4436C23.7799 48.4436 23.3372 48.3279 22.9943 48.0966C22.6514 47.8631 22.4411 47.5318 22.3633 47.1027L23.2751 46.9639C23.3319 47.2016 23.4486 47.3814 23.6253 47.5034C23.802 47.6233 24.0323 47.6832 24.3163 47.6832C24.6255 47.6832 24.8727 47.6191 25.0578 47.4908C25.2429 47.3604 25.3354 47.2016 25.3354 47.0143C25.3354 46.8629 25.2786 46.7356 25.1651 46.6326C25.0536 46.5295 24.8821 46.4517 24.6508 46.3991L23.8304 46.2192C23.3782 46.1162 23.0437 45.9521 22.8271 45.727C22.6125 45.502 22.5052 45.2169 22.5052 44.872C22.5052 44.5859 22.5852 44.3356 22.745 44.1211C22.9049 43.9065 23.1258 43.7393 23.4076 43.6194C23.6895 43.4974 24.0124 43.4364 24.3763 43.4364C24.9 43.4364 25.3123 43.55 25.6131 43.7771C25.9139 44.0022 26.1127 44.3041 26.2094 44.6827ZM27.9629 48.4058C27.7904 48.4058 27.6421 48.3448 27.518 48.2228C27.3939 48.0987 27.3319 47.9493 27.3319 47.7747C27.3319 47.6023 27.3939 47.455 27.518 47.333C27.6421 47.2089 27.7904 47.1469 27.9629 47.1469C28.1354 47.1469 28.2837 47.2089 28.4078 47.333C28.5319 47.455 28.5939 47.6023 28.5939 47.7747C28.5939 47.8904 28.5645 47.9967 28.5056 48.0934C28.4488 48.1881 28.3731 48.2638 28.2784 48.3206C28.1838 48.3774 28.0786 48.4058 27.9629 48.4058ZM34.3419 48.4342C33.9086 48.4342 33.5215 48.3595 33.1808 48.2102C32.8421 48.0608 32.5739 47.8536 32.3762 47.5886C32.1806 47.3214 32.0754 47.0122 32.0607 46.661H33.0514C33.064 46.8524 33.1282 47.0186 33.2439 47.1595C33.3617 47.2983 33.5152 47.4056 33.7045 47.4813C33.8938 47.557 34.1042 47.5949 34.3356 47.5949C34.5901 47.5949 34.8151 47.5507 35.0108 47.4624C35.2085 47.374 35.3631 47.251 35.4746 47.0932C35.5861 46.9334 35.6418 46.7493 35.6418 46.5411C35.6418 46.3244 35.5861 46.1341 35.4746 45.97C35.3652 45.8038 35.2043 45.6734 34.9918 45.5787C34.7815 45.4841 34.527 45.4368 34.2283 45.4368H33.6824V44.6417H34.2283C34.4681 44.6417 34.6784 44.5985 34.8593 44.5123C35.0423 44.4261 35.1853 44.3062 35.2884 44.1526C35.3915 43.997 35.443 43.815 35.443 43.6068C35.443 43.4069 35.3978 43.2334 35.3073 43.0862C35.219 42.9368 35.0928 42.8201 34.9287 42.7359C34.7668 42.6518 34.5753 42.6097 34.3545 42.6097C34.1441 42.6097 33.9475 42.6486 33.7645 42.7265C33.5836 42.8022 33.4363 42.9116 33.3227 43.0546C33.2092 43.1955 33.1482 43.3649 33.1397 43.5626H32.1963C32.2069 43.2134 32.3099 42.9063 32.5056 42.6413C32.7033 42.3762 32.9641 42.1691 33.288 42.0197C33.612 41.8704 33.9717 41.7957 34.3671 41.7957C34.7815 41.7957 35.1391 41.8767 35.4399 42.0386C35.7428 42.1985 35.9762 42.412 36.1403 42.6791C36.3065 42.9463 36.3885 43.2387 36.3864 43.5563C36.3885 43.9181 36.2876 44.2252 36.0835 44.4776C35.8816 44.73 35.6123 44.8993 35.2758 44.9856V45.0361C35.7049 45.1013 36.0372 45.2716 36.2728 45.5472C36.5105 45.8227 36.6283 46.1646 36.6262 46.5726C36.6283 46.9281 36.5294 47.2468 36.3296 47.5286C36.1319 47.8105 35.8616 48.0324 35.5187 48.1944C35.1759 48.3542 34.7836 48.4342 34.3419 48.4342ZM40.1829 48.3458V43.4995H41.0884V44.2883H41.1484C41.2493 44.0211 41.4144 43.8129 41.6437 43.6636C41.873 43.5121 42.1475 43.4364 42.4672 43.4364C42.7911 43.4364 43.0625 43.5121 43.2812 43.6636C43.5021 43.815 43.6651 44.0232 43.7703 44.2883H43.8208C43.9365 44.0296 44.1205 43.8234 44.3729 43.6699C44.6253 43.5142 44.9261 43.4364 45.2753 43.4364C45.7149 43.4364 46.0736 43.5742 46.3512 43.8497C46.631 44.1253 46.7709 44.5407 46.7709 45.096V48.3458H45.8275V45.1843C45.8275 44.8562 45.7381 44.6185 45.5593 44.4713C45.3805 44.324 45.167 44.2504 44.9188 44.2504C44.6117 44.2504 44.3729 44.3451 44.2026 44.5344C44.0322 44.7216 43.947 44.9624 43.947 45.2569V48.3458H43.0067V45.1244C43.0067 44.8615 42.9247 44.6501 42.7606 44.4902C42.5966 44.3303 42.3831 44.2504 42.1201 44.2504C41.9413 44.2504 41.7762 44.2977 41.6248 44.3924C41.4754 44.485 41.3545 44.6143 41.2619 44.7805C41.1715 44.9467 41.1263 45.1391 41.1263 45.3579V48.3458H40.1829ZM50.0767 48.4436C49.6223 48.4436 49.2258 48.3395 48.8872 48.1313C48.5485 47.923 48.2856 47.6317 48.0984 47.2573C47.9112 46.8829 47.8176 46.4454 47.8176 45.9447C47.8176 45.442 47.9112 45.0024 48.0984 44.6259C48.2856 44.2494 48.5485 43.957 48.8872 43.7487C49.2258 43.5405 49.6223 43.4364 50.0767 43.4364C50.531 43.4364 50.9275 43.5405 51.2662 43.7487C51.6048 43.957 51.8678 44.2494 52.055 44.6259C52.2422 45.0024 52.3358 45.442 52.3358 45.9447C52.3358 46.4454 52.2422 46.8829 52.055 47.2573C51.8678 47.6317 51.6048 47.923 51.2662 48.1313C50.9275 48.3395 50.531 48.4436 50.0767 48.4436ZM50.0798 47.6517C50.3743 47.6517 50.6183 47.5739 50.8118 47.4182C51.0054 47.2626 51.1484 47.0554 51.2409 46.7966C51.3356 46.5379 51.3829 46.2529 51.3829 45.9416C51.3829 45.6324 51.3356 45.3484 51.2409 45.0897C51.1484 44.8289 51.0054 44.6196 50.8118 44.4618C50.6183 44.3041 50.3743 44.2252 50.0798 44.2252C49.7833 44.2252 49.5372 44.3041 49.3415 44.4618C49.148 44.6196 49.0039 44.8289 48.9093 45.0897C48.8167 45.3484 48.7705 45.6324 48.7705 45.9416C48.7705 46.2529 48.8167 46.5379 48.9093 46.7966C49.0039 47.0554 49.148 47.2626 49.3415 47.4182C49.5372 47.5739 49.7833 47.6517 50.0798 47.6517ZM54.3322 45.4683V48.3458H53.3888V43.4995H54.2944V44.2883H54.3543C54.4658 44.0317 54.6404 43.8255 54.8781 43.6699C55.1179 43.5142 55.4197 43.4364 55.7836 43.4364C56.1138 43.4364 56.4031 43.5058 56.6513 43.6446C56.8995 43.7813 57.0919 43.9854 57.2287 44.2567C57.3654 44.5281 57.4338 44.8636 57.4338 45.2632V48.3458H56.4904V45.3768C56.4904 45.0255 56.3989 44.751 56.2159 44.5533C56.0329 44.3535 55.7815 44.2536 55.4618 44.2536C55.243 44.2536 55.0484 44.3009 54.8781 44.3956C54.7098 44.4902 54.5762 44.629 54.4774 44.812C54.3806 44.9929 54.3322 45.2117 54.3322 45.4683ZM60.9612 43.4995V44.2567H58.314V43.4995H60.9612ZM59.024 42.3384H59.9674V46.9228C59.9674 47.1058 59.9947 47.2436 60.0494 47.3362C60.1041 47.4266 60.1745 47.4887 60.2608 47.5223C60.3491 47.5539 60.4448 47.5697 60.5479 47.5697C60.6236 47.5697 60.6899 47.5644 60.7467 47.5539C60.8035 47.5434 60.8476 47.5349 60.8792 47.5286L61.0496 48.308C60.9949 48.329 60.9171 48.35 60.8161 48.3711C60.7151 48.3942 60.5889 48.4068 60.4375 48.4089C60.1893 48.4131 59.9579 48.369 59.7433 48.2764C59.5288 48.1839 59.3553 48.0408 59.2227 47.8473C59.0902 47.6538 59.024 47.4108 59.024 47.1185V42.3384ZM63.0523 45.4683V48.3458H62.1089V41.884H63.0397V44.2883H63.0997C63.2132 44.0275 63.3868 43.8203 63.6203 43.6667C63.8537 43.5132 64.1587 43.4364 64.5353 43.4364C64.8676 43.4364 65.1579 43.5047 65.4061 43.6415C65.6564 43.7782 65.8499 43.9822 65.9866 44.2536C66.1255 44.5228 66.1949 44.8594 66.1949 45.2632V48.3458H65.2515V45.3768C65.2515 45.0213 65.16 44.7458 64.977 44.5502C64.794 44.3524 64.5395 44.2536 64.2134 44.2536C63.9905 44.2536 63.7906 44.3009 63.6139 44.3956C63.4394 44.4902 63.3016 44.629 63.2006 44.812C63.1018 44.9929 63.0523 45.2117 63.0523 45.4683ZM71.0854 44.6827L70.2303 44.8341C70.1946 44.7247 70.1378 44.6206 70.06 44.5218C69.9842 44.4229 69.8812 44.3419 69.7507 44.2788C69.6203 44.2157 69.4573 44.1842 69.2617 44.1842C68.9946 44.1842 68.7716 44.2441 68.5928 44.364C68.414 44.4818 68.3246 44.6343 68.3246 44.8215C68.3246 44.9835 68.3846 45.1139 68.5045 45.2127C68.6243 45.3116 68.8179 45.3926 69.085 45.4557L69.8549 45.6324C70.3008 45.7354 70.6331 45.8943 70.8519 46.1088C71.0707 46.3234 71.18 46.6021 71.18 46.9449C71.18 47.2352 71.0959 47.4939 70.9276 47.7211C70.7614 47.9462 70.529 48.1229 70.2303 48.2512C69.9337 48.3795 69.5898 48.4436 69.1986 48.4436C68.6559 48.4436 68.2131 48.3279 67.8703 48.0966C67.5274 47.8631 67.3171 47.5318 67.2392 47.1027L68.1511 46.9639C68.2079 47.2016 68.3246 47.3814 68.5013 47.5034C68.678 47.6233 68.9083 47.6832 69.1923 47.6832C69.5015 47.6832 69.7486 47.6191 69.9337 47.4908C70.1188 47.3604 70.2114 47.2016 70.2114 47.0143C70.2114 46.8629 70.1546 46.7356 70.041 46.6326C69.9295 46.5295 69.7581 46.4517 69.5267 46.3991L68.7064 46.2192C68.2541 46.1162 67.9197 45.9521 67.703 45.727C67.4885 45.502 67.3812 45.2169 67.3812 44.872C67.3812 44.5859 67.4611 44.3356 67.621 44.1211C67.7809 43.9065 68.0017 43.7393 68.2836 43.6194C68.5655 43.4974 68.8883 43.4364 69.2522 43.4364C69.776 43.4364 70.1883 43.55 70.4891 43.7771C70.7898 44.0022 70.9886 44.3041 71.0854 44.6827ZM74.5687 50.1632V43.4995H75.49V44.2851H75.5689C75.6236 44.1842 75.7024 44.0674 75.8055 43.9349C75.9086 43.8024 76.0516 43.6867 76.2346 43.5878C76.4176 43.4869 76.6595 43.4364 76.9603 43.4364C77.3515 43.4364 77.7007 43.5352 78.0078 43.733C78.3149 43.9307 78.5558 44.2157 78.7304 44.588C78.907 44.9603 78.9954 45.4084 78.9954 45.9321C78.9954 46.4559 78.9081 46.905 78.7335 47.2794C78.5589 47.6517 78.3191 47.9388 78.0141 48.1407C77.7091 48.3406 77.361 48.4405 76.9698 48.4405C76.6753 48.4405 76.4344 48.391 76.2472 48.2922C76.0621 48.1933 75.917 48.0776 75.8118 47.9451C75.7067 47.8126 75.6257 47.6948 75.5689 47.5917H75.5121V50.1632H74.5687ZM75.4932 45.9227C75.4932 46.2634 75.5426 46.5621 75.6414 46.8187C75.7403 47.0753 75.8833 47.2762 76.0705 47.4214C76.2578 47.5644 76.487 47.6359 76.7584 47.6359C77.0402 47.6359 77.2758 47.5612 77.4651 47.4119C77.6544 47.2604 77.7975 47.0554 77.8942 46.7966C77.9931 46.5379 78.0425 46.2466 78.0425 45.9227C78.0425 45.6029 77.9941 45.3158 77.8974 45.0613C77.8027 44.8068 77.6597 44.6059 77.4683 44.4587C77.279 44.3114 77.0423 44.2378 76.7584 44.2378C76.4849 44.2378 76.2535 44.3083 76.0642 44.4492C75.877 44.5901 75.735 44.7868 75.6383 45.0392C75.5415 45.2916 75.4932 45.5861 75.4932 45.9227ZM80.0524 48.3458V43.4995H80.9642V44.2693H81.0147C81.103 44.0085 81.2587 43.8034 81.4817 43.6541C81.7067 43.5026 81.9612 43.4269 82.2452 43.4269C82.3041 43.4269 82.3735 43.429 82.4535 43.4332C82.5355 43.4374 82.5996 43.4427 82.6459 43.449V44.3514C82.6081 44.3409 82.5407 44.3293 82.444 44.3167C82.3472 44.302 82.2505 44.2946 82.1537 44.2946C81.9307 44.2946 81.732 44.3419 81.5574 44.4366C81.3849 44.5291 81.2482 44.6585 81.1472 44.8247C81.0462 44.9887 80.9958 45.1759 80.9958 45.3863V48.3458H80.0524ZM83.4623 48.3458V43.4995H84.4057V48.3458H83.4623ZM83.9388 42.7517C83.7747 42.7517 83.6338 42.697 83.516 42.5876C83.4003 42.4762 83.3424 42.3436 83.3424 42.1901C83.3424 42.0344 83.4003 41.9019 83.516 41.7925C83.6338 41.6811 83.7747 41.6253 83.9388 41.6253C84.1028 41.6253 84.2427 41.6811 84.3584 41.7925C84.4762 41.9019 84.5351 42.0344 84.5351 42.1901C84.5351 42.3436 84.4762 42.4762 84.3584 42.5876C84.2427 42.697 84.1028 42.7517 83.9388 42.7517ZM87.7163 48.4436C87.2619 48.4436 86.8654 48.3395 86.5268 48.1313C86.1881 47.923 85.9252 47.6317 85.738 47.2573C85.5508 46.8829 85.4572 46.4454 85.4572 45.9447C85.4572 45.442 85.5508 45.0024 85.738 44.6259C85.9252 44.2494 86.1881 43.957 86.5268 43.7487C86.8654 43.5405 87.2619 43.4364 87.7163 43.4364C88.1706 43.4364 88.5671 43.5405 88.9058 43.7487C89.2444 43.957 89.5074 44.2494 89.6946 44.6259C89.8818 45.0024 89.9754 45.442 89.9754 45.9447C89.9754 46.4454 89.8818 46.8829 89.6946 47.2573C89.5074 47.6317 89.2444 47.923 88.9058 48.1313C88.5671 48.3395 88.1706 48.4436 87.7163 48.4436ZM87.7194 47.6517C88.0139 47.6517 88.2579 47.5739 88.4514 47.4182C88.6449 47.2626 88.788 47.0554 88.8805 46.7966C88.9752 46.5379 89.0225 46.2529 89.0225 45.9416C89.0225 45.6324 88.9752 45.3484 88.8805 45.0897C88.788 44.8289 88.6449 44.6196 88.4514 44.4618C88.2579 44.3041 88.0139 44.2252 87.7194 44.2252C87.4228 44.2252 87.1767 44.3041 86.9811 44.4618C86.7876 44.6196 86.6435 44.8289 86.5489 45.0897C86.4563 45.3484 86.41 45.6324 86.41 45.9416C86.41 46.2529 86.4563 46.5379 86.5489 46.7966C86.6435 47.0554 86.7876 47.2626 86.9811 47.4182C87.1767 47.5739 87.4228 47.6517 87.7194 47.6517ZM91.0284 48.3458V43.4995H91.9403V44.2693H91.9907C92.0791 44.0085 92.2347 43.8034 92.4577 43.6541C92.6828 43.5026 92.9373 43.4269 93.2213 43.4269C93.2802 43.4269 93.3496 43.429 93.4295 43.4332C93.5115 43.4374 93.5757 43.4427 93.622 43.449V44.3514C93.5841 44.3409 93.5168 44.3293 93.42 44.3167C93.3233 44.302 93.2265 44.2946 93.1298 44.2946C92.9068 44.2946 92.708 44.3419 92.5334 44.4366C92.3609 44.5291 92.2242 44.6585 92.1233 44.8247C92.0223 44.9887 91.9718 45.1759 91.9718 45.3863V48.3458H91.0284ZM99.052 43.4995V44.2567H96.4048V43.4995H99.052ZM97.1147 42.3384H98.0581V46.9228C98.0581 47.1058 98.0855 47.2436 98.1402 47.3362C98.1949 47.4266 98.2653 47.4887 98.3516 47.5223C98.4399 47.5539 98.5356 47.5697 98.6387 47.5697C98.7144 47.5697 98.7807 47.5644 98.8375 47.5539C98.8942 47.5434 98.9384 47.5349 98.97 47.5286L99.1404 48.308C99.0857 48.329 99.0078 48.35 98.9069 48.3711C98.8059 48.3942 98.6797 48.4068 98.5283 48.4089C98.28 48.4131 98.0487 48.369 97.8341 48.2764C97.6196 48.1839 97.446 48.0408 97.3135 47.8473C97.181 47.6538 97.1147 47.4108 97.1147 47.1185V42.3384ZM102.085 48.4436C101.631 48.4436 101.234 48.3395 100.895 48.1313C100.557 47.923 100.294 47.6317 100.107 47.2573C99.9194 46.8829 99.8258 46.4454 99.8258 45.9447C99.8258 45.442 99.9194 45.0024 100.107 44.6259C100.294 44.2494 100.557 43.957 100.895 43.7487C101.234 43.5405 101.631 43.4364 102.085 43.4364C102.539 43.4364 102.936 43.5405 103.274 43.7487C103.613 43.957 103.876 44.2494 104.063 44.6259C104.25 45.0024 104.344 45.442 104.344 45.9447C104.344 46.4454 104.25 46.8829 104.063 47.2573C103.876 47.6317 103.613 47.923 103.274 48.1313C102.936 48.3395 102.539 48.4436 102.085 48.4436ZM102.088 47.6517C102.383 47.6517 102.627 47.5739 102.82 47.4182C103.014 47.2626 103.157 47.0554 103.249 46.7966C103.344 46.5379 103.391 46.2529 103.391 45.9416C103.391 45.6324 103.344 45.3484 103.249 45.0897C103.157 44.8289 103.014 44.6196 102.82 44.4618C102.627 44.3041 102.383 44.2252 102.088 44.2252C101.791 44.2252 101.545 44.3041 101.35 44.4618C101.156 44.6196 101.012 44.8289 100.918 45.0897C100.825 45.3484 100.779 45.6324 100.779 45.9416C100.779 46.2529 100.825 46.5379 100.918 46.7966C101.012 47.0554 101.156 47.2626 101.35 47.4182C101.545 47.5739 101.791 47.6517 102.088 47.6517ZM107.736 48.3458V47.6391L109.922 45.3737C110.156 45.1276 110.348 44.9119 110.5 44.7268C110.653 44.5396 110.768 44.3619 110.844 44.1936C110.919 44.0253 110.957 43.8466 110.957 43.6572C110.957 43.4427 110.907 43.2576 110.806 43.1019C110.705 42.9442 110.567 42.8232 110.392 42.7391C110.218 42.6528 110.021 42.6097 109.802 42.6097C109.571 42.6097 109.369 42.6571 109.197 42.7517C109.024 42.8464 108.892 42.9799 108.799 43.1524C108.707 43.3249 108.66 43.5268 108.66 43.7582H107.73C107.73 43.3649 107.82 43.021 108.001 42.7265C108.182 42.432 108.43 42.2038 108.745 42.0418C109.061 41.8777 109.42 41.7957 109.821 41.7957C110.227 41.7957 110.585 41.8767 110.894 42.0386C111.205 42.1985 111.448 42.4173 111.623 42.6949C111.798 42.9705 111.885 43.2818 111.885 43.6288C111.885 43.8686 111.84 44.1032 111.749 44.3325C111.661 44.5617 111.506 44.8173 111.285 45.0992C111.065 45.3789 110.757 45.7186 110.364 46.1183L109.08 47.4624V47.5097H111.989V48.3458H107.736ZM115.434 48.4531C114.936 48.451 114.51 48.3195 114.157 48.0587C113.803 47.7979 113.533 47.4182 113.346 46.9197C113.159 46.4212 113.065 45.8206 113.065 45.1181C113.065 44.4176 113.159 43.8192 113.346 43.3228C113.535 42.8264 113.806 42.4478 114.16 42.1869C114.515 41.9261 114.94 41.7957 115.434 41.7957C115.929 41.7957 116.353 41.9272 116.706 42.1901C117.059 42.4509 117.33 42.8295 117.517 43.326C117.706 43.8203 117.801 44.4176 117.801 45.1181C117.801 45.8227 117.707 46.4243 117.52 46.9228C117.333 47.4193 117.063 47.7989 116.709 48.0619C116.356 48.3227 115.931 48.4531 115.434 48.4531ZM115.434 47.6107C115.872 47.6107 116.214 47.3972 116.46 46.9702C116.708 46.5432 116.832 45.9258 116.832 45.1181C116.832 44.5817 116.775 44.1284 116.662 43.7582C116.55 43.3859 116.389 43.104 116.179 42.9126C115.971 42.7191 115.723 42.6223 115.434 42.6223C114.999 42.6223 114.657 42.8369 114.409 43.266C114.161 43.6951 114.036 44.3125 114.034 45.1181C114.034 45.6566 114.089 46.112 114.201 46.4843C114.314 46.8545 114.475 47.1353 114.684 47.3267C114.892 47.516 115.142 47.6107 115.434 47.6107ZM123.871 41.884H124.843V46.4653C124.843 46.8797 124.761 47.2342 124.597 47.5286C124.435 47.8231 124.207 48.0482 123.912 48.2038C123.618 48.3574 123.273 48.4342 122.877 48.4342C122.514 48.4342 122.186 48.3679 121.896 48.2354C121.608 48.1029 121.38 47.9104 121.212 47.658C121.045 47.4035 120.962 47.0943 120.962 46.7304H121.931C121.931 46.9092 121.972 47.0638 122.054 47.1942C122.138 47.3246 122.253 47.4266 122.398 47.5002C122.545 47.5718 122.713 47.6075 122.903 47.6075C123.109 47.6075 123.283 47.5644 123.426 47.4782C123.572 47.3898 123.682 47.2604 123.758 47.0901C123.833 46.9197 123.871 46.7114 123.871 46.4653V41.884ZM127.597 48.4531C127.29 48.4531 127.012 48.3963 126.764 48.2827C126.516 48.167 126.319 47.9998 126.174 47.781C126.031 47.5623 125.959 47.2941 125.959 46.9765C125.959 46.703 126.012 46.478 126.117 46.3013C126.222 46.1246 126.364 45.9847 126.543 45.8816C126.722 45.7786 126.922 45.7007 127.142 45.6482C127.363 45.5956 127.588 45.5556 127.818 45.5283C128.108 45.4946 128.344 45.4673 128.524 45.4462C128.705 45.4231 128.837 45.3863 128.919 45.3358C129.001 45.2853 129.042 45.2033 129.042 45.0897V45.0676C129.042 44.7921 128.964 44.5786 128.808 44.4271C128.655 44.2757 128.426 44.1999 128.121 44.1999C127.803 44.1999 127.553 44.2704 127.37 44.4113C127.189 44.5502 127.064 44.7048 126.994 44.8751L126.108 44.6732C126.213 44.3787 126.366 44.141 126.568 43.9601C126.772 43.7771 127.007 43.6446 127.272 43.5626C127.537 43.4785 127.816 43.4364 128.108 43.4364C128.301 43.4364 128.507 43.4595 128.723 43.5058C128.942 43.55 129.146 43.632 129.335 43.7519C129.527 43.8718 129.683 44.0432 129.805 44.2662C129.927 44.4871 129.988 44.7742 129.988 45.1276V48.3458H129.067V47.6832H129.029C128.968 47.8052 128.877 47.9251 128.755 48.0429C128.633 48.1607 128.476 48.2585 128.285 48.3364C128.093 48.4142 127.864 48.4531 127.597 48.4531ZM127.802 47.6959C128.063 47.6959 128.286 47.6443 128.471 47.5413C128.658 47.4382 128.8 47.3036 128.897 47.1374C128.996 46.9691 129.045 46.7893 129.045 46.5979V45.9731C129.011 46.0068 128.946 46.0383 128.849 46.0678C128.755 46.0951 128.646 46.1193 128.524 46.1404C128.402 46.1593 128.284 46.1772 128.168 46.194C128.052 46.2087 127.955 46.2213 127.878 46.2319C127.695 46.255 127.527 46.2939 127.376 46.3486C127.227 46.4033 127.107 46.4822 127.016 46.5852C126.928 46.6862 126.884 46.8208 126.884 46.9891C126.884 47.2226 126.97 47.3993 127.142 47.5192C127.315 47.637 127.535 47.6959 127.802 47.6959ZM132.188 45.4683V48.3458H131.245V43.4995H132.151V44.2883H132.21C132.322 44.0317 132.497 43.8255 132.734 43.6699C132.974 43.5142 133.276 43.4364 133.64 43.4364C133.97 43.4364 134.259 43.5058 134.507 43.6446C134.756 43.7813 134.948 43.9854 135.085 44.2567C135.222 44.5281 135.29 44.8636 135.29 45.2632V48.3458H134.347V45.3768C134.347 45.0255 134.255 44.751 134.072 44.5533C133.889 44.3535 133.638 44.2536 133.318 44.2536C133.099 44.2536 132.905 44.3009 132.734 44.3956C132.566 44.4902 132.432 44.629 132.334 44.812C132.237 44.9929 132.188 45.2117 132.188 45.4683Z" fill="#979797"/>
<defs>
<filter id="filter0_b_48_518" x="-110.81" y="-110.707" width="475.9" height="288.761" filterUnits="userSpaceOnUse" color-interpolation-filters="sRGB">
<feFlood flood-opacity="0" result="BackgroundImageFix"/>
<feGaussianBlur in="BackgroundImageFix" stdDeviation="55.531"/>
<feComposite in2="SourceAlpha" operator="in" result="effect1_backgroundBlur_48_518"/>
<feBlend mode="normal" in="SourceGraphic" in2="effect1_backgroundBlur_48_518" result="shape"/>
</filter>
<linearGradient id="paint0_linear_48_518" x1="223.209" y1="90.8942" x2="122.486" y2="-104.106" gradientUnits="userSpaceOnUse">
<stop stop-color="#121212"/>
<stop offset="1" stop-color="#3B3B3B"/>
</linearGradient>
</defs>
</svg>
