<svg width="142" height="42" viewBox="0 0 142 42" fill="none" xmlns="http://www.w3.org/2000/svg">
<path fill-rule="evenodd" clip-rule="evenodd" d="M48.5251 19.4388V2.31091H54.7705C56.0949 2.31091 56.9471 2.59472 57.704 2.87853C59.4076 3.72996 60.1636 5.33901 60.1636 6.75805C60.1636 8.3671 59.5014 9.50234 58.1762 10.3538C60.1636 10.8268 61.2997 12.152 61.2997 14.2333C61.2997 16.5992 59.8798 18.302 57.5139 19.0596C56.6625 19.3434 55.7165 19.438 54.2966 19.438L48.5251 19.4388ZM56.1895 5.2444C55.7165 5.0552 55.2435 4.9606 54.5805 4.9606H51.3632V9.40773H54.3912C55.2427 9.40773 55.8111 9.31313 56.2841 9.02932C56.6036 8.85125 56.869 8.59011 57.0521 8.27355C57.2353 7.95699 57.3295 7.59678 57.3247 7.23107C57.3247 6.38044 56.8517 5.62282 56.1895 5.2444ZM57.0417 12.3412C56.6633 12.152 56.0949 12.0574 55.1489 12.0574H51.364V16.7884H54.8651C56.0003 16.7884 56.5687 16.5992 57.0417 16.41C57.8932 16.0315 58.2716 15.2739 58.2716 14.3279C58.2716 13.3819 57.8932 12.7204 57.0417 12.3412ZM78.3322 19.4388V2.31091H81.2665V19.4388H78.3322ZM99.6235 19.4388V2.31091H102.558V19.4388H99.6235ZM111.926 2.21631C113.817 2.21631 115.711 2.68932 116.752 3.16314L116.657 6.00203C115.142 5.2452 113.724 4.77139 111.927 4.77139C110.317 4.77139 108.899 5.2444 108.899 6.56965C108.899 10.0708 117.699 8.65091 117.699 14.4233C117.699 17.6406 115.049 19.6281 111.075 19.6281C108.426 19.6281 106.626 18.8712 105.302 18.1136L106.533 15.7477C107.574 16.41 109.278 17.0722 111.169 17.0722C112.966 17.0722 114.576 16.41 114.576 14.8963C114.576 11.2052 105.87 12.8142 105.87 7.04186C105.87 3.91997 108.329 2.21631 111.926 2.21631ZM131.513 19.4388V12.0582H123.28V19.4388H120.347V2.31091H123.28V9.31393H131.513V2.31091H134.446V19.4388H131.513ZM54.9597 22.3723C56.7571 22.3723 58.177 22.7508 59.6906 23.413L58.8392 25.8734C57.9878 25.4942 56.8517 25.022 55.2435 25.022C52.0262 25.022 50.0387 27.7663 50.0387 31.0782C50.0387 34.4855 51.9316 37.229 55.2435 37.229C56.8517 37.229 57.9878 36.756 58.8392 36.3776L59.6906 38.8373C58.1762 39.4995 56.7571 39.8787 54.9597 39.8787C49.8495 39.8787 46.916 36.283 46.916 31.1728C46.916 26.3465 49.8495 22.3723 54.9597 22.3723ZM118.929 22.3723C120.82 22.3723 122.241 22.7508 123.659 23.413L122.808 25.8734C121.956 25.4942 120.82 25.022 119.213 25.022C115.995 25.022 114.008 27.7663 114.008 31.0782C114.008 34.4855 115.901 37.229 119.213 37.229C120.821 37.229 121.956 36.756 122.808 36.3776L123.659 38.8373C122.24 39.4995 120.82 39.8787 118.929 39.8787C113.818 39.8787 110.885 36.283 110.885 31.1728C110.884 26.3465 113.818 22.3723 118.929 22.3723ZM76.3447 31.0774C76.3447 36.1876 73.1282 39.8787 68.3019 39.8787C63.4755 39.8787 60.2582 36.283 60.2582 31.1728C60.2582 26.0627 63.4763 22.3723 68.3019 22.3723C73.2228 22.3723 76.3447 25.9681 76.3447 31.0774ZM73.3166 31.0774C73.3166 27.3871 71.1416 25.0212 68.3019 25.0212C65.463 25.0212 63.2871 27.3871 63.2871 31.172C63.2871 34.8631 65.4638 37.2282 68.3019 37.2282C71.1416 37.2282 73.3166 34.8631 73.3166 31.0774ZM78.3322 33.1595V22.5615H81.2665V33.2541C81.2665 36.1876 82.7809 37.2282 85.2406 37.2282C87.7003 37.2282 89.2147 36.1876 89.2147 33.2541V22.5615H92.1474V33.1595C92.1474 37.7966 89.4977 39.8787 85.2406 39.8787C80.9819 39.8787 78.3322 37.7966 78.3322 33.1595ZM97.636 27.1979H97.5422C97.636 27.7655 97.636 28.7123 97.636 29.4692V39.5941H94.7033V22.5615H97.9214L105.774 34.2009H105.87C105.774 33.6333 105.774 32.6865 105.774 31.9296V22.5615H108.709V39.5941H106.153L97.636 27.1979ZM125.931 39.5941V22.5615H128.864V39.5941H125.931ZM131.513 39.5941V22.5615H134.446V36.9452H141.165V39.5941H131.513ZM97.353 2.40632H83.537V5.0552H89.0255V19.4388H91.9598V5.0552H97.353V2.40632ZM73.129 19.4388C70.6678 14.2341 70.0055 12.815 68.9649 12.815H66.2206V19.4388H63.2871V2.40632H69.0595C73.5066 2.40632 75.1165 4.67759 75.1165 7.23187C75.1165 9.59774 73.8859 11.1114 71.993 11.679C72.7506 12.152 73.6029 13.7611 76.4417 19.4388H73.129ZM69.2479 4.9606H66.2198V10.1654H69.1533C71.2354 10.1654 72.1806 9.12473 72.1806 7.51568C72.1814 6.09663 71.33 4.9606 69.2479 4.9606Z" fill="#DCDCDC"/>
<path fill-rule="evenodd" clip-rule="evenodd" d="M19.8523 10.5436C19.8523 15.9376 15.4051 20.2901 10.0112 20.2901C4.71179 20.2901 0.264648 15.9368 0.264648 10.5436C0.264648 5.15046 4.71179 0.797129 10.0112 0.797129C15.4051 0.797129 19.8523 5.14966 19.8523 10.5436ZM40.6705 10.5436C40.6723 11.8241 40.4214 13.0923 39.9323 14.2756C39.4431 15.4589 38.7252 16.534 37.8198 17.4395C36.9144 18.3449 35.8393 19.0627 34.656 19.5519C33.4726 20.0411 32.2044 20.2919 30.924 20.2901C25.53 20.2901 21.1775 15.9368 21.1775 10.5436C21.1775 5.15046 25.5308 0.797129 30.924 0.797129C32.2044 0.795334 33.4726 1.04621 34.656 1.53538C35.8393 2.02455 36.9144 2.74241 37.8198 3.64781C38.7252 4.55321 39.4431 5.62837 39.9323 6.81168C40.4214 7.99499 40.6723 9.2632 40.6705 10.5436ZM19.8523 31.4565C19.8523 36.8505 15.4051 41.203 10.0112 41.203C4.71179 41.203 0.264648 36.8497 0.264648 31.4565C0.264648 26.0617 4.71179 21.71 10.0112 21.71C15.4051 21.71 19.8523 26.0617 19.8523 31.4565ZM40.6705 31.4565C40.6723 32.7369 40.4214 34.0051 39.9323 35.1884C39.4431 36.3717 38.7252 37.4469 37.8198 38.3523C36.9144 39.2577 35.8393 39.9756 34.656 40.4647C33.4726 40.9539 32.2044 41.2048 30.924 41.203C29.6436 41.2048 28.3754 40.9539 27.1921 40.4647C26.0088 39.9756 24.9336 39.2577 24.0282 38.3523C23.1228 37.4469 22.4049 36.3717 21.9158 35.1884C21.4266 34.0051 21.1757 32.7369 21.1775 31.4565C21.1757 30.176 21.4266 28.9078 21.9158 27.7245C22.4049 26.5412 23.1228 25.4661 24.0282 24.5607C24.9336 23.6553 26.0088 22.9374 27.1921 22.4482C28.3754 21.9591 29.6436 21.7082 30.924 21.71C32.2045 21.7081 33.4727 21.9589 34.6561 22.448C35.8394 22.9372 36.9146 23.655 37.8201 24.5604C38.7255 25.4659 39.4433 26.5411 39.9325 27.7244C40.4216 28.9078 40.6724 30.176 40.6705 31.4565Z" fill="#DCDCDC"/>
</svg>
