<svg width="156" height="42" viewBox="0 0 156 42" fill="none" xmlns="http://www.w3.org/2000/svg">
<path d="M114.591 3.46589C114.591 1.84733 115.937 0.533691 117.597 0.533691H152.26C153.92 0.533691 155.266 1.84733 155.266 3.46589V38.5347C155.266 40.1538 153.92 41.4664 152.26 41.4664H117.597C115.937 41.4664 114.591 40.1538 114.591 38.5352V3.46589Z" fill="#DCDCDC"/>
<path d="M0.728516 34.8206H17.7033V29.2472H6.8726V7.9858H0.728516V34.8206ZM26.2975 34.8206V16.3374H20.1539V34.8206H26.2975ZM23.2262 13.8142C25.3682 13.8142 26.7017 12.3948 26.7017 10.6201C26.662 8.80662 25.3682 7.42749 23.267 7.42749C21.1653 7.42749 19.791 8.80716 19.791 10.6201C19.791 12.3948 21.1245 13.8142 23.186 13.8142H23.2262ZM29.1497 34.8206H35.2932V24.4983C35.2932 23.9459 35.3329 23.3935 35.4956 23C35.939 21.8963 36.9499 20.7528 38.6474 20.7528C40.8709 20.7528 41.7605 22.4482 41.7605 24.9316V34.8201H47.903V24.2224C47.903 18.5448 44.872 15.9031 40.8296 15.9031C37.5157 15.9031 36.0604 17.7557 35.2519 19.0178H35.2932V16.3374H29.1497C29.2307 18.0719 29.1497 34.8206 29.1497 34.8206ZM56.5702 7.9858H50.4266V34.8206H56.5702V28.8279L58.1055 26.8948L62.9156 34.8206H70.4731L62.3905 23.3468L69.4628 15.5412H62.0674C62.0674 15.5412 57.0152 22.5244 56.5702 23.3533V7.9858Z" fill="#DCDCDC"/>
<path d="M86.9028 27.1107C86.9838 26.6361 87.1052 25.7256 87.1052 24.696C87.1052 19.9181 84.6797 15.0673 78.2941 15.0673C71.4634 15.0673 68.3105 20.4695 68.3105 25.3692C68.3105 31.429 72.1505 35.2131 78.8594 35.2131C81.5274 35.2131 83.9921 34.8202 86.0138 33.9918L85.2053 29.9344C83.5476 30.4841 81.8501 30.7595 79.7489 30.7595C76.8795 30.7595 74.3741 29.5812 74.1717 27.0709L86.9028 27.1096V27.1107ZM74.1315 22.9545C74.2931 21.3773 75.3447 19.0501 77.9714 19.0501C80.7598 19.0501 81.4072 21.5346 81.4072 22.9545H74.1315ZM102.269 7.98589V17.2753H102.188C101.299 15.9751 99.4395 15.1076 96.9754 15.1076C92.2459 15.1076 88.0833 18.8922 88.123 25.3579C88.123 31.3511 91.8825 35.2545 96.5701 35.2545C99.1169 35.2545 101.541 34.1497 102.754 32.0206H102.875L103.118 34.8207H108.574C108.494 33.5194 108.412 31.2722 108.412 29.0642V7.98535H102.269L102.269 7.98589ZM102.269 26.2652C102.269 26.7376 102.229 27.2116 102.147 27.6046C101.785 29.301 100.33 30.4825 98.551 30.4825C96.0054 30.4825 94.3476 28.4329 94.3476 25.2001C94.3476 22.1648 95.7633 19.72 98.5918 19.72C100.491 19.72 101.825 21.0208 102.189 22.6367C102.269 22.9926 102.269 23.3872 102.269 23.7415V26.2652Z" fill="#DCDCDC"/>
<path d="M126.921 34.7981V16.3149H120.777V34.7981H126.921ZM123.85 13.7918C125.992 13.7918 127.326 12.3724 127.326 10.5987C127.285 8.7847 125.992 7.40503 123.891 7.40503C121.788 7.40503 120.415 8.7847 120.415 10.5987C120.415 12.3724 121.748 13.7918 123.81 13.7918H123.85H123.85ZM130.321 34.7981H136.464V24.4775C136.464 23.9256 136.505 23.3727 136.667 22.9786C137.111 21.8744 138.121 20.7314 139.819 20.7314C142.041 20.7314 142.931 22.4262 142.931 24.9112V34.7981H149.074V24.2005C149.074 18.5234 146.044 15.8817 142.002 15.8817C138.688 15.8817 137.232 17.7338 136.424 18.9953H136.465V16.3154H130.322C130.402 18.0494 130.321 34.7981 130.321 34.7981Z" fill="#131414"/>
</svg>
