<svg width="66" height="42" viewBox="0 0 66 42" fill="none" xmlns="http://www.w3.org/2000/svg">
<path d="M132.083 39.2975C134.235 39.5062 136.387 39.7302 138.533 39.962L143.271 28.2626L147.774 41.0412C150.085 41.3307 152.395 41.6346 154.698 41.9519L146.802 19.5437L154.7 0.039143H148.011L147.941 0.134955L143.675 10.6718L139.929 0.0406884H133.324L140.142 19.3912L132.084 39.2975H132.083ZM127.088 38.8391V0.039143H120.486V38.2946C122.688 38.4646 124.891 38.6474 127.088 38.8391ZM77.4924 36.6694C79.2747 36.6694 81.0549 36.6828 82.8321 36.6972V22.4428H90.7634V16.3726H82.8326V6.11654H91.9672V0.039143H76.2046V36.6745C76.6326 36.6745 77.0627 36.6678 77.4924 36.6694ZM56.9936 37.0403C59.1932 36.962 61.3948 36.896 63.5995 36.8425V6.11757H69.7707V0.0406884H50.8225V6.11757H56.9947V37.0403H56.9936ZM6.49943 41.1314V18.0153L14.3169 40.198C16.721 39.928 19.1286 39.6741 21.543 39.434V0.0396581H15.2081V23.984L6.77244 0.0396581H0.166016V41.9622H0.20568C2.29862 41.6728 4.39876 41.3977 6.49943 41.1314ZM44.4561 6.11602V0.0396581H28.6919V38.7773C33.9368 38.3245 39.1877 37.9448 44.4432 37.6383V31.5563C41.3958 31.7335 38.3545 31.9375 35.3204 32.1647V22.4454H43.2518V16.3716H35.3204V6.11602H44.4561ZM105.052 31.2658V0.0375977H98.4207V37.0624C103.696 37.2561 108.95 37.526 114.186 37.866V31.7804C111.147 31.5841 108.103 31.4141 105.052 31.2658Z" fill="#DCDCDC"/>
</svg>
