<svg width="43" height="36" viewBox="0 0 43 36" fill="none" xmlns="http://www.w3.org/2000/svg">
<path d="M11.8396 16.7881C11.4222 19.5284 9.32961 19.5284 7.30587 19.5284H6.15424L6.96235 14.412C7.01157 14.1029 7.27733 13.8755 7.59034 13.8755H8.11891C9.49694 13.8755 10.7982 13.8755 11.4695 14.66C11.8701 15.1295 11.9912 15.8264 11.8396 16.7881ZM10.9586 9.6381H3.32436C3.07151 9.63822 2.82699 9.72847 2.63468 9.89263C2.44238 10.0568 2.31488 10.2841 2.27508 10.5338L-0.809728 30.1087C-0.823925 30.1995 -0.818329 30.2922 -0.793312 30.3806C-0.768295 30.469 -0.724454 30.5509 -0.664799 30.6207C-0.605145 30.6906 -0.53109 30.7467 -0.44771 30.7852C-0.36433 30.8238 -0.273602 30.8438 -0.181748 30.844H3.7358C4.10097 30.844 4.41202 30.5782 4.46911 30.218L5.34514 24.6665C5.42585 24.1517 5.87075 23.7708 6.39244 23.7708H8.80793C13.8377 23.7708 16.7395 21.3385 17.4974 16.5145C17.8389 14.4061 17.5112 12.7485 16.5239 11.588C15.4382 10.3123 13.5139 9.63711 10.9596 9.63711" fill="#DCDCDC"/>
<path d="M28.6829 23.8161C28.3286 25.9048 26.672 27.3074 24.5567 27.3074C23.4966 27.3074 22.6472 26.9658 22.1019 26.3201C21.5605 25.6803 21.3577 24.7679 21.529 23.7531C21.8578 21.6821 23.5419 20.2351 25.6257 20.2351C26.6641 20.2351 27.5057 20.5797 28.0628 21.2313C28.6229 21.8878 28.8434 22.8052 28.6829 23.8161ZM33.7777 16.6995H30.122C29.97 16.6993 29.823 16.7535 29.7075 16.8522C29.5919 16.951 29.5155 17.0878 29.492 17.2379L29.3326 18.2596L29.0767 17.8895C28.2853 16.7409 26.5204 16.356 24.7585 16.356C20.7209 16.356 17.2709 19.4172 16.5986 23.7088C16.2492 25.8516 16.7462 27.898 17.9609 29.3262C19.0761 30.6383 20.6677 31.1846 22.5645 31.1846C25.8216 31.1846 27.6268 29.0939 27.6268 29.0939L27.4634 30.1097C27.4487 30.2005 27.4539 30.2933 27.4786 30.3818C27.5034 30.4704 27.5471 30.5525 27.6068 30.6224C27.6664 30.6923 27.7406 30.7485 27.8241 30.7869C27.9076 30.8254 27.9985 30.8452 28.0904 30.845H31.3809C31.9026 30.845 32.3475 30.466 32.4302 29.9493L34.4067 17.4358C34.4209 17.3449 34.4152 17.2519 34.3901 17.1634C34.365 17.0749 34.321 16.9929 34.2611 16.923C34.2012 16.8531 34.1269 16.797 34.0433 16.7586C33.9597 16.7202 33.8687 16.7004 33.7767 16.7005" fill="#DCDCDC"/>
<path d="M38.086 10.1767L34.952 30.1099C34.9378 30.2008 34.9434 30.2936 34.9685 30.3821C34.9936 30.4705 35.0375 30.5525 35.0972 30.6223C35.157 30.6922 35.2312 30.7483 35.3147 30.7868C35.3982 30.8252 35.489 30.8452 35.581 30.8452H38.7317C39.2534 30.8452 39.6983 30.4653 39.78 29.9495L42.8698 10.3736C42.8841 10.2827 42.8786 10.1899 42.8536 10.1013C42.8286 10.0128 42.7847 9.93076 42.7249 9.86086C42.6651 9.79096 42.5909 9.73486 42.5073 9.69644C42.4237 9.65802 42.3328 9.6382 42.2408 9.63833H38.715C38.5632 9.63795 38.4163 9.69194 38.301 9.79053C38.1856 9.88913 38.1093 10.0268 38.086 10.1767Z" fill="#DCDCDC"/>
</svg>
