<svg width="156" height="41" viewBox="0 0 156 41" fill="none" xmlns="http://www.w3.org/2000/svg">
<path d="M32.9383 15.7937C32.9383 17.6895 31.7637 19.0971 29.4152 20.0216C27.5908 20.7421 25.3667 21.1059 22.7403 21.1059H11.9733C9.14988 21.1059 6.77925 20.7768 4.85319 20.1283C2.20533 19.2385 0.87793 17.8183 0.87793 15.8632V5.41068C0.87793 3.53325 2.22743 2.14649 4.93402 1.24661C7.071 0.573434 9.42711 0.23369 12.0099 0.23369H16.2845C17.4376 0.23369 18.0135 0.747727 18.0135 1.77833C18.0135 2.81335 17.4376 3.3337 16.2845 3.3337H14.9792C14.8548 3.3337 14.7828 3.32928 14.7677 3.31665C14.4399 3.30591 14.1475 3.30149 13.8924 3.29518C13.6367 3.28823 13.4257 3.28255 13.2729 3.28255C8.17359 3.28255 5.61982 3.98919 5.61982 5.40374V15.8468C5.61982 17.2626 7.75743 17.9705 12.032 17.9705H22.7472C23.7684 17.9705 24.8627 17.8189 26.0152 17.5089C27.4664 17.1186 28.1958 16.597 28.1958 15.9301V13.7085H21.5335C20.6545 13.7085 19.9352 12.957 19.9352 12.0376C19.9352 11.1169 20.6545 10.3641 21.5335 10.3641H29.5453C29.9501 10.3231 30.531 10.3269 31.2756 10.3269C32.3838 10.3269 32.9383 10.7721 32.9383 11.6669V15.7937ZM60.9148 15.8992V9.5735C60.9148 8.27325 59.0765 7.60513 55.3564 7.60513H48.0032C46.6461 7.60513 45.4204 7.74658 44.326 8.0276C42.794 8.4507 42.0501 9.04746 42.0501 9.85514V15.8992C42.0501 16.6721 42.8382 17.2702 44.3696 17.6213C45.4204 17.8669 46.6455 17.9743 48.0468 17.9743H55.3564C56.4907 17.9745 57.6214 17.8444 58.726 17.5865C60.1709 17.2001 60.9148 16.6374 60.9148 15.8992ZM65.4666 15.8992C65.4666 17.7975 64.3286 19.1672 62.0085 20.0121C60.39 20.6802 58.2006 21.0313 55.4871 21.0313H48.0032C45.5082 21.0313 43.2759 20.6796 41.262 20.0121C38.7676 19.1331 37.5419 17.7621 37.5419 15.8992V9.85514C37.5419 8.0276 38.7676 6.62315 41.2191 5.67465C43.0574 4.93517 45.2884 4.58469 47.9597 4.58469H55.4871C62.1399 4.58469 65.4666 6.30677 65.4666 9.82104V15.8992ZM120.023 6.27015C120.023 7.18329 119.323 7.64112 118.01 7.64112C117.835 7.64112 117.572 7.64112 117.223 7.6045H116.391C112.932 7.6045 111.225 8.27325 111.225 9.67896V19.6597C111.225 20.3279 110.875 20.7491 110.264 20.9252C110 20.9953 109.345 21.0307 108.295 21.0307C107.244 21.0307 106.718 20.5729 106.718 19.6597V9.67959C106.718 7.5003 108.075 6.05986 110.834 5.28691C112.498 4.79435 114.992 4.58406 118.32 4.58406C119.456 4.58406 120.023 5.14546 120.023 6.27015ZM146.513 15.8992V9.5735C146.513 8.27325 144.674 7.60513 140.955 7.60513H133.6C132.243 7.60513 131.019 7.74658 129.924 8.0276C128.392 8.4507 127.648 9.04746 127.648 9.85514V15.8992C127.648 16.6721 128.436 17.2702 129.967 17.6213C131.019 17.8669 132.243 17.9743 133.641 17.9743H140.952C142.134 17.9743 143.271 17.8328 144.321 17.5865C145.768 17.2001 146.513 16.6374 146.513 15.8992ZM151.064 15.8992C151.064 17.7975 149.926 19.1672 147.607 20.0121C145.988 20.6802 143.798 21.0313 141.086 21.0313H133.6C131.105 21.0313 128.874 20.6796 126.861 20.0121C124.365 19.1331 123.139 17.7621 123.139 15.8992V9.85514C123.139 8.0276 124.363 6.62315 126.814 5.67465C128.654 4.93517 130.885 4.58469 133.556 4.58469H141.083C147.735 4.58469 151.063 6.30677 151.063 9.82104V15.8992H151.064ZM97.9014 7.80405V4.95664C97.9014 3.76185 95.839 3.12846 91.7172 3.12846H74.9169V10.3698H91.7172C95.8396 10.3698 97.9014 9.49077 97.9014 7.80405ZM102.638 7.94424C102.638 10.0181 101.323 11.5292 98.735 12.4803C96.7174 13.1471 94.3025 13.4635 91.4545 13.4635H74.9169V19.5814C74.9169 20.2483 74.61 20.6695 73.9072 20.845C73.7329 20.9151 73.0306 20.9511 71.8453 20.9511C70.749 20.9511 70.1782 20.4939 70.1782 19.5808V1.37228C70.1782 0.491971 70.7478 0.0354004 71.8453 0.0354004H91.6717C94.3474 0.0354004 96.6283 0.35178 98.5133 0.915073C101.277 1.75749 102.636 3.023 102.636 4.67626V7.94424H102.638ZM52.0378 33.2116C51.837 34.054 51.9924 35.0404 52.1913 35.4086C52.3896 35.7748 53.0375 36.1026 53.5294 36.1026C54.0346 36.1026 54.7533 35.8639 55.1158 35.5058C55.4795 35.1471 55.9828 34.2864 56.2051 33.3537C56.3945 32.5687 56.2524 31.8217 56.051 31.4586C55.8477 31.0974 55.2439 30.6124 54.7457 30.6124C54.2721 30.6124 53.5067 30.8302 53.1303 31.1978C52.7565 31.564 52.2418 32.3629 52.0378 33.2116ZM49.8756 33.2842C50.2027 31.9234 51.0312 30.7961 51.9052 30.039C52.7811 29.2806 53.9033 29.1284 55.1391 29.1284C56.4072 29.1284 57.3348 29.6475 57.8432 30.3945C58.3503 31.1384 58.6288 32.1545 58.3067 33.4964C58.1068 34.3501 57.7403 35.156 57.2281 35.8677C56.7791 36.491 56.1621 36.8831 55.513 37.2311C54.8625 37.579 54.0896 37.658 53.2434 37.658C52.3839 37.658 51.7082 37.5089 51.2163 37.2077C50.7256 36.9077 50.1573 36.4348 49.9621 35.785C49.7683 35.137 49.6413 34.2593 49.8756 33.2842ZM41.226 37.4079L43.0271 29.2566L46.7649 29.2698C46.8451 29.2698 49.5188 29.1334 49.3875 31.3967C49.2934 33.043 48.5703 33.2274 47.1185 33.9928C47.8491 35.2078 48.1011 35.8614 49.0667 37.4073H46.6329C46.3632 36.6349 45.2026 34.4512 45.1962 34.4512L43.9364 34.4373L43.2961 37.4199L41.226 37.4079ZM44.3406 32.9691H45.7741C47.104 32.9691 47.7367 30.8827 46.355 30.8612L44.8552 30.8328L44.3406 32.9691ZM35.9688 29.2831L41.8386 29.3102L41.531 30.8107L37.7414 30.8372L37.3979 32.2827L40.928 32.2959L40.5983 33.8501H36.9881L36.5675 35.9182L40.3116 35.8525L40.0849 37.4332L34.1419 37.3668L35.9688 29.2831ZM27.1683 29.2566L29.3091 29.2698L28.5816 32.241L31.662 32.3212L32.3226 29.2831L34.4482 29.3102L32.5929 37.4079L30.4818 37.4205L31.2914 33.8614L28.2103 33.8355L27.3603 37.4205L25.2593 37.4079L27.1683 29.2566ZM58.373 37.3965H60.3193L60.856 35.2747H58.9098L58.373 37.3965Z" fill="#DCDCDC"/>
<path d="M66.1777 26.1665H84.2233V39.9647H66.1777V26.1665ZM87.9447 26.1665H105.99V39.9647H87.9447V26.1665Z" fill="#DCDCDC"/>
<path d="M109.854 26.1653H127.897V39.9622H109.854V26.1653Z" fill="#DCDCDC"/>
<path d="M132.224 26.1665H150.269V39.9647H132.224V26.1665Z" fill="#DCDCDC" stroke="black" stroke-width="0.315747" stroke-miterlimit="10"/>
<path d="M17.752 33.7015H19.1495C19.1343 33.2209 19.4772 32.9778 20.1668 32.9803C20.7377 32.9923 21.0566 33.1754 21.1223 33.5202C21.1223 33.9654 21.1311 34.3835 21.1406 34.8003C20.8343 34.4422 20.2628 34.2351 19.4286 34.1782C18.1082 34.302 17.4703 34.9114 17.519 36.0096C17.5663 36.9694 18.2521 37.4791 19.5726 37.5334C20.2666 37.5649 20.7952 37.3591 21.1665 36.8937C21.1766 37.0945 21.1766 37.277 21.1766 37.4601H22.4642C22.4743 36.0677 22.4743 34.6847 22.4743 33.3017C22.1497 32.5799 21.606 32.196 20.852 32.1486C20.1883 32.1309 19.5341 32.1309 18.8792 32.1309C18.0621 32.3608 17.6958 32.8811 17.752 33.7015ZM11.7496 32.0975H13.0745C14.0596 32.0975 14.8654 32.8925 14.8654 33.8612V34.9701H11.283C11.132 36.062 11.413 36.5899 12.109 36.5602C12.3634 36.5457 12.6331 36.5457 12.904 36.5457C13.3656 36.5874 13.5835 36.3373 13.574 35.7349H14.8667V35.7664C14.8667 36.7358 14.0603 37.5296 13.0758 37.5296H11.7515C10.7658 37.5296 9.95998 36.7358 9.95998 35.7664V33.8625C9.95808 32.8919 10.7639 32.0975 11.7496 32.0975ZM3.52441 29.8828V37.4026H7.88615C9.06957 37.4816 9.67138 36.8154 9.69286 35.4229C9.74527 34.4498 9.3449 33.8145 8.47849 33.5341C9.15861 33.404 9.52298 32.8319 9.55393 31.8038C9.48067 30.5825 8.80624 29.9359 7.52872 29.8538C6.17732 29.8582 4.82782 29.8626 3.52441 29.8828Z" fill="#DCDCDC"/>
<path d="M4.97266 31.1481V33.0666C5.72477 33.0514 6.43267 33.0514 7.13805 33.0514C7.75123 33.0615 8.04614 32.7533 8.04109 32.1471C8.01015 31.5958 7.7506 31.2775 7.26309 31.179C6.49948 31.1847 5.73583 31.1744 4.97266 31.1481ZM4.97266 34.1426V36.2316C5.77781 36.2165 6.53497 36.2165 7.29087 36.2165C7.94763 36.2285 8.26464 35.8938 8.25896 35.2307C8.22549 34.6314 7.94763 34.2847 7.42412 34.1767C6.60682 34.1816 5.7895 34.1703 4.97266 34.1426ZM13.5724 34.2355C13.6399 33.4202 13.2819 33.0299 12.4818 33.0527C11.5932 33.0463 11.1935 33.4467 11.2826 34.2519C12.0455 34.2237 12.8091 34.2182 13.5724 34.2355ZM21.1402 35.6222C20.8806 35.1631 20.311 35.0084 19.4301 35.1656C18.942 35.3785 18.7544 35.7024 18.8681 36.1413C18.995 36.6939 19.5867 36.8543 20.6527 36.5954C21.0404 36.44 21.2021 36.1192 21.1402 35.6222ZM153.49 19.1737C153.746 19.1689 154 19.2151 154.237 19.3096C154.474 19.404 154.691 19.5448 154.873 19.7238C155.055 19.9028 155.2 20.1163 155.299 20.3519C155.398 20.5874 155.449 20.8404 155.449 21.0959C155.45 21.3515 155.399 21.6045 155.3 21.8401C155.201 22.0758 155.057 22.2895 154.874 22.4686C154.692 22.6477 154.476 22.7888 154.239 22.8835C154.001 22.9782 153.748 23.0246 153.492 23.0201C152.988 23.0112 152.508 22.8048 152.154 22.4453C151.801 22.0858 151.603 21.6019 151.602 21.0978C151.602 20.5937 151.8 20.1096 152.153 19.7498C152.506 19.3899 152.986 19.1831 153.49 19.1737Z" fill="#171818"/>
<path d="M153.491 19.457C153.926 19.4574 154.343 19.6302 154.651 19.9375C154.958 20.2448 155.131 20.6616 155.132 21.0964C155.131 21.5311 154.958 21.9479 154.651 22.255C154.343 22.5622 153.926 22.7347 153.491 22.7345C153.065 22.7226 152.659 22.5448 152.362 22.2388C152.064 21.9327 151.897 21.5227 151.897 21.0958C151.897 20.6689 152.064 20.2588 152.362 19.9528C152.659 19.6467 153.065 19.4689 153.491 19.457Z" fill="#DCDCDC" stroke="black" stroke-width="0.189448" stroke-miterlimit="10"/>
<path d="M152.838 21.8964V20.0784H153.648C153.811 20.0784 153.934 20.0923 154.017 20.1257C154.103 20.1592 154.168 20.2167 154.223 20.2994C154.273 20.3816 154.298 20.4761 154.297 20.5722C154.3 20.6938 154.256 20.8118 154.172 20.9006C154.089 20.9896 153.958 21.0433 153.783 21.0692C153.848 21.0989 153.896 21.1298 153.928 21.1601C153.999 21.2252 154.067 21.306 154.129 21.4026L154.448 21.8971H154.144L153.903 21.5163C153.848 21.4312 153.79 21.3482 153.728 21.2675C153.694 21.2201 153.653 21.1785 153.605 21.1443C153.572 21.1222 153.534 21.1062 153.495 21.097C153.45 21.0911 153.405 21.0886 153.36 21.0894H153.08V21.8958L152.838 21.8964Z" fill="black"/>
<path d="M153.079 20.8791H153.599C153.687 20.8829 153.775 20.8714 153.859 20.845C153.917 20.8253 153.967 20.7874 154.002 20.737C154.033 20.6876 154.049 20.63 154.048 20.5715C154.05 20.5317 154.042 20.4921 154.026 20.4556C154.01 20.4191 153.986 20.3866 153.956 20.3606C153.893 20.305 153.795 20.2766 153.658 20.2766H153.079V20.8791Z" fill="#DCDCDC"/>
</svg>
