<svg width="155" height="38" viewBox="0 0 155 38" fill="none" xmlns="http://www.w3.org/2000/svg">
<path d="M0.191406 1.27749V36.3109H7.26062V7.96364H10.5911C10.5911 7.96364 15.7903 7.7296 15.7903 12.4625C15.7903 17.1954 11.1744 17.0775 11.1744 17.0775H9.47989V25.1414L16.5505 36.3118H24.8457L14.9725 21.9873C14.9725 21.9873 23.0936 21.2861 23.0936 12.4634C23.0936 3.64212 16.9587 1.27886 8.78005 1.27886L0.191406 1.27749ZM103.547 17.664C103.547 17.664 106.642 15.2559 106.642 10.6926C106.642 6.12697 103.326 2.01115 96.266 2.01115H84.4414V36.3113H99.0059C99.0059 36.3113 109.445 36.193 109.445 26.7596C109.445 21.2834 107.319 19.1862 103.547 17.664ZM97.8498 30.3415H91.5116V7.99198H94.8992C94.8992 7.99198 99.5032 7.64641 99.5032 11.663C99.5032 15.6797 95.8408 15.3254 95.8408 15.3254H93.7313V21.3465H97.8485C98.9277 21.3465 102.366 21.8699 102.366 25.8266C102.366 29.7824 97.8498 30.3415 97.8498 30.3415ZM148.125 0.588623H154.728V36.3113H148.125V0.588623ZM136.762 0.588623H143.452V36.3113H136.762V0.588623ZM111.435 15.3848H118.211V27.3611C118.211 27.3611 118.447 31.3942 122.243 31.3942C126.039 31.3942 125.983 27.3611 125.983 27.3611V15.4415H132.817V27.7716C132.817 27.7716 133.695 37.4116 122.418 37.4116C111.142 37.4116 111.435 28.94 111.435 27.421V15.3848ZM66.5058 0.588623V16.7877C66.5058 16.7877 63.2338 14.2759 59.4923 14.2759C55.7545 14.2759 49.4446 16.9047 49.4446 25.2004C49.4446 33.4965 54.8202 36.6533 59.4352 36.6533C64.0516 36.6533 66.6223 33.6144 66.6223 33.6144V36.3123H73.2815V0.58908L66.5058 0.588623ZM61.3633 30.8082C61.0122 30.8082 56.6304 30.8672 56.6304 25.4925C56.6304 20.1164 61.4209 19.9413 61.4209 19.9413C61.4209 19.9413 66.797 20.1164 66.797 25.375C66.797 30.6336 61.7134 30.8082 61.3633 30.8082ZM36.123 14.275C47.4575 14.275 46.9899 25.3178 46.9899 25.3178V27.0695H31.6246C31.6246 29.5809 33.7273 31.7434 36.5906 31.7434C39.4531 31.7434 40.914 28.9976 40.914 28.9976L46.3468 31.6845C43.8349 35.4835 40.4464 37.0011 36.6492 37.0011C24.8466 37.0011 24.613 27.1865 24.613 25.9601C24.613 24.7323 24.7894 14.275 36.123 14.275ZM31.7407 23.0373H40.1552C40.1552 23.0373 39.8046 19.0659 36.0069 19.0659C32.2092 19.0655 31.7407 23.0373 31.7407 23.0373Z" fill="#DCDCDC"/>
</svg>
