<svg width="155" height="46" viewBox="0 0 155 46" fill="none" xmlns="http://www.w3.org/2000/svg">
<path d="M151.749 27.4413C151.661 27.8818 151.507 28.2562 151.298 28.5864C151.089 28.9163 150.813 29.181 150.462 29.3898C150.12 29.5883 149.691 29.6979 149.185 29.6979C148.689 29.6979 148.26 29.5991 147.919 29.3898C147.578 29.1906 147.288 28.9157 147.071 28.5864C146.862 28.2565 146.708 27.8818 146.609 27.4413C146.512 27.0041 146.464 26.5574 146.466 26.1095C146.466 25.6472 146.51 25.1847 146.598 24.7559C146.686 24.3154 146.84 23.9302 147.049 23.6C147.258 23.2583 147.534 22.9945 147.885 22.7746C148.227 22.5652 148.656 22.4552 149.163 22.4552C149.658 22.4552 150.076 22.5652 150.417 22.7746C150.759 22.986 151.049 23.2719 151.265 23.6109C151.485 23.952 151.639 24.3481 151.738 24.7777C151.837 25.2179 151.881 25.6581 151.881 26.1095C151.881 26.5609 151.837 27.0011 151.749 27.4413ZM154.677 23.8861C154.468 23.1486 154.16 22.5102 153.742 21.9488C153.312 21.3986 152.784 20.9469 152.145 20.617C151.507 20.2868 150.737 20.1107 149.845 20.1107C149.14 20.1107 148.502 20.2539 147.919 20.5291C147.335 20.8044 146.851 21.2554 146.476 21.8609H146.432V20.4188H143.482V35.6862H146.587V30.3251H146.63C146.996 30.8638 147.497 31.2966 148.084 31.5802C148.678 31.8663 149.317 32.0095 150.021 32.0095C150.847 32.0095 151.573 31.8446 152.2 31.5252C152.806 31.215 153.336 30.7753 153.753 30.2372C154.171 29.6979 154.479 29.0813 154.677 28.377C154.887 27.6724 154.986 26.9464 154.986 26.1865C154.986 25.3832 154.887 24.6127 154.677 23.8749V23.8861ZM139.366 27.4413C139.278 27.8818 139.124 28.2562 138.914 28.5864C138.705 28.9166 138.43 29.181 138.078 29.3898C137.737 29.5883 137.307 29.6979 136.801 29.6979C136.306 29.6979 135.888 29.5991 135.535 29.3898C135.195 29.1904 134.905 28.9155 134.687 28.5864C134.479 28.2565 134.324 27.8818 134.226 27.4413C134.128 27.0041 134.08 26.5574 134.082 26.1095C134.082 25.6472 134.126 25.1847 134.214 24.7559C134.303 24.3154 134.456 23.9302 134.666 23.6C134.875 23.2583 135.15 22.9945 135.502 22.7746C135.843 22.5652 136.273 22.4552 136.779 22.4552C137.275 22.4552 137.692 22.5652 138.034 22.7746C138.376 22.986 138.665 23.2719 138.881 23.6109C139.102 23.952 139.256 24.3481 139.355 24.7777C139.454 25.2179 139.498 25.6581 139.498 26.1095C139.498 26.5609 139.454 27.0011 139.366 27.4413ZM141.358 21.9488C140.94 21.3986 140.4 20.9469 139.762 20.617C139.124 20.2868 138.353 20.1107 137.461 20.1107C136.757 20.1107 136.119 20.2539 135.535 20.5291C134.952 20.8044 134.467 21.2554 134.093 21.8609H134.049V20.4188H131.099V35.6862H134.203V30.3251H134.247C134.613 30.8638 135.114 31.2966 135.7 31.5802C136.294 31.8663 136.933 32.0095 137.637 32.0095C138.474 32.0095 139.189 31.8446 139.817 31.5252C140.423 31.2148 140.952 30.7751 141.369 30.2372C141.787 29.6979 142.096 29.0813 142.305 28.377C142.508 27.6645 142.612 26.9274 142.613 26.1865C142.613 25.3832 142.514 24.6127 142.305 23.8749C142.096 23.1377 141.787 22.499 141.358 21.938V21.9488ZM120.928 25.6913L122.964 19.9563H123.008L124.979 25.6913H120.928ZM121.258 16.1038L115.347 31.7231H118.803L120.025 28.245H125.87L127.048 31.7231H130.614L124.77 16.1038H121.247H121.258ZM115.094 26.77C114.884 26.4177 114.62 26.1095 114.279 25.8675C113.949 25.6255 113.563 25.4378 113.134 25.2841C112.699 25.1412 112.258 25.0164 111.813 24.91C111.373 24.8106 110.944 24.7115 110.525 24.6236C110.107 24.5357 109.721 24.4363 109.402 24.3263C109.072 24.2163 108.808 24.0734 108.61 23.897C108.401 23.7208 108.302 23.5009 108.302 23.2148C108.302 22.9836 108.357 22.7963 108.478 22.6531C108.599 22.5102 108.742 22.4111 108.907 22.334C109.072 22.257 109.259 22.2129 109.469 22.1911C109.659 22.1701 109.85 22.1591 110.041 22.1582C110.591 22.1582 111.076 22.2682 111.483 22.4773C111.89 22.6863 112.122 23.0936 112.155 23.6879H115.105C115.049 22.9833 114.863 22.4111 114.565 21.9485C114.268 21.4859 113.894 21.1231 113.443 20.8478C112.991 20.5726 112.474 20.3747 111.901 20.2536C111.329 20.1324 110.735 20.0774 110.118 20.0774C109.502 20.0774 108.908 20.1327 108.324 20.2424C107.741 20.3523 107.213 20.5397 106.75 20.8149C106.277 21.0902 105.903 21.4536 105.628 21.9156C105.341 22.3778 105.198 22.9836 105.198 23.7096C105.198 24.2051 105.297 24.6233 105.506 24.9644C105.705 25.3061 105.98 25.5919 106.31 25.8231C106.651 26.0433 107.026 26.2307 107.455 26.3736C107.884 26.5165 108.324 26.6379 108.776 26.7367C109.888 26.9678 110.746 27.199 111.374 27.4301C111.99 27.6612 112.298 28.0135 112.298 28.4758C112.298 28.751 112.232 28.9822 112.1 29.1692C111.971 29.3519 111.801 29.5026 111.605 29.6094C111.406 29.7194 111.186 29.7967 110.944 29.8514C110.717 29.9031 110.484 29.929 110.251 29.9284C109.943 29.9284 109.645 29.8958 109.37 29.8185C109.084 29.7414 108.831 29.6308 108.611 29.477C108.391 29.323 108.214 29.1248 108.072 28.8828C107.928 28.6408 107.862 28.3543 107.862 28.0241H104.912C104.945 28.7833 105.111 29.4109 105.43 29.9173C105.738 30.4239 106.145 30.82 106.629 31.1282C107.114 31.4364 107.675 31.6563 108.303 31.7884C108.93 31.9207 109.568 31.9869 110.229 31.9869C110.867 31.9869 111.506 31.9207 112.122 31.7992C112.739 31.6784 113.289 31.4581 113.773 31.15C114.258 30.8418 114.643 30.4345 114.94 29.939C115.237 29.4329 115.391 28.8166 115.391 28.0679C115.391 27.5398 115.293 27.0996 115.083 26.747L115.094 26.77ZM102.248 17.0286H99.1435V20.4188H97.2609V22.499H99.1435V29.1698C99.1435 29.7424 99.2423 30.1937 99.4296 30.5457C99.6169 30.8983 99.881 31.1621 100.211 31.3606C100.541 31.5476 100.916 31.6796 101.345 31.7458C101.797 31.813 102.253 31.8461 102.71 31.8446C103.018 31.8446 103.327 31.8337 103.657 31.8228C103.948 31.813 104.239 31.7835 104.526 31.7346V29.3239C104.374 29.3582 104.22 29.3802 104.064 29.3898C103.896 29.4029 103.727 29.4103 103.558 29.4118C103.03 29.4118 102.688 29.3239 102.512 29.1474C102.336 28.9716 102.248 28.619 102.248 28.1021V22.499H104.526V20.4188H102.248V17.0286H102.248ZM93.3422 27.3534C93.3422 27.5292 93.3205 27.7607 93.2872 28.058C93.2502 28.362 93.1488 28.6547 92.9899 28.9166C92.825 29.203 92.5827 29.4451 92.2416 29.6544C91.9116 29.8632 91.427 29.9626 90.8218 29.9626C90.5795 29.9626 90.3372 29.9402 90.0952 29.8964C89.8641 29.852 89.655 29.775 89.4789 29.6653C89.3027 29.555 89.1707 29.4121 89.0604 29.2139C88.9616 29.0269 88.9063 28.7958 88.9063 28.5093C88.9063 28.212 88.9616 27.9809 89.0604 27.783C89.1595 27.5954 89.3024 27.4413 89.468 27.3096C89.633 27.1884 89.8312 27.0896 90.0623 27.0126C90.2934 26.9355 90.5137 26.8802 90.7557 26.8361C91.0042 26.7934 91.2537 26.7567 91.5041 26.7262C91.7572 26.6932 91.9887 26.66 92.2198 26.6162C92.451 26.5724 92.66 26.5171 92.8582 26.4512C93.0564 26.3854 93.2214 26.2971 93.3537 26.176V27.3319L93.3422 27.3534ZM96.4463 29.2136V23.3244C96.4463 22.6422 96.2923 22.0917 95.9844 21.6736C95.6762 21.2551 95.2795 20.9361 94.8064 20.7049C94.3221 20.4738 93.7936 20.3197 93.2102 20.2318C92.6375 20.1535 92.0603 20.1131 91.4823 20.1107C90.8545 20.1107 90.2272 20.1768 89.6109 20.298C88.9949 20.4191 88.4332 20.6279 87.9377 20.9255C87.4499 21.2157 87.0326 21.6105 86.7159 22.0815C86.3968 22.5658 86.2095 23.171 86.1657 23.8976H89.2698C89.3248 23.2816 89.5339 22.8522 89.8858 22.5879C90.2384 22.3235 90.7116 22.1918 91.3282 22.1918C91.6035 22.1918 91.8672 22.2135 92.1098 22.2467C92.3353 22.2764 92.5525 22.3513 92.7482 22.467C92.9356 22.577 93.0785 22.7311 93.1888 22.9293C93.2987 23.1275 93.3537 23.3912 93.3537 23.7326C93.3646 24.0517 93.2767 24.2943 93.0673 24.4701C92.8582 24.6351 92.583 24.7674 92.231 24.8554C91.879 24.9433 91.4826 25.0094 91.0312 25.0536C90.5798 25.0977 90.1176 25.1527 89.6553 25.2297C89.1931 25.3067 88.7305 25.4055 88.2682 25.5267C87.806 25.6479 87.3984 25.8349 87.0461 26.0884C86.6829 26.3412 86.3968 26.6715 86.1657 27.0788C85.9345 27.4972 85.8243 28.0256 85.8243 28.6641C85.8243 29.2475 85.9231 29.7538 86.1216 30.172C86.3074 30.5797 86.5864 30.938 86.9361 31.218C87.2996 31.5006 87.7146 31.71 88.1579 31.8343C88.6202 31.9664 89.1266 32.0322 89.6659 32.0322C90.3705 32.0322 91.053 31.9334 91.7243 31.7241C92.3883 31.5214 92.9904 31.1542 93.4746 30.6566C93.4855 30.8436 93.5187 31.0303 93.5516 31.218C93.5845 31.3938 93.6395 31.5811 93.6948 31.7573H96.8431C96.6998 31.5262 96.5899 31.1736 96.5349 30.7113C96.4766 30.2255 96.4472 29.7367 96.4467 29.2475V29.2136H96.4463ZM83.6559 21.3983C83.3477 21.0022 82.9292 20.6829 82.4011 20.4626C81.8727 20.2315 81.1905 20.1212 80.3535 20.1212C79.7701 20.1212 79.1758 20.2753 78.5595 20.5726C77.9431 20.8699 77.4476 21.3542 77.0515 22.0035H76.9854V16.1146H73.8813V31.7343H76.9854V25.8013C76.9854 24.6454 77.1727 23.8199 77.5579 23.3136C77.9323 22.8072 78.5486 22.5652 79.3961 22.5652C80.1336 22.5652 80.662 22.7963 80.9481 23.2583C81.2346 23.7205 81.3887 24.4142 81.3887 25.3496V31.7343H84.4928V24.7777C84.4928 24.0731 84.4266 23.435 84.3054 22.8625C84.1843 22.2899 83.964 21.7947 83.6559 21.3983ZM67.2434 26.8802H67.1993L64.5357 16.1149H61.3213L58.6132 26.7482H58.5691L56.0922 16.1149H52.6582L56.7968 31.7346H60.2753L62.873 21.101H62.9171L65.559 31.7346H68.9713L70.8424 24.7998L73.1761 16.1149H69.8076L67.2434 26.8802Z" fill="#DCDCDC"/>
<path d="M23.5434 41.1351C19.7456 41.1351 16.2012 39.9903 13.2403 38.0422L6.0411 40.3423L8.37478 33.3857C6.12933 30.3033 4.80871 26.5058 4.80871 22.411C4.80871 12.0859 13.2074 3.68721 23.5325 3.68721C33.8576 3.68721 42.2563 12.0859 42.2563 22.411C42.2563 32.7358 33.8576 41.1348 23.5325 41.1348H23.5434V41.1351ZM23.5434 0.142578C11.2474 0.142578 1.27495 10.116 1.27495 22.4113C1.27495 26.6161 2.44179 30.5568 4.46698 33.9141L0.449219 45.8574L12.7781 41.9058C16.0734 43.728 19.7778 44.6825 23.5434 44.6797C35.839 44.6797 45.8118 34.7069 45.8118 22.4113C45.8115 10.116 35.839 0.142578 23.5434 0.142578Z" fill="#DCDCDC"/>
<path d="M18.3148 13.198C17.9517 12.3285 17.6764 12.2956 17.1262 12.2732C16.9173 12.2598 16.7081 12.2525 16.4987 12.2515C15.783 12.2515 15.0346 12.4605 14.5832 12.9228C14.033 13.4842 12.668 14.7939 12.668 17.4799C12.668 20.1658 14.6273 22.7636 14.8914 23.127C15.1666 23.4899 18.7112 29.0818 24.2149 31.3608C28.5188 33.144 29.7959 32.9787 30.7754 32.7696C32.2063 32.4614 34.0007 31.4043 34.4521 30.1278C34.9035 28.8506 34.9035 27.7609 34.7711 27.5297C34.6391 27.2986 34.2756 27.1669 33.7254 26.8913C33.1753 26.6161 30.5002 25.2951 29.9938 25.119C29.4983 24.932 29.0251 24.9982 28.6511 25.5266C28.1227 26.2641 27.6054 27.0128 27.187 27.4639C26.8567 27.8161 26.3171 27.8603 25.866 27.6729C25.2606 27.4201 23.5656 26.8251 21.4739 24.9649C19.8557 23.5231 18.755 21.7291 18.436 21.1898C18.1166 20.6396 18.4031 20.3199 18.6559 20.0229C18.9312 19.6815 19.1952 19.4395 19.4705 19.1202C19.7457 18.8011 19.8998 18.6358 20.076 18.2615C20.2633 17.8983 20.131 17.524 19.9989 17.2487C19.8669 16.9735 18.7662 14.2875 18.3148 13.198Z" fill="#DCDCDC"/>
</svg>
