<svg width="120" height="30" viewBox="0 0 120 30" fill="none" xmlns="http://www.w3.org/2000/svg">
<path d="M0.986328 0.939905L7.17464 19.836V29.0657H13.2803V19.836L19.1196 0.939905H13.6003L10.1328 13.2191L6.76478 0.939905H0.986328ZM39.0991 0.939905V29.0658H44.1776V10.8255L47.0882 29.0658H50.9229L53.8274 10.8255V29.0658H59.0013V0.939947H51.2466L49.0345 14.3194L46.9031 0.939947L39.0991 0.939905ZM82.5584 0.939905V29.0658H88.2191V17.2116H93.0409V29.0658H98.5668V0.939947H93.0409V12.1291H88.2191V0.939905H82.5584ZM106.609 0.934326L101.718 29.0648H107.239L108.327 22.1932H112.557L113.624 29.0648H119.192L114.299 0.934326H106.609ZM110.488 7.10334L111.928 17.28H108.989L110.488 7.10334ZM66.9638 0.934326L62.0725 29.0648H67.5932L68.6818 22.1932H72.9126L73.9783 29.0648H79.5473L74.6545 0.934326H66.9638ZM70.8432 7.10334L72.2827 17.28H69.3433L70.8432 7.10334ZM23.5275 0.934326L18.6357 29.0648H24.1565L25.2445 22.1932H29.4754L30.5411 29.0648H36.11L31.2177 0.934326H23.5275ZM27.4063 7.10334L28.8464 17.28H25.9064L27.4063 7.10334Z" fill="#DCDCDC"/>
</svg>
