<svg width="80" height="81" viewBox="0 0 80 81" fill="none" xmlns="http://www.w3.org/2000/svg">
<rect y="0.750122" width="80" height="80" rx="16" fill="#FF8426" fill-opacity="0.05"/>
<path fill-rule="evenodd" clip-rule="evenodd" d="M40.5941 32.0697C41.2108 31.6977 42.2843 31.1614 43.3139 31.8057C44.368 32.4653 44.3126 33.6845 44.2219 34.3897C44.1192 35.1882 43.8358 36.2459 43.503 37.4876L43.411 37.831C43.3459 38.074 43.2946 38.2655 43.2548 38.4313C43.2346 38.5154 43.2193 38.585 43.2078 38.6431C43.3931 38.7114 43.6646 38.7888 44.1019 38.906L44.1858 38.9285C45.0066 39.1483 45.7475 39.3468 46.2949 39.5787C46.8383 39.8089 47.5779 40.2283 47.8172 41.1136L47.8207 41.1265L47.8245 41.1407L47.8278 41.154L47.831 41.1672L47.8341 41.1805L47.837 41.1939L47.84 41.2084L47.8427 41.2217C48.0261 42.1326 47.5373 42.8363 47.1347 43.2791C46.7194 43.7359 46.1032 44.2314 45.4241 44.7722L41.9917 47.5055C40.9694 48.3197 40.1034 49.0094 39.4051 49.4306C38.7885 49.8026 37.715 50.3389 36.6854 49.6946C35.6313 49.0349 35.6867 47.8158 35.7774 47.1105C35.8801 46.3121 36.1636 45.2543 36.4964 44.0126L36.5883 43.6694C36.6535 43.4264 36.7047 43.2348 36.7445 43.0691C36.7626 42.9939 36.7768 42.9303 36.7877 42.8762C36.6021 42.7982 36.3237 42.7085 35.8974 42.5943C35.0337 42.3629 34.2596 42.1513 33.6863 41.8999C33.1392 41.66 32.4112 41.2304 32.1747 40.3554L32.1712 40.3426L32.1675 40.3285L32.1642 40.3152L32.161 40.302L32.158 40.2888L32.155 40.2755L32.152 40.2611L32.1494 40.2478C31.9636 39.3254 32.4687 38.6256 32.8723 38.1935C33.2713 37.7662 33.861 37.2967 34.5045 36.7844L38.0076 33.9948C39.0299 33.1806 39.8959 32.4909 40.5941 32.0697ZM39.491 36.0094C40.487 35.2162 41.1813 34.666 41.7036 34.3249C41.6 34.9221 41.3801 35.7509 41.063 36.9346L40.9795 37.2461C40.8662 37.6683 40.7506 38.0994 40.7039 38.4725C40.6498 38.9042 40.6614 39.4335 40.9682 39.9536L40.975 39.9651L40.982 39.9764C41.2909 40.4754 41.7432 40.7409 42.1401 40.9087C42.5156 41.0674 42.9806 41.1938 43.4549 41.3209C44.2123 41.5238 44.7284 41.6641 45.0917 41.7928C44.828 42.0428 44.4367 42.3627 43.8668 42.8165L40.5084 45.4909C39.5123 46.2841 38.8181 46.8343 38.2957 47.1754C38.3993 46.5782 38.6192 45.7494 38.9364 44.5657L39.0198 44.2543C39.1331 43.8321 39.2487 43.401 39.2955 43.0279C39.3495 42.5962 39.338 42.0669 39.0312 41.5467L39.0265 41.5493C38.7313 41.0958 38.3073 40.8249 37.9191 40.6436C37.5244 40.4592 37.0504 40.3151 36.5444 40.1795C35.7872 39.9766 35.2681 39.8305 34.9059 39.6967C35.1726 39.4508 35.5635 39.137 36.1326 38.6838L39.491 36.0094Z" fill="#FF8426"/>
<path fill-rule="evenodd" clip-rule="evenodd" d="M39.9997 22.8335C30.1046 22.8335 22.083 30.8551 22.083 40.7502C22.083 50.6453 30.1046 58.6668 39.9997 58.6668C49.8948 58.6668 57.9163 50.6453 57.9163 40.7502C57.9163 30.8551 49.8948 22.8335 39.9997 22.8335ZM24.583 40.7502C24.583 32.2358 31.4853 25.3335 39.9997 25.3335C48.5141 25.3335 55.4163 32.2358 55.4163 40.7502C55.4163 49.2646 48.5141 56.1668 39.9997 56.1668C31.4853 56.1668 24.583 49.2646 24.583 40.7502Z" fill="#FF8426"/>
</svg>
