<svg width="80" height="81" viewBox="0 0 80 81" fill="none" xmlns="http://www.w3.org/2000/svg">
<rect y="0.750122" width="80" height="80" rx="16" fill="#2679FF" fill-opacity="0.05"/>
<path fill-rule="evenodd" clip-rule="evenodd" d="M25.417 30.7502C25.417 28.1807 27.4675 26.191 30.0132 24.9181C32.6337 23.6078 36.1664 22.8335 40.0003 22.8335C43.8342 22.8335 47.3669 23.6078 49.9874 24.9181C52.5332 26.191 54.5837 28.1807 54.5837 30.7502V50.7502C54.5837 53.3196 52.5332 55.3094 49.9874 56.5822C47.3669 57.8925 43.8342 58.6668 40.0003 58.6668C36.1664 58.6668 32.6337 57.8925 30.0132 56.5822C27.4675 55.3094 25.417 53.3196 25.417 50.7502V30.7502ZM27.917 30.7502C27.917 29.6377 28.8513 28.2941 31.1313 27.1542C33.3365 26.0515 36.4704 25.3335 40.0003 25.3335C43.5302 25.3335 46.6642 26.0515 48.8694 27.1542C51.1494 28.2941 52.0837 29.6377 52.0837 30.7502C52.0837 31.8626 51.1494 33.2062 48.8694 34.3462C46.6642 35.4488 43.5302 36.1668 40.0003 36.1668C36.4704 36.1668 33.3365 35.4488 31.1313 34.3462C28.8513 33.2062 27.917 31.8626 27.917 30.7502ZM27.917 50.7502C27.917 51.8626 28.8513 53.2062 31.1313 54.3462C33.3365 55.4488 36.4704 56.1668 40.0003 56.1668C43.5302 56.1668 46.6642 55.4488 48.8694 54.3462C51.1494 53.2062 52.0837 51.8626 52.0837 50.7502V45.2622C51.4557 45.763 50.7434 46.2042 49.9874 46.5822C47.3669 47.8925 43.8342 48.6668 40.0003 48.6668C36.1664 48.6668 32.6337 47.8925 30.0132 46.5822C29.2572 46.2042 28.5449 45.763 27.917 45.2622V50.7502ZM52.0837 35.2622V40.7502C52.0837 41.8626 51.1494 43.2062 48.8694 44.3462C46.6642 45.4488 43.5302 46.1668 40.0003 46.1668C36.4704 46.1668 33.3365 45.4488 31.1313 44.3462C28.8513 43.2062 27.917 41.8626 27.917 40.7502V35.2622C28.5449 35.763 29.2572 36.2042 30.0132 36.5822C32.6337 37.8925 36.1664 38.6668 40.0003 38.6668C43.8342 38.6668 47.3669 37.8925 49.9874 36.5822C50.7434 36.2042 51.4557 35.763 52.0837 35.2622Z" fill="#2679FF"/>
</svg>
