<svg width="80" height="81" viewBox="0 0 80 81" fill="none" xmlns="http://www.w3.org/2000/svg">
<rect y="0.750122" width="80" height="80" rx="16" fill="#B349F0" fill-opacity="0.05"/>
<path fill-rule="evenodd" clip-rule="evenodd" d="M48.6762 23.8437C46.9049 23.1459 45.1931 23.6183 43.9813 24.696C42.7994 25.7471 42.083 27.3666 42.083 29.0835V35.7501C42.083 37.361 43.3888 38.6668 44.9997 38.6668H51.6663C53.3832 38.6668 55.0027 37.9504 56.0538 36.7685C57.1315 35.5567 57.6039 33.8449 56.9061 32.0736C55.426 28.3166 52.4332 25.3238 48.6762 23.8437ZM44.583 35.7501V29.0835C44.583 28.0389 45.0245 27.1139 45.6428 26.564C46.2312 26.0407 46.9619 25.8554 47.7599 26.1697C50.8718 27.3957 53.3541 29.878 54.5801 32.9899C54.8944 33.7879 54.7091 34.5186 54.1858 35.107C53.6359 35.7253 52.7109 36.1668 51.6663 36.1668H44.9997C44.7696 36.1668 44.583 35.9802 44.583 35.7501Z" fill="#B349F0"/>
<path fill-rule="evenodd" clip-rule="evenodd" d="M38.3251 25.5334C37.3076 24.8742 36.3233 24.6844 35.2425 24.8728C34.3247 25.0329 33.3422 25.4731 32.2966 25.9417L32.1839 25.9922C31.3142 26.3817 30.4748 26.845 29.6754 27.3792C26.866 29.2563 24.6764 31.9244 23.3834 35.0459C22.0904 38.1675 21.7521 41.6024 22.4113 44.9162C23.0704 48.2301 24.6975 51.274 27.0866 53.6632C29.4758 56.0523 32.5197 57.6794 35.8336 58.3385C39.1474 58.9977 42.5823 58.6594 45.7039 57.3664C48.8254 56.0734 51.4935 53.8838 53.3706 51.0744C53.9048 50.275 54.3681 49.4356 54.7576 48.5658L54.8081 48.4532C55.2767 47.4075 55.7169 46.4251 55.877 45.5073C56.0654 44.4265 55.8756 43.4422 55.2164 42.4247C54.5058 41.3277 53.5328 40.7917 52.3429 40.5488C51.2865 40.3332 49.9663 40.3333 48.4533 40.3334L45.833 40.3334C44.2263 40.3334 43.1471 40.3308 42.342 40.2225C41.5729 40.1191 41.2437 39.9404 41.0265 39.7232C40.8093 39.5061 40.6306 39.1769 40.5272 38.4078C40.419 37.6027 40.4163 36.5235 40.4163 34.9168L40.4164 32.2965C40.4165 30.7835 40.4166 29.4633 40.201 28.4069C39.9581 27.217 39.422 26.244 38.3251 25.5334ZM33.2057 28.2739C34.4044 27.7371 35.0992 27.4355 35.6719 27.3357C36.1146 27.2585 36.4624 27.3054 36.9658 27.6315C37.3897 27.9062 37.6141 28.234 37.7515 28.9069C37.9104 29.6852 37.9163 30.7475 37.9163 32.4168L37.9163 35.0034C37.9163 36.5009 37.9163 37.7496 38.0495 38.7409C38.1902 39.7872 38.4997 40.7319 39.2588 41.491C40.0179 42.2501 40.9626 42.5596 42.0089 42.7003C43.0002 42.8335 44.2489 42.8335 45.7463 42.8334L48.333 42.8334C50.0023 42.8334 51.0646 42.8394 51.8429 42.9983C52.5157 43.1356 52.8436 43.3601 53.1183 43.784C53.4444 44.2874 53.4913 44.6352 53.4141 45.0778C53.3143 45.6506 53.0127 46.3454 52.4759 47.544C52.1434 48.2865 51.7479 49.003 51.2919 49.6855C49.6895 52.0837 47.4119 53.9529 44.7471 55.0567C42.0824 56.1605 39.1502 56.4493 36.3213 55.8866C33.4924 55.3239 30.8939 53.9349 28.8544 51.8954C26.8149 49.8559 25.4259 47.2574 24.8632 44.4285C24.3005 41.5996 24.5893 38.6674 25.6931 36.0026C26.7969 33.3379 28.6661 31.0603 31.0643 29.4578C31.7467 29.0018 32.4633 28.6064 33.2057 28.2739Z" fill="#B349F0"/>
</svg>
