<svg width="80" height="81" viewBox="0 0 80 81" fill="none" xmlns="http://www.w3.org/2000/svg">
<rect y="0.750122" width="80" height="80" rx="16" fill="#258D2E" fill-opacity="0.05"/>
<path d="M38.7497 24.0835C38.7497 23.3931 39.3093 22.8335 39.9997 22.8335C49.8948 22.8335 57.9163 30.8551 57.9163 40.7502C57.9163 50.6453 49.8948 58.6668 39.9997 58.6668C30.1046 58.6668 22.083 50.6453 22.083 40.7502C22.083 35.7384 24.1424 31.2054 27.458 27.9552C27.9509 27.4719 28.7424 27.4797 29.2256 27.9727C29.7089 28.4657 29.701 29.2571 29.2081 29.7404C26.3524 32.5399 24.583 36.4373 24.583 40.7502C24.583 49.2646 31.4853 56.1668 39.9997 56.1668C48.5141 56.1668 55.4163 49.2646 55.4163 40.7502C55.4163 32.2358 48.5141 25.3335 39.9997 25.3335C39.3093 25.3335 38.7497 24.7739 38.7497 24.0835Z" fill="#258D2E"/>
<path d="M38.7497 29.0835C38.7497 28.3931 39.3093 27.8335 39.9997 27.8335C47.1334 27.8335 52.9163 33.6165 52.9163 40.7502C52.9163 47.8838 47.1334 53.6668 39.9997 53.6668C32.866 53.6668 27.083 47.8838 27.083 40.7502C27.083 40.0598 27.6427 39.5002 28.333 39.5002C29.0234 39.5002 29.583 40.0598 29.583 40.7502C29.583 46.5031 34.2467 51.1668 39.9997 51.1668C45.7526 51.1668 50.4163 46.5031 50.4163 40.7502C50.4163 34.9972 45.7526 30.3335 39.9997 30.3335C39.3093 30.3335 38.7497 29.7739 38.7497 29.0835Z" fill="#258D2E"/>
<path d="M39.9997 32.8335C39.3093 32.8335 38.7497 33.3931 38.7497 34.0835C38.7497 34.7739 39.3093 35.3335 39.9997 35.3335C42.9912 35.3335 45.4163 37.7586 45.4163 40.7502C45.4163 43.7417 42.9912 46.1668 39.9997 46.1668C39.3093 46.1668 38.7497 46.7265 38.7497 47.4168C38.7497 48.1072 39.3093 48.6668 39.9997 48.6668C44.3719 48.6668 47.9163 45.1224 47.9163 40.7502C47.9163 36.3779 44.3719 32.8335 39.9997 32.8335Z" fill="#258D2E"/>
</svg>
