<svg width="80" height="81" viewBox="0 0 80 81" fill="none" xmlns="http://www.w3.org/2000/svg">
<rect y="0.750122" width="80" height="80" rx="16" fill="#FF00AA" fill-opacity="0.05"/>
<path d="M49.2933 38.2171C49.7352 37.6867 49.6636 36.8985 49.1332 36.4566C48.6029 36.0146 47.8147 36.0863 47.3727 36.6166L44.3779 40.2104C43.7599 40.952 43.3804 41.4027 43.0678 41.685C42.9228 41.8159 42.8368 41.8681 42.7956 41.888C42.7872 41.8921 42.7812 41.8945 42.7775 41.8959C42.7737 41.8945 42.7677 41.8921 42.7593 41.888C42.7181 41.8681 42.6321 41.8159 42.4871 41.685C42.1745 41.4027 41.795 40.952 41.177 40.2104L40.6897 39.6256C40.1422 38.9685 39.6487 38.3762 39.1877 37.9599C38.6861 37.507 38.0544 37.1036 37.2219 37.1036C36.3894 37.1036 35.7576 37.507 35.2561 37.9599C34.7951 38.3762 34.3016 38.9685 33.7541 39.6256L30.7061 43.2833C30.2641 43.8136 30.3358 44.6018 30.8661 45.0438C31.3965 45.4857 32.1847 45.4141 32.6266 44.8837L35.6214 41.2899C36.2394 40.5484 36.6189 40.0977 36.9316 39.8153C37.0766 39.6844 37.1626 39.6322 37.2038 39.6123C37.2122 39.6082 37.2181 39.6058 37.2219 39.6044C37.2257 39.6058 37.2316 39.6082 37.24 39.6123C37.2812 39.6322 37.3672 39.6844 37.5122 39.8153C37.8249 40.0977 38.2044 40.5484 38.8224 41.2899L39.3097 41.8748C39.8571 42.5318 40.3506 43.1242 40.8116 43.5404C41.3132 43.9934 41.945 44.3967 42.7775 44.3967C43.6099 44.3967 44.2417 43.9934 44.7433 43.5404C45.2043 43.1242 45.6978 42.5318 46.2452 41.8748L49.2933 38.2171Z" fill="#FF00AA"/>
<path fill-rule="evenodd" clip-rule="evenodd" d="M39.904 22.8335C36.0567 22.8335 33.0417 22.8335 30.6892 23.1497C28.2813 23.4735 26.3813 24.149 24.8899 25.6404C23.3986 27.1317 22.723 29.0318 22.3993 31.4397C22.083 33.7921 22.083 36.8072 22.083 40.6545V40.8458C22.083 44.6931 22.083 47.7082 22.3993 50.0607C22.723 52.4685 23.3986 54.3686 24.8899 55.8599C26.3813 57.3513 28.2813 58.0269 30.6892 58.3506C33.0417 58.6669 36.0567 58.6669 39.9041 58.6668H40.0953C43.9426 58.6669 46.9577 58.6669 49.3102 58.3506C51.7181 58.0269 53.6181 57.3513 55.1094 55.8599C56.6008 54.3686 57.2764 52.4685 57.6001 50.0607C57.9164 47.7082 57.9164 44.6931 57.9163 40.8458V40.6545C57.9164 36.8072 57.9164 33.7922 57.6001 31.4397C57.2764 29.0318 56.6008 27.1317 55.1094 25.6404C53.6181 24.149 51.7181 23.4735 49.3102 23.1497C46.9577 22.8335 43.9426 22.8335 40.0953 22.8335H39.904ZM26.6577 27.4082C27.6071 26.4587 28.8916 25.9139 31.0223 25.6274C33.1889 25.3362 36.036 25.3335 39.9997 25.3335C43.9634 25.3335 46.8104 25.3362 48.977 25.6274C51.1077 25.9139 52.3923 26.4587 53.3417 27.4082C54.2911 28.3576 54.8359 29.6421 55.1224 31.7728C55.4137 33.9394 55.4163 36.7865 55.4163 40.7502C55.4163 44.7139 55.4137 47.5609 55.1224 49.7275C54.8359 51.8582 54.2911 53.1427 53.3417 54.0922C52.3923 55.0416 51.1077 55.5864 48.977 55.8729C46.8104 56.1642 43.9634 56.1668 39.9997 56.1668C36.036 56.1668 33.1889 56.1642 31.0223 55.8729C28.8916 55.5864 27.6071 55.0416 26.6577 54.0922C25.7082 53.1427 25.1634 51.8582 24.877 49.7275C24.5857 47.5609 24.583 44.7139 24.583 40.7502C24.583 36.7865 24.5857 33.9394 24.877 31.7728C25.1634 29.6421 25.7082 28.3576 26.6577 27.4082Z" fill="#FF00AA"/>
</svg>
