<svg width="48" height="48" viewBox="0 0 48 48" fill="none" xmlns="http://www.w3.org/2000/svg">
<path fill-rule="evenodd" clip-rule="evenodd" d="M24.0003 0.666656C25.1049 0.666656 26.0003 1.56209 26.0003 2.66666L26.0003 45.3333C26.0003 46.4379 25.1049 47.3333 24.0003 47.3333C22.8958 47.3333 22.0003 46.4379 22.0003 45.3333L22.0003 2.66666C22.0003 1.56209 22.8958 0.666656 24.0003 0.666656ZM13.3337 8.66666C14.4382 8.66666 15.3337 9.56209 15.3337 10.6667V37.3333C15.3337 38.4379 14.4382 39.3333 13.3337 39.3333C12.2291 39.3333 11.3337 38.4379 11.3337 37.3333V10.6667C11.3337 9.56209 12.2291 8.66666 13.3337 8.66666ZM34.667 8.66666C35.7716 8.66666 36.667 9.56209 36.667 10.6667V37.3333C36.667 38.4379 35.7716 39.3333 34.667 39.3333C33.5624 39.3333 32.667 38.4379 32.667 37.3333V10.6667C32.667 9.56209 33.5624 8.66666 34.667 8.66666ZM2.66699 19.3333C3.77156 19.3333 4.66699 20.2288 4.66699 21.3333L4.66699 26.6667C4.66699 27.7712 3.77156 28.6667 2.66699 28.6667C1.56242 28.6667 0.666993 27.7712 0.666993 26.6667L0.666992 21.3333C0.666992 20.2288 1.56242 19.3333 2.66699 19.3333ZM45.3337 19.3333C46.4382 19.3333 47.3337 20.2288 47.3337 21.3333V26.6667C47.3337 27.7712 46.4382 28.6667 45.3337 28.6667C44.2291 28.6667 43.3337 27.7712 43.3337 26.6667V21.3333C43.3337 20.2288 44.2291 19.3333 45.3337 19.3333Z" fill="url(#paint0_linear_45_44)"/>
<defs>
<linearGradient id="paint0_linear_45_44" x1="24.0003" y1="0.666656" x2="24.0003" y2="47.3333" gradientUnits="userSpaceOnUse">
<stop stop-color="#DADA29"/>
<stop offset="1" stop-color="#FF6A00"/>
</linearGradient>
</defs>
</svg>
