<svg width="58" height="58" viewBox="0 0 58 58" fill="none" xmlns="http://www.w3.org/2000/svg">
<path d="M26.9997 2.33334C26.9997 1.22877 27.8951 0.333344 28.9997 0.333344C44.8318 0.333344 57.6663 13.1678 57.6663 29C57.6663 44.8322 44.8318 57.6667 28.9997 57.6667C13.1675 57.6667 0.333008 44.8322 0.333008 29C0.333008 20.9812 3.62805 13.7284 8.93292 8.52799C9.72169 7.75474 10.988 7.76733 11.7612 8.5561C12.5345 9.34487 12.5219 10.6111 11.7331 11.3844C7.16403 15.8635 4.33301 22.0993 4.33301 29C4.33301 42.623 15.3766 53.6667 28.9997 53.6667C42.6227 53.6667 53.6663 42.623 53.6663 29C53.6663 15.377 42.6227 4.33334 28.9997 4.33334C27.8951 4.33334 26.9997 3.43791 26.9997 2.33334Z" fill="url(#paint0_linear_45_42)"/>
<path d="M26.9997 10.3333C26.9997 9.22877 27.8951 8.33334 28.9997 8.33334C40.4136 8.33334 49.6663 17.5861 49.6663 29C49.6663 40.4139 40.4136 49.6667 28.9997 49.6667C17.5858 49.6667 8.33301 40.4139 8.33301 29C8.33301 27.8954 9.22844 27 10.333 27C11.4376 27 12.333 27.8954 12.333 29C12.333 38.2048 19.7949 45.6667 28.9997 45.6667C38.2044 45.6667 45.6663 38.2048 45.6663 29C45.6663 19.7953 38.2044 12.3333 28.9997 12.3333C27.8951 12.3333 26.9997 11.4379 26.9997 10.3333Z" fill="url(#paint1_linear_45_42)"/>
<path d="M28.9997 16.3333C27.8951 16.3333 26.9997 17.2288 26.9997 18.3333C26.9997 19.4379 27.8951 20.3333 28.9997 20.3333C33.7861 20.3333 37.6663 24.2135 37.6663 29C37.6663 33.7865 33.7861 37.6667 28.9997 37.6667C27.8951 37.6667 26.9997 38.5621 26.9997 39.6667C26.9997 40.7712 27.8951 41.6667 28.9997 41.6667C35.9953 41.6667 41.6663 35.9956 41.6663 29C41.6663 22.0044 35.9953 16.3333 28.9997 16.3333Z" fill="url(#paint2_linear_45_42)"/>
<defs>
<linearGradient id="paint0_linear_45_42" x1="28.9997" y1="0.333344" x2="28.9997" y2="57.6667" gradientUnits="userSpaceOnUse">
<stop stop-color="#AC47FF"/>
<stop offset="1" stop-color="#8D35FF"/>
</linearGradient>
<linearGradient id="paint1_linear_45_42" x1="28.9997" y1="0.333344" x2="28.9997" y2="57.6667" gradientUnits="userSpaceOnUse">
<stop stop-color="#AC47FF"/>
<stop offset="1" stop-color="#8D35FF"/>
</linearGradient>
<linearGradient id="paint2_linear_45_42" x1="28.9997" y1="0.333344" x2="28.9997" y2="57.6667" gradientUnits="userSpaceOnUse">
<stop stop-color="#AC47FF"/>
<stop offset="1" stop-color="#8D35FF"/>
</linearGradient>
</defs>
</svg>
