<svg width="58" height="52" viewBox="0 0 58 52" fill="none" xmlns="http://www.w3.org/2000/svg">
<path d="M22.8723 32.0356C23.2602 31.0013 22.7362 29.8485 21.7019 29.4607C20.6677 29.0728 19.5149 29.5968 19.127 30.6311L15.127 41.2978C14.7392 42.332 15.2632 43.4848 16.2974 43.8727C17.3317 44.2605 18.4845 43.7365 18.8723 42.7022L22.8723 32.0356Z" fill="url(#paint0_linear_45_40)"/>
<path d="M14.4139 32.7475C15.1949 31.9665 15.1949 30.7002 14.4139 29.9191C13.6328 29.1381 12.3665 29.1381 11.5855 29.9191L8.9188 32.5858C8.13775 33.3668 8.13775 34.6332 8.9188 35.4142L11.5855 38.0809C12.3665 38.8619 13.6328 38.8619 14.4139 38.0809C15.1949 37.2998 15.1949 36.0335 14.4139 35.2525L13.1614 34L14.4139 32.7475Z" fill="url(#paint1_linear_45_40)"/>
<path d="M26.4139 35.2525C25.6328 34.4714 24.3665 34.4714 23.5855 35.2525C22.8044 36.0335 22.8044 37.2998 23.5855 38.0809L24.8379 39.3333L23.5855 40.5858C22.8044 41.3668 22.8044 42.6332 23.5855 43.4142C24.3665 44.1953 25.6328 44.1953 26.4139 43.4142L29.0806 40.7475C29.8616 39.9665 29.8616 38.7002 29.0806 37.9191L26.4139 35.2525Z" fill="url(#paint2_linear_45_40)"/>
<path fill-rule="evenodd" clip-rule="evenodd" d="M23.5159 8.19229e-07H34.4835C35.3214 -6.19288e-06 36.1297 -1.29556e-05 36.9089 0.00202265C36.939 0.000679537 36.9693 8.19229e-07 36.9997 8.19229e-07C37.034 8.19229e-07 37.0681 0.000864617 37.102 0.00257165C40.7927 0.0139511 43.8283 0.0755512 46.3037 0.408362C49.4302 0.828703 51.9607 1.71435 53.9564 3.70998C55.952 5.70562 56.8376 8.23615 57.258 11.3626C57.6664 14.4005 57.6664 18.2821 57.6663 23.1828V28.8171C57.6664 33.7177 57.6664 37.5995 57.258 40.6374C56.8376 43.7639 55.952 46.2944 53.9564 48.29C51.9607 50.2856 49.4302 51.1713 46.3037 51.5916C43.8283 51.9244 40.7927 51.9861 37.102 51.9974C37.0681 51.9991 37.034 52 36.9997 52C36.9693 52 36.939 51.9993 36.9089 51.998C36.1335 52 35.3295 52 34.496 52H23.5159C18.6153 52 14.7335 52.0001 11.6956 51.5916C8.56916 51.1713 6.03863 50.2856 4.04299 48.29C2.04736 46.2944 1.16171 43.7639 0.741369 40.6374C0.332935 37.5995 0.332967 33.7178 0.333009 28.8172V23.1829C0.332967 18.2822 0.332935 14.4005 0.741369 11.3626C1.16171 8.23615 2.04736 5.70562 4.04299 3.70998C6.03863 1.71435 8.56916 0.828703 11.6956 0.408362C14.7335 -7.26581e-05 18.6152 -4.0189e-05 23.5159 8.19229e-07ZM34.9997 4.00006L34.9997 47.9999L23.6663 48C18.5815 48 14.969 47.9958 12.2286 47.6273C9.5457 47.2666 7.99998 46.5901 6.87142 45.4616C5.74286 44.333 5.06641 42.7873 4.7057 40.1044C4.33726 37.364 4.33301 33.7515 4.33301 28.6667V23.3333C4.33301 18.2485 4.33726 14.636 4.7057 11.8956C5.06641 9.21269 5.74286 7.66697 6.87142 6.53841C7.99998 5.40985 9.5457 4.7334 12.2286 4.37269C14.969 4.00425 18.5815 4 23.6663 4L34.9997 4.00006ZM45.7707 47.6273C43.9548 47.8715 41.756 47.9557 38.9997 47.9847L38.9997 4.01527C41.756 4.04432 43.9548 4.12855 45.7707 4.37269C48.4536 4.7334 49.9994 5.40985 51.1279 6.53841C52.2565 7.66697 52.9329 9.21269 53.2936 11.8956C53.6621 14.636 53.6663 18.2485 53.6663 23.3333V28.6667C53.6663 33.7515 53.6621 37.364 53.2936 40.1044C52.9329 42.7873 52.2565 44.333 51.1279 45.4616C49.9994 46.5901 48.4536 47.2666 45.7707 47.6273Z" fill="url(#paint3_linear_45_40)"/>
<defs>
<linearGradient id="paint0_linear_45_40" x1="28.9997" y1="0" x2="28.9997" y2="52" gradientUnits="userSpaceOnUse">
<stop stop-color="#00B99A"/>
<stop offset="1" stop-color="#2B9DEE"/>
</linearGradient>
<linearGradient id="paint1_linear_45_40" x1="28.9997" y1="0" x2="28.9997" y2="52" gradientUnits="userSpaceOnUse">
<stop stop-color="#00B99A"/>
<stop offset="1" stop-color="#2B9DEE"/>
</linearGradient>
<linearGradient id="paint2_linear_45_40" x1="28.9997" y1="0" x2="28.9997" y2="52" gradientUnits="userSpaceOnUse">
<stop stop-color="#00B99A"/>
<stop offset="1" stop-color="#2B9DEE"/>
</linearGradient>
<linearGradient id="paint3_linear_45_40" x1="28.9997" y1="0" x2="28.9997" y2="52" gradientUnits="userSpaceOnUse">
<stop stop-color="#00B99A"/>
<stop offset="1" stop-color="#2B9DEE"/>
</linearGradient>
</defs>
</svg>
