<svg width="58" height="58" viewBox="0 0 58 58" fill="none" xmlns="http://www.w3.org/2000/svg">
<path fill-rule="evenodd" clip-rule="evenodd" d="M20.9997 0.333313C22.1042 0.333313 22.9997 1.22874 22.9997 2.33331V5.70056C24.2423 5.67666 25.574 5.6696 26.9997 5.66751V2.33331C26.9997 1.22874 27.8951 0.333313 28.9997 0.333313C30.1042 0.333313 30.9997 1.22874 30.9997 2.33331V5.66751C32.4254 5.6696 33.757 5.67666 34.9997 5.70056V2.33331C34.9997 1.22874 35.8951 0.333313 36.9997 0.333313C38.1042 0.333313 38.9997 1.22874 38.9997 2.33331V5.87221C39.6929 5.92506 40.3493 5.9915 40.9704 6.07501C44.0969 6.49535 46.6274 7.38099 48.623 9.37663C50.6187 11.3723 51.5043 13.9028 51.9246 17.0292C52.0082 17.6504 52.0746 18.3068 52.1274 19H55.6663C56.7709 19 57.6663 19.8954 57.6663 21C57.6663 22.1045 56.7709 23 55.6663 23H52.2991C52.323 24.2426 52.3301 25.5743 52.3321 27H55.6663C56.7709 27 57.6663 27.8954 57.6663 29C57.6663 30.1045 56.7709 31 55.6663 31H52.3321C52.3301 32.4257 52.323 33.7573 52.2991 35H55.6663C56.7709 35 57.6663 35.8954 57.6663 37C57.6663 38.1045 56.7709 39 55.6663 39H52.1274C52.0746 39.6932 52.0082 40.3496 51.9246 40.9707C51.5043 44.0972 50.6187 46.6277 48.623 48.6233C46.6274 50.619 44.0969 51.5046 40.9704 51.9249C40.3493 52.0085 39.6929 52.0749 38.9997 52.1277V55.6666C38.9997 56.7712 38.1042 57.6666 36.9997 57.6666C35.8951 57.6666 34.9997 56.7712 34.9997 55.6666V52.2994C33.757 52.3233 32.4254 52.3304 30.9997 52.3324V55.6666C30.9997 56.7712 30.1042 57.6666 28.9997 57.6666C27.8951 57.6666 26.9997 56.7712 26.9997 55.6666V52.3324C25.574 52.3304 24.2423 52.3233 22.9997 52.2994V55.6666C22.9997 56.7712 22.1042 57.6666 20.9997 57.6666C19.8951 57.6666 18.9997 56.7712 18.9997 55.6666V52.1277C18.3065 52.0749 17.6501 52.0085 17.0289 51.9249C13.9025 51.5046 11.372 50.619 9.37632 48.6233C7.38069 46.6277 6.49504 44.0972 6.0747 40.9707C5.99119 40.3496 5.92476 39.6932 5.87191 39H2.33301C1.22844 39 0.333008 38.1045 0.333008 37C0.333008 35.8954 1.22844 35 2.33301 35H5.70026C5.67636 33.7573 5.66929 32.4257 5.66721 31H2.33301C1.22844 31 0.333008 30.1045 0.333008 29C0.333008 27.8954 1.22844 27 2.33301 27H5.66721C5.66929 25.5743 5.67636 24.2426 5.70026 23H2.33301C1.22844 23 0.333008 22.1045 0.333008 21C0.333008 19.8954 1.22844 19 2.33301 19H5.87191C5.92476 18.3068 5.99119 17.6504 6.0747 17.0292C6.49504 13.9028 7.38069 11.3723 9.37632 9.37663C11.372 7.38099 13.9025 6.49535 17.0289 6.07501C17.6501 5.9915 18.3065 5.92506 18.9997 5.87221V2.33331C18.9997 1.22874 19.8951 0.333313 20.9997 0.333313ZM17.5619 10.0393C14.879 10.4 13.3333 11.0765 12.2047 12.2051C11.0762 13.3336 10.3997 14.8793 10.039 17.5622C9.67059 20.3027 9.66634 23.9151 9.66634 29C9.66634 34.0848 9.67059 37.6973 10.039 40.4377C10.3997 43.1206 11.0762 44.6663 12.2047 45.7949C13.3333 46.9235 14.879 47.5999 17.5619 47.9606C20.3024 48.3291 23.9148 48.3333 28.9997 48.3333C34.0845 48.3333 37.697 48.3291 40.4374 47.9606C43.1203 47.5999 44.666 46.9235 45.7946 45.7949C46.9232 44.6663 47.5996 43.1206 47.9603 40.4377C48.3288 37.6973 48.333 34.0848 48.333 29C48.333 23.9151 48.3288 20.3027 47.9603 17.5622C47.5996 14.8793 46.9232 13.3336 45.7946 12.2051C44.666 11.0765 43.1203 10.4 40.4374 10.0393C37.697 9.67089 34.0845 9.66665 28.9997 9.66665C23.9148 9.66665 20.3024 9.67089 17.5619 10.0393ZM23.5347 13.6666H34.4647C36.2376 13.6665 37.7653 13.6665 38.9886 13.8309C40.2996 14.0072 41.5563 14.4047 42.5756 15.424C43.595 16.4433 43.9925 17.7 44.1687 19.0111C44.3332 20.2344 44.3331 21.762 44.333 23.535V34.465C44.3331 36.2379 44.3332 37.7656 44.1687 38.9889C43.9925 40.2999 43.595 41.5566 42.5756 42.576C41.5563 43.5953 40.2996 43.9928 38.9886 44.169C37.7653 44.3335 36.2376 44.3334 34.4647 44.3333H23.5347C21.7617 44.3334 20.2341 44.3335 19.0108 44.169C17.6997 43.9928 16.443 43.5953 15.4237 42.576C14.4044 41.5566 14.0069 40.2999 13.8306 38.9889C13.6662 37.7656 13.6662 36.2379 13.6663 34.465V23.535C13.6662 21.762 13.6662 20.2344 13.8306 19.0111C14.0069 17.7 14.4044 16.4433 15.4237 15.424C16.443 14.4047 17.6997 14.0072 19.0108 13.8309C20.2341 13.6665 21.7617 13.6665 23.5347 13.6666ZM19.5437 17.7953C18.6763 17.9119 18.4044 18.1002 18.2521 18.2524C18.0999 18.4047 17.9116 18.6766 17.795 19.5441C17.6706 20.4691 17.6663 21.7245 17.6663 23.6666V34.3333C17.6663 36.2755 17.6706 37.5309 17.795 38.4559C17.9116 39.3234 18.0999 39.5953 18.2521 39.7475C18.4044 39.8998 18.6763 40.0881 19.5437 40.2047C20.4688 40.3291 21.7242 40.3333 23.6663 40.3333H34.333C36.2752 40.3333 37.5306 40.3291 38.4556 40.2047C39.3231 40.0881 39.595 39.8998 39.7472 39.7475C39.8995 39.5953 40.0878 39.3234 40.2044 38.4559C40.3288 37.5309 40.333 36.2755 40.333 34.3333V23.6666C40.333 21.7245 40.3288 20.4691 40.2044 19.5441C40.0878 18.6766 39.8995 18.4047 39.7472 18.2524C39.595 18.1002 39.3231 17.9119 38.4556 17.7953C37.5306 17.6709 36.2752 17.6666 34.333 17.6666H23.6663C21.7242 17.6666 20.4688 17.6709 19.5437 17.7953Z" fill="url(#paint0_linear_44_37)"/>
<defs>
<linearGradient id="paint0_linear_44_37" x1="28.9997" y1="0.333313" x2="28.9997" y2="57.6666" gradientUnits="userSpaceOnUse">
<stop stop-color="#F3A023"/>
<stop offset="1" stop-color="#D72FC4"/>
</linearGradient>
</defs>
</svg>
